<?xml version="1.0" encoding="UTF-8" standalone="no"?>
<svg width="130px" height="46px" viewBox="0 0 130 46" version="1.1" xmlns="http://www.w3.org/2000/svg" xmlns:xlink="http://www.w3.org/1999/xlink">
    <!-- Generator: Sketch 3.8.3 (29802) - http://www.bohemiancoding.com/sketch -->
    <title>Group 16</title>
    <desc>Created with Sketch.</desc>
    <defs></defs>
    <g id="Page-1" stroke="none" stroke-width="1" fill="none" fill-rule="evenodd">
        <g id="Лендинг" transform="translate(-653.000000, -3061.000000)">
            <g id="Group-16" transform="translate(653.000000, 3061.000000)">
                <path d="M48.9563674,44.4664068 L40.9314232,25.3478819 C40.7066421,24.8135979 40.0524146,24.3769968 39.4758824,24.3769968 L34.1514489,24.3769968 C33.5745476,24.3769968 33.143994,24.5953902 33.020715,24.9047809 C32.9465262,25.0912324 32.8813803,25.5586612 33.3062129,25.9514351 L36.0111528,28.4449459 C36.4363545,28.8354912 36.967303,29.5937399 37.1907923,30.1278381 L43.2098695,44.4664068 C43.4344661,45.0006907 44.088509,45.4372919 44.6650412,45.4372919 L48.3163502,45.4372919 C48.8921442,45.4372919 49.1807794,45.0006907 48.9563674,44.4664068" id="Fill-1" fill="#1976D2"></path>
                <path d="M39.531727,38.443428 C39.3071305,37.909144 38.6530876,37.4725429 38.0765554,37.4725429 L33.9085082,37.4725429 C33.3317914,37.4725429 33.0438944,37.0350132 33.2675682,36.5007293 L35.622418,30.891398 C35.84683,30.3571141 35.6823966,29.6001654 35.2581176,29.2086915 L32.9992335,27.1098117 C32.5740318,26.7183378 32.0432678,26.83552 31.8184867,27.3698039 L24.6712592,44.4663325 C24.4464781,45.0006165 24.7345597,45.4372176 25.3110918,45.4372176 L28.4694695,45.4372176 C29.0448944,45.4372176 29.7004137,45.0006165 29.9248258,44.4663325 L30.6368172,42.770255 C30.8601219,42.2361567 31.5152721,41.7995556 32.0923579,41.7995556 L39.8927056,41.7995556 C40.468315,41.7995556 40.7571348,41.3616545 40.5327227,40.8273706 L39.531727,38.443428 Z" id="Fill-3" fill="#1976D2"></path>
                <path d="M52.3464652,44.3833764 C52.3464652,44.9637161 52.8174352,45.4376447 53.3941519,45.4376447 L57.2916498,45.4376447 C57.8683665,45.4376447 58.3393365,44.9637161 58.3393365,44.3833764 L58.3393365,25.4305037 C58.3393365,24.8516496 57.8683665,24.3764211 57.2916498,24.3764211 L53.3941519,24.3764211 C52.8174352,24.3764211 52.3464652,24.8516496 52.3464652,25.4305037 L52.3464652,44.3833764 Z" id="Fill-5" fill="#1976D2"></path>
                <path d="M67.5135803,33.374509 C67.938782,33.7659829 68.5306318,33.6816712 68.8294172,33.1856433 L73.6404343,25.2101974 C73.9394043,24.7143552 73.7125931,24.308396 73.1358764,24.308396 L68.9777948,24.308396 C68.4008936,24.308396 67.6848421,24.7143552 67.3858721,25.2101974 L64.8110395,29.4798262 C64.5109622,29.9758541 64.6148635,30.7019751 65.0398807,31.0938205 L67.5135803,33.374509 Z" id="Fill-7" fill="#1976D2"></path>
                <path d="M69.6922777,37.2412056 C69.3934923,36.745549 68.8005352,36.0190566 68.3764408,35.6275827 L64.7515223,32.2857546 C64.3261361,31.8942807 63.5076597,31.5739332 62.9318657,31.5739332 L60.4028013,31.5739332 C59.8257155,31.5739332 59.3547455,32.0487903 59.3547455,32.6282015 L59.3547455,34.8463062 C59.3547455,35.4266459 59.8257155,35.9005745 60.4028013,35.9005745 L61.5822562,35.9005745 C62.1576811,35.9005745 62.8741017,36.3067194 63.1738099,36.8023759 L67.7973249,44.4676882 C68.0961103,44.9633447 68.8125309,45.3694896 69.3883249,45.3694896 L73.5471446,45.3694896 C74.1229386,45.3694896 74.3493807,44.9633447 74.0509644,44.4676882 L69.6922777,37.2412056 Z" id="Fill-9" fill="#1976D2"></path>
                <path d="M103.220743,25.7670635 C102.796833,25.3742896 102.450065,25.5267565 102.450065,26.1069105 L102.450065,44.3410906 C102.450065,44.9205017 102.921958,45.3955446 103.497567,45.3955446 L106.902318,45.3955446 C107.47922,45.3955446 107.95019,44.9205017 107.95019,44.3410906 L107.95019,31.2094427 C107.95019,30.629103 107.603421,29.8337127 107.180434,29.4400102 L103.220743,25.7670635 Z" id="Fill-11" fill="#1976D2"></path>
                <path d="M116.389336,24.3083217 L112.883268,24.3083217 L111.48586,24.3083217 L104.236761,24.3083217 C103.661336,24.3083217 103.535843,24.6297835 103.959937,25.0234859 L107.946757,28.721689 C108.371036,29.1144629 109.188774,29.4368532 109.765491,29.4368532 L111.48586,29.4368532 L112.883268,29.4368532 L115.895482,29.4368532 C117.084903,29.4368532 118.048804,30.4068097 118.048804,31.6037023 C118.048804,32.7994806 117.084903,33.7703657 115.895482,33.7703657 L113.213611,33.7703657 L111.48586,33.7703657 L110.068336,33.7703657 C109.492912,33.7703657 109.02065,34.2442943 109.02065,34.824634 L109.02065,37.5452664 C109.02065,38.1246776 109.492912,38.5995347 110.068336,38.5995347 L111.48586,38.5995347 L113.213611,38.5995347 L116.389336,38.5995347 C120.175551,38.5995347 123.243684,35.2636493 123.243684,31.4536496 C123.243684,27.6443928 120.175551,24.3083217 116.389336,24.3083217" id="Fill-13" fill="#1976D2"></path>
                <path d="M7.08739657,31.2091827 C7.08739657,30.628843 6.74062833,29.8334527 6.31671845,29.4397502 L2.60450815,25.927813 C2.18022918,25.5350391 1.83346094,25.6876916 1.83346094,26.2680313 L1.83346094,43.3185042 C1.83346094,43.8975439 2.18022918,44.0513107 2.60450815,43.6576083 L6.31671845,40.2379683 C6.74062833,39.8451944 7.08739657,39.0485041 7.08739657,38.4683501 L7.08739657,31.2091827 Z" id="Fill-15" fill="#1976D2"></path>
                <path d="M19.251303,29.410464 C19.8280197,29.410464 20.2989897,28.9365354 20.2989897,28.3561957 L20.2989897,25.3625714 C20.2989897,24.7831603 19.8280197,24.3083031 19.251303,24.3083031 L3.37470644,24.3083031 C2.7979897,24.3083031 2.67378798,24.6295792 3.09659056,25.0234673 L7.056097,28.696414 C7.48056052,29.0891879 8.29792961,29.410464 8.8748309,29.410464 L19.251303,29.410464 Z" id="Fill-17" fill="#1976D2"></path>
                <path d="M15.5265064,45.3691554 L12.0202532,45.3691554 L10.6215536,45.3691554 L3.37411588,45.3691554 C2.79832189,45.3691554 2.67282833,45.0478793 3.0967382,44.6551054 L7.08392704,40.9557881 C7.50802146,40.5630142 8.32575966,40.2417382 8.90229185,40.2417382 L10.6215536,40.2417382 L12.0202532,40.2417382 L15.0326524,40.2417382 C16.2218884,40.2417382 17.1857897,39.2706674 17.1857897,38.0748891 C17.1857897,36.8779965 16.2218884,35.9071114 15.0326524,35.9071114 L12.3505966,35.9071114 L10.6215536,35.9071114 L9.20550644,35.9071114 C8.62971245,35.9071114 8.15763519,35.4331828 8.15763519,34.8528431 L8.15763519,32.6280529 C8.15763519,32.0488275 8.62971245,31.5748989 9.20550644,31.5748989 L10.6215536,31.5748989 L12.3505966,31.5748989 L15.5265064,31.5748989 C19.3116137,31.5748989 22.380485,34.6619346 22.380485,38.47212 C22.380485,42.2811911 19.3116137,45.3691554 15.5265064,45.3691554" id="Fill-19" fill="#1976D2"></path>
                <path d="M86.8468232,23.914285 C84.146497,23.914285 81.583291,24.7536883 79.5458661,26.2391722 L79.5445742,26.2391722 L79.5403296,26.2434435 C79.5338704,26.2479005 79.5274112,26.2508718 79.5216901,26.2557003 L79.522982,26.2564431 C79.0848618,26.5832904 79.0019991,27.1155316 79.4194498,27.5006914 L79.5436515,27.6158308 C79.5665356,27.6422014 79.5860979,27.6696863 79.6145185,27.6960569 L79.6558575,27.7343129 C79.6645313,27.7430412 79.6700678,27.7517696 79.6800335,27.7606836 L79.7999906,27.8715517 C79.8215828,27.8966223 79.8413296,27.9239215 79.8675356,27.9482494 L81.9278446,29.8473065 C82.3268403,30.2159383 83.0159476,30.3048928 83.47363,30.012773 C84.4181536,29.3778349 85.5778618,29.0311168 86.8468232,29.0311168 C90.0672094,29.0311168 92.6162052,31.3095768 92.6162052,34.9069401 C92.6162052,38.5052318 90.0672094,40.7838776 86.8468232,40.7838776 C83.5915571,40.7838776 81.0427459,38.5052318 81.0427459,34.9069401 C81.0427459,33.8966847 81.2542395,32.9575558 81.6161408,32.1762793 C81.8352009,31.6880512 81.6683682,30.9771583 81.2771236,30.6174405 L79.1448403,28.6513425 C79.1011021,28.610858 79.0551494,28.5779876 79.0084584,28.5484599 L78.9364841,28.4825333 C78.920982,28.4695337 78.9049262,28.4595054 78.889424,28.4474343 L78.8645099,28.4244065 C78.8196644,28.382622 78.7716815,28.348823 78.7238833,28.3179954 L78.6496944,28.2489117 C78.2398103,27.8715517 77.6651236,27.9339498 77.3425313,28.3718509 L77.3445614,28.3740794 C77.3381021,28.3792793 77.3294283,28.3835506 77.3238918,28.3904218 C75.9558275,30.1565115 75.13163,32.3725734 75.13163,34.9069401 C75.13163,41.4652428 80.6317545,45.900338 86.8468232,45.900338 C93.0620764,45.900338 98.5623854,41.4652428 98.5623854,34.9069401 C98.5623854,28.3497516 93.0620764,23.914285 86.8468232,23.914285" id="Fill-21" fill="#1976D2"></path>
                <path d="M23.5660485,6.49278471 C23.5660485,6.42035831 23.5496236,6.35127468 23.5224948,6.28887656 C23.4263446,5.96295779 23.1308811,5.73806455 22.8738039,5.55588432 C22.8117953,5.51205706 22.7211815,5.44854469 22.6567738,5.39561771 C22.6754133,5.36089018 22.6970056,5.32226277 22.7147223,5.29143513 C22.8475979,5.05577079 23.0950785,4.61582688 22.7974004,4.18795403 C22.5847996,3.88394889 22.1859884,3.74689587 21.7637395,3.60092883 C21.5873103,3.53945925 21.2927695,3.43657663 21.225409,3.38049261 C21.2121215,3.35412197 21.2004948,3.25996766 21.1927438,3.19831237 C21.1632159,2.95261976 21.1119112,2.54238924 20.6880013,2.27775435 C20.3750056,2.08498872 19.9466665,2.0313189 19.4930442,1.97300637 C19.2140056,1.93790743 18.8956579,1.89835147 18.7386064,1.82945354 C18.628615,1.78005503 18.5511043,1.69221482 18.4233961,1.54086222 C18.2478897,1.3311971 18.0079755,1.04390574 17.5689326,0.911124023 C17.2570442,0.816598295 16.8047137,0.819941052 16.3130742,0.847240231 C16.0153961,0.865068266 15.7110742,0.889024688 15.4711601,0.842040387 C15.2771987,0.805641482 15.0930185,0.703687406 14.8772803,0.586505216 C14.5749884,0.420667347 14.2328339,0.23310156 13.7878854,0.192431355 C13.387967,0.159375206 12.9714391,0.259286487 12.5844391,0.359197767 C12.0044004,0.508321853 11.5605592,0.508321853 10.9818124,0.358083515 C10.5946279,0.259286487 10.1814219,0.158446663 9.77818155,0.192431355 C9.3334176,0.23310156 8.99107854,0.420667347 8.68786395,0.586505216 C8.47434034,0.703687406 8.28794549,0.805641482 8.09601416,0.842040387 C7.85277811,0.889024688 7.54974807,0.865068266 7.2533618,0.847240231 C6.76375236,0.821241013 6.30791545,0.817712547 5.99842618,0.911124023 C5.55790687,1.04390574 5.31817725,1.3311971 5.14137897,1.54086222 C5.01496266,1.69221482 4.93782103,1.78005503 4.82875236,1.82945354 C4.67040901,1.89835147 4.35335322,1.93790743 4.07302275,1.97300637 C3.61976953,2.0313189 3.19106137,2.08498872 2.87935751,2.27775435 C2.45397124,2.54238924 2.40395837,2.95261976 2.37332318,3.19831237 C2.3659412,3.25996766 2.35394549,3.35412197 2.34619442,3.37269284 C2.27422017,3.43657663 1.97875665,3.53853071 1.80232747,3.59981458 C1.38044764,3.74596733 0.981267382,3.88394889 0.768851073,4.18795403 C0.470988412,4.61582688 0.718469099,5.05577079 0.851713734,5.29143513 C0.869061373,5.32226277 0.891022747,5.36089018 0.909477682,5.39561771 C0.844885408,5.44854469 0.754640773,5.51205706 0.692447639,5.55588432 C0.435185837,5.73806455 0.139722318,5.96295779 0.0437566524,6.28887656 C0.0164433476,6.35127468 1.84549356e-05,6.42035831 1.84549356e-05,6.49278471 L1.84549356e-05,9.77630023 C1.84549356e-05,9.84891233 0.0164433476,9.91669601 0.0437566524,9.97909413 C0.131971245,10.2799422 0.385911159,10.4925787 0.62914721,10.6660306 L0.62914721,11.5865886 C0.62914721,11.5897457 0.630439056,11.5917885 0.630439056,11.5953169 C0.621396137,11.7511265 0.655353219,11.9177072 0.76977382,12.0813166 C0.981267382,12.3840218 1.38044764,12.5223748 1.80232747,12.6694561 C1.97875665,12.7298114 2.27422017,12.832694 2.34084249,12.8885923 C2.35394549,12.9138487 2.3659412,13.0083744 2.37332318,13.0696583 C2.40395837,13.3164652 2.45397124,13.7266957 2.87825021,13.9892878 C3.19106137,14.1831677 3.61976953,14.2379517 4.07302275,14.29515 C4.35335322,14.330249 4.66948627,14.3707335 4.82875236,14.4398171 C4.93782103,14.4882871 5.01496266,14.5759416 5.14137897,14.7274799 C5.31817725,14.9378878 5.55790687,15.2253649 5.99842618,15.3572181 C6.30791545,15.4513724 6.75950773,15.4471011 7.25206996,15.4205447 C7.54882532,15.4042024 7.8549927,15.3811745 8.09490687,15.426116 C8.28794549,15.4636292 8.47434034,15.5642833 8.68786395,15.6818369 C8.92980815,15.8146186 9.20146481,15.9583571 9.52627167,16.0317121 C9.5917867,16.063654 9.66376094,16.0846391 9.74108712,16.0846391 C9.75529742,16.0846391 9.76729313,16.0777678 9.78039614,16.0768393 C10.1836365,16.1141667 10.5959197,16.0109127 10.9818124,15.9100729 C11.5605592,15.7596488 12.0044004,15.7596488 12.5833318,15.9087729 C12.914967,15.9956846 13.2569369,16.0846391 13.6101644,16.0846391 C13.6614691,16.0846391 13.7127738,16.0811106 13.7629712,16.0777678 C13.774967,16.0777678 13.7847481,16.0846391 13.7965592,16.0846391 C13.8707481,16.0846391 13.939585,16.066811 14.0027009,16.0382119 C14.3437481,15.9670855 14.6262931,15.8190756 14.8772803,15.6818369 C15.0930185,15.5642833 15.2771987,15.4636292 15.4702373,15.426116 C15.7121815,15.3811745 16.0163189,15.4042024 16.3151043,15.4205447 C16.8056365,15.4504438 17.2559369,15.4526724 17.5676408,15.3594466 C18.0079755,15.2253649 18.2478897,14.9378878 18.4233961,14.7284084 C18.5511043,14.5768701 18.6273232,14.4892156 18.7373146,14.4409314 C18.8956579,14.3707335 19.2127137,14.3311775 19.4930442,14.2960786 C19.9466665,14.2379517 20.3750056,14.1842819 20.6867094,13.9902163 C20.7250957,13.9658885 20.746688,13.9363608 20.7795378,13.9101759 C20.957997,13.8420208 21.0847824,13.6763686 21.10213,13.4767318 C21.1567567,13.327422 21.1796408,13.1816407 21.1927438,13.0709583 C21.2004948,13.0083744 21.2121215,12.9138487 21.2198725,12.8952778 C21.2918468,12.832694 21.5873103,12.7298114 21.7637395,12.6694561 C22.1859884,12.5223748 22.5847996,12.3840218 22.7974004,12.0813166 C22.8889369,11.9494634 22.9251086,11.8179817 22.9324906,11.6894713 C22.9402416,11.6556723 22.9533446,11.6239161 22.9533446,11.5865886 L22.9533446,10.6539595 C23.1908597,10.4829218 23.4363103,10.2732567 23.5224948,9.97909413 C23.5496236,9.91669601 23.5660485,9.84891233 23.5660485,9.77630023 L23.5660485,6.49278471 Z M11.7831258,2.01126236 C15.9356708,2.01126236 19.4437695,3.72813929 19.4437695,5.76109243 C19.4437695,7.79293132 15.9356708,9.50980825 11.7831258,9.50980825 C7.63039614,9.50980825 4.12211288,7.79293132 4.12211288,5.76109243 C4.12211288,3.72813929 7.63039614,2.01126236 11.7831258,2.01126236 L11.7831258,2.01126236 Z M17.2766064,1.88850891 C17.4205549,1.93140762 17.499173,2.01906213 17.6482888,2.19789961 C17.6604691,2.21312772 17.6756021,2.22965579 17.6888897,2.24525532 C17.4098511,2.10374529 17.1143876,1.97096357 16.8012073,1.85025292 C16.9986751,1.84802441 17.1730742,1.85545276 17.2766064,1.88850891 L17.2766064,1.88850891 Z M6.28946052,1.88850891 C6.3929927,1.85675272 6.56628455,1.84895296 6.76375236,1.85118146 C6.45075665,1.97096357 6.15658498,2.10374529 5.87754635,2.24525532 C5.89046481,2.22965579 5.90467511,2.21312772 5.91759356,2.19789961 C6.06726309,2.01906213 6.14458927,1.93140762 6.28946052,1.88850891 L6.28946052,1.88850891 Z M1.27562361,6.39083063 C1.54045193,6.20419339 1.81432318,6.0101278 1.91656352,5.70407986 C2.04076524,5.33433384 1.85658498,5.00544373 1.73367511,4.78797884 C1.72370944,4.77070793 1.71171373,4.7486086 1.69971803,4.72780922 C1.82391974,4.6717252 2.00717725,4.60802711 2.13267082,4.56531411 C2.47593262,4.44571771 2.80073948,4.33392107 3.02330601,4.13316997 C3.3123103,3.87187783 3.35235751,3.54298772 3.37985536,3.32459429 C3.38742189,3.26201046 3.39849485,3.16878469 3.4114133,3.14668535 C3.53561502,3.07017337 3.91947768,3.02077485 4.19943906,2.98567591 C4.4164691,2.95911957 4.6311,2.92402062 4.83724163,2.87926483 C3.75264506,3.67446948 3.10819871,4.6674539 3.10819871,5.76109243 C3.10819871,8.43585483 6.91858927,10.5299061 11.7831258,10.5299061 C16.6476622,10.5299061 20.4576837,8.43585483 20.4576837,5.76109243 C20.4576837,4.6674539 19.8134219,3.67446948 18.7288253,2.87796486 C18.9336751,2.92402062 19.1495979,2.95819102 19.3666279,2.98567591 C19.6467738,3.02077485 20.0304519,3.07017337 20.1537309,3.14241405 C20.1679412,3.16785614 20.1786451,3.26201046 20.1863961,3.32329433 C20.2137094,3.54168776 20.2541258,3.87187783 20.5427609,4.13316997 C20.7653275,4.33392107 21.0901343,4.44571771 21.434688,4.56531411 C21.5622116,4.60914136 21.750821,4.67506795 21.8685635,4.72428076 C21.8556451,4.74768005 21.8423575,4.76847943 21.8325764,4.78797884 C21.7092974,5.00544373 21.5251172,5.33433384 21.6485807,5.70407986 C21.7521129,6.0101278 22.0254305,6.20419339 22.2902588,6.39083063 C22.3308597,6.41942977 22.3821644,6.45675722 22.4321773,6.49278471 C22.3821644,6.52918361 22.3308597,6.56651106 22.2902588,6.59473878 C22.0254305,6.78137603 21.7521129,6.97544162 21.6493189,7.28167526 C21.5251172,7.65142129 21.7105893,7.9804971 21.8325764,8.19759057 C21.8423575,8.2152329 21.8543532,8.23621798 21.8663489,8.25701736 C21.7421472,8.31384422 21.5588897,8.37772801 21.4337652,8.42044101 C21.0901343,8.53910887 20.7653275,8.65183405 20.5427609,8.85239945 C20.2541258,9.11369159 20.2137094,9.44276741 20.1863961,9.66097513 C20.1786451,9.72374467 20.1679412,9.81678473 20.1546536,9.83888406 C20.0304519,9.91576746 19.6467738,9.96516598 19.3666279,10.0002649 C19.0014047,10.0450207 18.6240013,10.093305 18.3318597,10.2216297 C17.9994863,10.3675967 17.8044176,10.600104 17.6482888,10.7867413 C17.499173,10.9665073 17.4205549,11.0545332 17.2756837,11.0983605 C17.1001773,11.1499875 16.7314476,11.1408878 16.3717609,11.1191598 C15.9834691,11.0983605 15.5988682,11.0805324 15.2827352,11.1399592 C14.9324605,11.2068143 14.6460399,11.3639239 14.3930227,11.5020912 C14.1453575,11.6378442 13.9318339,11.7553978 13.6952416,11.7763829 L13.6092416,11.7806542 C13.3859369,11.7806542 13.1185249,11.7115706 12.8363489,11.6378442 C12.4991773,11.5514897 12.1494562,11.4603067 11.7831258,11.4603067 C11.4166107,11.4603067 11.0667052,11.5514897 10.7287953,11.6378442 C10.4475421,11.7115706 10.162967,11.7563264 9.87082532,11.7763829 C9.63423305,11.7553978 9.42070944,11.6378442 9.17433605,11.5032054 C8.92021159,11.3639239 8.63360644,11.2068143 8.28370086,11.1399592 C7.96849056,11.0805324 7.58370515,11.0983605 7.19430601,11.1191598 C6.83240472,11.1408878 6.46496695,11.150916 6.28946052,11.0970605 C6.14569657,11.0545332 6.06264936,10.9613074 5.91759356,10.7876698 C5.76072661,10.600104 5.56658069,10.3666682 5.2331,10.2216297 C4.94077382,10.093305 4.56373948,10.0463207 4.19943906,10.0002649 C3.91947768,9.96516598 3.53561502,9.91576746 3.41233605,9.84315536 C3.39849485,9.81678473 3.38742189,9.72374467 3.37985536,9.66097513 C3.35235751,9.44276741 3.3123103,9.11276305 3.02201416,8.85165661 C2.80073948,8.6507198 2.47593262,8.53910887 2.13267082,8.42044101 C2.00496266,8.37642805 1.81653777,8.31068717 1.69750343,8.26128866 C1.71079099,8.23826078 1.72260215,8.21616144 1.73367511,8.19759057 C1.85658498,7.9804971 2.04076524,7.65142129 1.91656352,7.28167526 C1.81432318,6.97544162 1.54045193,6.78137603 1.27562361,6.59473878 C1.2352073,6.56651106 1.18427167,6.52918361 1.1338897,6.49278471 C1.18427167,6.45675722 1.2352073,6.41942977 1.27562361,6.39083063 L1.27562361,6.39083063 Z M0.901726609,7.60425128 L0.901726609,7.5834519 C0.903941202,7.5854947 0.90726309,7.5877232 0.909477682,7.58995171 C0.906155794,7.59422301 0.903941202,7.59868002 0.901726609,7.60425128 L0.901726609,7.60425128 Z M2.13267082,11.7037708 C2.00496266,11.6599436 1.81524592,11.594017 1.69750343,11.5436899 C1.69971803,11.5405329 1.67812575,11.520662 1.64749056,11.4976342 L1.64749056,9.32985652 C1.69971803,9.34842739 1.7501,9.36718396 1.80325021,9.38575483 C1.97875665,9.44611016 2.27422017,9.54806424 2.34084249,9.60414827 C2.35394549,9.6305189 2.3659412,9.72485892 2.37332318,9.78725704 C2.39196266,9.93879534 2.43016438,10.1527318 2.54790687,10.3579399 C2.54679957,10.3698252 2.54144764,10.3787393 2.54144764,10.3906246 L2.54144764,11.8586519 C2.4104176,11.8036821 2.27551202,11.753355 2.13267082,11.7037708 L2.13267082,11.7037708 Z M5.2331,13.504031 C4.94077382,13.3768205 4.56373948,13.3296505 4.19943906,13.2826662 C3.99145193,13.2572241 3.7284691,13.2232394 3.5553618,13.1781122 L3.5553618,10.9347511 C3.72108712,10.9642788 3.89437897,10.9899066 4.07302275,11.0116345 C4.35335322,11.0480334 4.66948627,11.0874037 4.82875236,11.1564873 C4.93874378,11.2060715 5.01496266,11.293726 5.14137897,11.4450786 C5.2331,11.5546467 5.34438326,11.6842714 5.4903618,11.8027536 L5.4903618,13.6533408 C5.41395837,13.5994852 5.33109571,13.5478582 5.2331,13.504031 L5.2331,13.504031 Z M8.28370086,14.4236604 C7.96849056,14.3642337 7.58370515,14.3807617 7.19430601,14.4015611 C6.94368798,14.4167892 6.6951,14.424589 6.50427597,14.4115894 L6.50427597,12.1468718 C6.73200987,12.1582 6.98502704,12.1526288 7.25206996,12.1383292 C7.54882532,12.1208726 7.8549927,12.0978447 8.09490687,12.1439004 C8.28794549,12.1799279 8.47434034,12.281882 8.68786395,12.3994356 C8.85377382,12.4893186 9.03463219,12.5847729 9.23431459,12.6616563 L9.23431459,14.8173629 C9.21364506,14.8051061 9.19500558,14.7974921 9.17433605,14.7865352 C8.92021159,14.6472537 8.63360644,14.4905156 8.28370086,14.4236604 L8.28370086,14.4236604 Z M11.7831258,14.744008 C11.4166107,14.744008 11.0667052,14.8337053 10.7287953,14.9215455 C10.5695292,14.9622157 10.4095249,14.9973146 10.2482288,15.022571 L10.2482288,12.7779099 C10.4975549,12.7470823 10.7452202,12.6880269 10.9818124,12.6276716 C11.5605592,12.476319 12.0044004,12.4772476 12.5833318,12.6265574 C12.8130957,12.6859841 13.0498725,12.7350112 13.2896021,12.7671388 L13.2896021,15.0257281 C13.1456536,14.9982432 12.9954305,14.9622157 12.8363489,14.9215455 C12.4991773,14.8337053 12.1494562,14.744008 11.7831258,14.744008 L11.7831258,14.744008 Z M16.3728682,14.4024897 C15.9834691,14.3794618 15.5988682,14.3642337 15.2827352,14.4236604 C14.9324605,14.4905156 14.6460399,14.6472537 14.3930227,14.7856067 C14.3614648,14.8021348 14.3343361,14.8138344 14.3037009,14.8303625 L14.3037009,12.6703846 C14.5150099,12.5935012 14.7047266,12.4937756 14.8772803,12.3994356 C15.0930185,12.281882 15.2771987,12.1799279 15.4702373,12.1439004 C15.7121815,12.0978447 16.0153961,12.1208726 16.3130742,12.1383292 C16.6279155,12.1559715 16.9202416,12.1602428 17.1752888,12.1394434 L17.1752888,14.3982184 C16.9802202,14.425889 16.6770056,14.4180892 16.3728682,14.4024897 L16.3728682,14.4024897 Z M19.3666279,13.2835947 C19.0014047,13.3296505 18.6240013,13.3768205 18.3331515,13.5053309 C18.2796322,13.5283588 18.2347867,13.5569579 18.189203,13.5842571 L18.189203,11.698571 C18.2785249,11.6105451 18.3582502,11.5228906 18.4233961,11.4450786 C18.5511043,11.293726 18.628615,11.2060715 18.7373146,11.1564873 C18.8956579,11.0874037 19.2127137,11.0480334 19.4930442,11.0116345 C19.7021386,10.9850782 19.9062502,10.9590789 20.095967,10.919523 L20.095967,13.1443132 C19.9402073,13.2080113 19.6163232,13.2518385 19.3666279,13.2835947 L19.3666279,13.2835947 Z M21.8663489,11.5414614 C21.7421472,11.5975455 21.5588897,11.6599436 21.4337652,11.7037708 C21.3202674,11.7433268 21.2167352,11.7849255 21.1098811,11.8257814 L21.1098811,10.1657314 C21.1567567,10.0264498 21.1796408,9.89143962 21.1927438,9.78725704 C21.2004948,9.72597317 21.2121215,9.63144744 21.2198725,9.61287657 C21.2927695,9.54806424 21.5873103,9.44611016 21.7637395,9.38464058 C21.8215034,9.36495546 21.8783446,9.34415609 21.9350013,9.32428526 L21.9350013,11.4668065 C21.8956923,11.5011626 21.8608124,11.5327331 21.8663489,11.5414614 L21.8663489,11.5414614 Z M23.4285592,10.1252469 L23.4254219,10.1252469 C23.4263446,10.1232041 23.4276365,10.1219041 23.4285592,10.1209756 L23.4285592,10.1252469 Z" id="Fill-24" fill="#1976D2"></path>
                <polygon id="Fill-27" fill="#1976D2" points="66.8995292 0.975193525 128.916048 0.975193525 118.1738 13.2956658 56.1574648 13.2956658"></polygon>
                <polygon id="Stroke-29" stroke="#FEFEFE" stroke-width="0.567" points="66.8995292 0.975193525 128.916048 0.975193525 118.1738 13.2956658 56.1574648 13.2956658"></polygon>
                <path d="M86.6729408,7.71055094 L86.6729408,7.05165647 C86.9630524,7.04849942 87.1612584,7.03419985 87.2642369,7.00875776 C87.3688764,6.98480134 87.4670567,6.90977502 87.5591468,6.78683586 C87.6523442,6.66426812 87.6984815,6.5079014 87.6984815,6.3179214 C87.6984815,6.08689977 87.6381339,5.90490525 87.5144858,5.77100927 C87.3924987,5.6371133 87.2339708,5.57007246 87.0390867,5.57007246 C86.6522712,5.57007246 86.3813528,5.84900693 86.2259622,6.40576161 L85.5761639,6.27502269 C85.783782,5.34350785 86.2750524,4.87775043 87.0486833,4.87775043 C87.4749923,4.87775043 87.812533,5.02278892 88.0583528,5.31008028 C88.3038034,5.5986716 88.4276361,5.94483262 88.4276361,6.34986329 C88.4276361,6.73929444 88.2674472,7.06131332 87.948915,7.31814845 C88.3547391,7.58928316 88.5575588,8.00378497 88.5575588,8.56536808 C88.5575588,9.01032613 88.4259751,9.37245809 88.1628077,9.64990689 C87.8996403,9.92587002 87.532018,10.0645944 87.0582798,10.0645944 C86.1386704,10.0645944 85.6031082,9.56206667 85.4510395,8.55571123 L86.0912412,8.38838769 C86.1514043,8.70260681 86.2702541,8.94811371 86.4496361,9.12360843 C86.6286489,9.29891745 86.8331296,9.38675766 87.0628936,9.38675766 C87.2972712,9.38675766 87.4908635,9.30690292 87.6429322,9.14737915 C87.7951854,8.9863697 87.8695588,8.78227584 87.8695588,8.53194052 C87.8695588,8.33248937 87.8221296,8.16330875 87.7269021,8.02458435 C87.6303828,7.88734562 87.5288807,7.79801973 87.4227648,7.76143512 C87.3148034,7.72485051 87.1405888,7.70572251 86.8949536,7.70572251 L86.6729408,7.71055094 Z M94.1922197,9.3405162 C93.9641167,9.58119467 93.7262326,9.76151782 93.4774601,9.8827856 C93.2303485,10.0038677 92.9734558,10.0645944 92.7071511,10.0645944 C92.2856403,10.0645944 91.949576,9.93701254 91.6991425,9.68184879 C91.4488936,9.42668503 91.3234,9.08219539 91.3234,8.64986554 C91.3234,8.36275989 91.3820867,8.10908181 91.4994601,7.88734562 C91.6166489,7.66579514 91.7784987,7.49345747 91.9829794,7.36903264 C92.1874601,7.24479352 92.4963957,7.15212488 92.9116318,7.09325522 C93.4680481,7.01191481 93.8768249,6.91608912 94.1368549,6.80299252 L94.1416532,6.58924181 C94.1416532,6.24939489 94.0813056,6.01020208 93.9609794,5.87314906 C93.7913785,5.67369792 93.5298721,5.57490089 93.1762755,5.57490089 C92.8577433,5.57490089 92.6183828,5.64027035 92.4615159,5.77249494 C92.302988,5.90490525 92.1874601,6.15375491 92.1129021,6.51904392 L91.4391124,6.40576161 C91.5358163,5.87314906 91.729224,5.485575 92.022473,5.24303944 C92.3140609,5.00068959 92.7340953,4.87775043 93.2777777,4.87775043 C93.7026103,4.87775043 94.0353528,4.95909084 94.2763742,5.11861461 C94.5188721,5.27980976 94.6709408,5.47740382 94.7344258,5.71511096 C94.7979107,5.95114671 94.8294687,6.29730773 94.8294687,6.75173692 L94.8294687,7.87304605 C94.8294687,8.65785101 94.8438635,9.15387895 94.8739451,9.35630143 C94.9023657,9.560581 94.9610524,9.76003215 95.0481597,9.95298349 L94.3319236,9.95298349 C94.260503,9.78213148 94.2145502,9.57822333 94.1922197,9.3405162 L94.1922197,9.3405162 Z M94.1368549,7.46151557 C93.8864215,7.58761178 93.5140009,7.69290861 93.0179322,7.78074883 C92.7309579,7.83014734 92.5297991,7.88734562 92.4140867,7.95122941 C92.2998506,8.0151132 92.2110824,8.10443909 92.147782,8.22236411 C92.0841124,8.33880347 92.0525545,8.47288515 92.0525545,8.62590912 C92.0525545,8.86213058 92.1254515,9.05173917 92.27143,9.19380632 C92.4155631,9.33568777 92.6169064,9.40588566 92.8736146,9.40588566 C93.1194343,9.40588566 93.3412627,9.34200187 93.5409451,9.2146057 C93.7406275,9.08683811 93.8895588,8.91635752 93.9895845,8.70260681 C94.0877648,8.49034177 94.1368549,8.1794654 94.1368549,7.77090626 L94.1368549,7.46151557 Z M98.1279193,4.99103274 L99.7065545,4.99103274 C100.066241,4.99103274 100.340482,5.02464601 100.530752,5.09317252 C100.721022,5.16188474 100.8921,5.30209481 101.042692,5.51584552 C101.191808,5.72959623 101.267842,5.99423113 101.267842,6.30845025 C101.267842,6.78219315 101.105992,7.13466826 100.784323,7.36903264 C101.226503,7.56848378 101.448331,7.96738607 101.448331,8.56536808 C101.448331,8.94811371 101.335941,9.27514673 101.109314,9.54628143 C100.882688,9.81741614 100.497348,9.95298349 99.9538506,9.95298349 L98.1279193,9.95298349 L98.1279193,4.99103274 Z M98.8109365,7.07876994 L99.5448893,7.07876994 C99.8350009,7.07876994 100.03616,7.06131332 100.145597,7.02305733 C100.255035,6.98628701 100.354692,6.90977502 100.440507,6.79649272 C100.527615,6.68321041 100.57043,6.54281463 100.57043,6.37864814 C100.57043,6.11698458 100.494211,5.93536147 100.340482,5.83637874 C100.188413,5.73591033 99.9298592,5.68651182 99.5670352,5.68651182 L98.8109365,5.68651182 L98.8109365,7.07876994 Z M98.8109365,9.26084716 L99.7159665,9.26084716 C100.102782,9.26084716 100.370748,9.2017918 100.519679,9.08219539 C100.66861,8.96092761 100.743168,8.77577604 100.743168,8.52395504 C100.743168,8.25597739 100.663997,8.06302605 100.508606,7.94658669 C100.351555,7.82847596 100.064765,7.77090626 99.6462069,7.77090626 L98.8109365,7.77090626 L98.8109365,9.26084716 Z M104.222293,7.47117242 C104.222293,6.6146839 104.401306,5.96878904 104.759516,5.53348785 C105.116065,5.09632957 105.569688,4.87775043 106.117984,4.87775043 C106.655207,4.87775043 107.106984,5.09632957 107.468331,5.53348785 C107.83134,5.96878904 108.011829,6.59722728 108.011829,7.42010253 C108.011829,8.31169 107.834477,8.97522718 107.477743,9.41071408 C107.121194,9.84768665 106.667941,10.0645944 106.117984,10.0645944 C105.575962,10.0645944 105.124185,9.84601528 104.764314,9.40904271 C104.402967,8.97039876 104.222293,8.3245039 104.222293,7.47117242 L104.222293,7.47117242 Z M104.924318,7.47117242 C104.924318,8.11391023 105.040031,8.59081017 105.271456,8.90354362 C105.504542,9.21757704 105.792992,9.37394376 106.135331,9.37394376 C106.457001,9.37394376 106.734563,9.21609137 106.964327,8.8987152 C107.195752,8.5828247 107.311464,8.10759614 107.311464,7.47117242 C107.311464,6.83326304 107.194091,6.35784877 106.962666,6.04381535 C106.729765,5.7310819 106.442791,5.57490089 106.098975,5.57490089 C105.774168,5.57490089 105.496606,5.73256757 105.266658,6.0469724 C105.038555,6.36119152 104.924318,6.83642009 104.924318,7.47117242 L104.924318,7.47117242 Z M111.594117,4.99103274 L114.407572,4.99103274 L114.407572,9.26084716 L114.844769,9.26084716 L114.844769,11.3597269 L114.282263,11.3597269 L114.282263,9.95298349 L111.101185,9.95298349 L111.101185,11.3597269 L110.535357,11.3597269 L110.535357,9.26084716 L110.898366,9.26084716 C111.370627,8.4697281 111.603529,7.04682804 111.594117,4.99103274 L111.594117,4.99103274 Z M112.159945,5.68651182 C112.110855,7.30050613 111.907851,8.49201315 111.552962,9.26084716 L113.725846,9.26084716 L113.725846,5.68651182 L112.159945,5.68651182 Z" id="Fill-31" fill="#FEFEFE"></path>
            </g>
        </g>
    </g>
</svg>