<?xml version="1.0" encoding="UTF-8" standalone="no"?>
<svg width="64px" height="67px" viewBox="0 0 64 67" version="1.1" xmlns="http://www.w3.org/2000/svg" xmlns:xlink="http://www.w3.org/1999/xlink">
    <!-- Generator: Sketch 3.8.3 (29802) - http://www.bohemiancoding.com/sketch -->
    <title>thumb-up-sign</title>
    <desc>Created with Sketch.</desc>
    <defs></defs>
    <g id="Page-1" stroke="none" stroke-width="1" fill="none" fill-rule="evenodd">
        <g id="Форма-заявки-Спасибо" transform="translate(-193.000000, -45.000000)" fill="#000000">
            <path d="M254.425,77.4281481 C252.2618,75.3825926 249.277,74.8848148 246.6458,74.4492593 C246.2298,74.3792593 245.8216,74.3092593 245.416,74.2366667 C245.1222,74.1562963 244.7452,74.0759259 244.3604,73.9851852 C240.8452,73.1633333 238.3674,72.3751852 238.357,69.5077778 C238.3466,67.6255556 238.9784,65.872963 239.6388,64.0192593 C240.3902,61.9037037 241.1702,59.6948148 241.048,57.1437037 C240.8062,52.5859259 238.8666,48.6166667 235.848,46.5296296 C234.652,45.5677778 233.066,45 231.5632,45 C229.3194,45 227.6424,46.2159259 226.9612,48.3314815 C226.4854,49.76 226.566,51.147037 226.6466,52.6144444 C226.6674,52.9696296 226.6986,53.3455556 226.709,53.7292593 C226.7896,55.7540741 226.5452,57.4262963 225.9576,59.0051852 C224.8292,62.1551852 222.575,65.102963 220.7368,67.3092593 L219.7306,68.577037 C218.3292,70.3374074 216.8784,72.1703704 215.2222,73.6403704 C214.4188,74.2781481 213.5452,74.5114815 212.4402,74.7448148 C212.123,74.762963 193,74.9574074 193,74.9574074 L193,102.978148 C193,102.978148 208.002,102.967778 208.8444,102.918519 C209.5854,102.866667 210.2952,102.827778 210.9452,102.827778 L211.252,102.827778 C211.8708,102.957407 212.4896,103.03 213.1396,103.1 C213.7194,103.162222 214.3174,103.221852 214.9466,103.343704 C215.659,103.475926 216.3896,104.162963 217.0916,104.831852 C217.4972,105.218148 217.9028,105.591481 218.298,105.866296 C218.7062,106.148889 219.091,106.441852 219.4966,106.727037 C220.7264,107.616296 221.9952,108.539259 223.4278,109.187407 C225.2062,109.947037 227.1666,110.198519 229.075,110.442222 C229.998,110.564074 230.9132,110.675556 231.7868,110.846667 C232.3666,110.908889 232.8528,110.968519 233.3598,111.030741 C234.8444,111.191481 236.3888,111.375556 237.9202,111.375556 C238.968,111.375556 239.8806,111.282222 240.7334,111.121481 C243.7702,110.260741 245.702,107.80037 245.7098,104.984815 C247.2542,104.365185 248.6348,103.079259 249.5084,101.43037 C250.2806,99.9603704 250.5458,98.3814815 250.2598,96.9944444 C253.1952,95.0785185 254.7084,91.4851852 253.8972,88.4051852 C255.1972,87.5237037 256.0916,86.0355556 256.3958,84.2233333 C256.8222,81.7111111 256.05,79.0485185 254.425,77.4281481 L254.425,77.4281481 Z M252.4438,83.0488889 C252.3424,83.9096296 251.9472,84.9725926 250.6264,85.2162963 C249.9166,85.4185185 249.4486,85.8333333 249.2146,86.4114815 C248.9416,87.1088889 249.043,87.98 249.498,88.7292593 C249.9764,89.297037 250.0466,90.4714815 249.7632,91.4955556 C249.3784,92.7192593 248.484,93.58 247.1034,94.0466667 C246.5132,94.1166667 245.9854,94.5314815 245.702,95.1511111 C245.3666,95.8588889 245.4472,96.6288889 245.8944,97.1551852 C246.2896,97.7125926 246.209,98.9777778 245.6708,100.012222 C245.2444,100.831481 244.6334,101.318889 244.0458,101.318889 C243.9548,101.318889 243.8716,101.318889 243.791,101.287778 L243.7,101.277407 L243.5986,101.277407 C242.8784,101.277407 241.932,101.591111 241.4666,102.309259 C241.152,102.786296 241.1104,103.364444 241.3444,103.901111 C241.6278,104.671111 241.5966,105.55 241.243,106.148889 C240.9778,106.574074 240.5722,106.828148 240.0028,106.898148 C239.0174,107.162593 238.0216,107.162593 237.0674,107.162593 C234.2152,106.908519 231.1888,106.633704 228.2612,106.107407 L226.8702,105.793704 C226.15,105.632963 225.4298,105.48 224.798,105.319259 C223.7528,104.800741 222.575,103.921852 221.4466,103.068889 C221.0722,102.786296 220.7056,102.503704 220.3416,102.24963 C220.0764,102.037037 219.793,101.764815 219.4966,101.49 C218.7556,100.80037 217.9236,100.012222 216.8888,99.727037 C215.9034,99.1203704 214.866,99.1203704 214.0236,99.1203704 C211.291,98.8766667 210.0118,97.8940741 209.341,95.5037037 C208.691,93.1159259 208.6702,90.3703704 208.7014,88.0007407 L208.7118,87.4640741 C208.7326,85.237037 208.7716,82.4396296 209.9208,80.4044444 C210.4902,79.4322222 211.6368,79.23 212.9576,78.9759259 C214.775,78.682963 216.218,78.0866667 217.557,77.0522222 C217.752,76.9822222 217.9444,76.8396296 218.0952,76.5777778 C218.6438,76.2018519 219.091,75.6651852 219.4966,75.17 C221.6598,72.8288889 223.6514,70.3892593 225.2166,68.1414815 C225.5702,67.6048148 225.9368,67.0888889 226.3034,66.5703704 C227.957,64.2007407 229.6834,61.7507407 230.4166,58.732963 C230.934,56.5137037 230.882,54.59 230.7702,52.3111111 L230.752,51.9662963 C230.6688,50.5792593 230.6402,49.0911111 231.4306,48.9796296 C231.4826,48.9692593 231.5424,48.9588889 231.6152,48.9588889 C232.884,48.9588889 234.4882,50.5611111 235.4424,52.0492593 C236.4382,53.9314815 236.9556,55.907037 236.9062,57.6907407 C236.8542,59.5418519 236.2458,61.2944444 235.6062,63.1585185 C234.8548,65.357037 234.0618,67.6333333 234.2438,70.1066667 C234.509,73.477037 237.1896,76.3833333 240.9284,77.3555556 C242.0152,77.6407407 243.1722,77.8222222 244.2902,78.0037037 C246.3702,78.3485185 248.523,78.6933333 250.2806,79.6759259 C251.4402,80.2540741 252.657,81.457037 252.4438,83.0488889 L252.4438,83.0488889 Z" id="thumb-up-sign"></path>
        </g>
    </g>
</svg>