<svg version="1" xmlns="http://www.w3.org/2000/svg" width="666.667" height="666.667" viewBox="0 0 500.000000 500.000000"><path d="M249.1 16.3c-.6 1.6-1.1 3.1-1.1 3.5 0 .3-3.1 10.1-6.9 21.6C237.3 53 229.2 78 223 97c-19.9 61.5-25.1 77.3-28.1 86.4-1.6 4.9-2.7 9.1-2.4 9.4.3.4 26.5.7 58.1.7 46.2 0 57.4-.3 57.4-1.3 0-.7-1.5-5.9-3.4-11.5s-7.3-22.4-12.1-37.2c-4.8-14.9-10-30.8-11.5-35.5-1.6-4.7-8.1-24.7-14.5-44.5-18.3-56.3-16.2-50.5-17.4-47.2zM2 194.9c.1.3 30.2 22.4 67.1 49.1 36.8 26.7 67.9 49.3 69.2 50.2 1.2.9 5.3 4 9.1 6.7 7.9 5.7 6.2 5.7 23.6 0 12.5-4.1 34.5-11 36.4-11.4.6-.1 1.8-.5 2.6-.8.8-.3 6.7-2.2 13-4.2s13.3-4.3 15.5-5c3.6-1.2 21.3-6.7 22.5-7 .3-.1 1.2-.4 2-.8 2.4-.9 31.4-10.1 32.8-10.3.7-.1 4.5-1.4 8.5-2.7 4-1.4 11.9-3.9 17.7-5.7 5.8-1.8 14.3-4.5 19-6 11.8-3.9 32.4-10.4 33-10.5.3-.1 7.3-2.3 15.5-4.9 8.3-2.7 15.5-4.9 16.2-5 .7-.1 1.6-.5 1.9-.9.4-.4 1.7-.7 2.9-.7s2.5-.3 2.9-.8c.4-.4 1.1-.7 1.4-.7.6-.1 28.5-8.9 41.1-13.1 2.4-.8 4.5-1.3 4.7-1.1.2.2-3.1 2.1-7.4 4.2-4.2 2.2-9.7 5.1-12.2 6.5-2.5 1.5-9.4 5.3-15.5 8.5-12.8 6.8-19.2 10.3-25.5 13.7-2.5 1.4-8.1 4.5-12.5 6.8-4.4 2.4-11.1 6.1-15 8.2-3.8 2.1-9.5 5.1-12.5 6.6s-5.7 3-6 3.3c-.3.4-2.3 1.5-4.5 2.6-8.5 4.2-22.1 11.7-23.8 13.1-.9.8-1.7 1.2-1.7.7 0-.4-.6-.3-1.2.3-.7.5-4.9 2.9-9.3 5.2-15.6 8.3-16.8 9-18.1 10.1-.8.6-1.4.8-1.4.5 0-.4-1.2.1-2.7 1.2-1.6 1-9.8 5.6-18.3 10.1s-16.2 8.6-17 9.1c-.8.6-3.1 1.8-5 2.8-3.8 2-16.6 9-24.5 13.3-2.7 1.5-8.4 4.5-12.5 6.6-4.1 2.1-7.7 4.1-8 4.4-.3.3-5.9 3.4-12.5 6.9-6.6 3.4-12.4 6.6-13 7-.5.4-6.2 3.4-12.5 6.7-6.3 3.3-13.1 6.9-15 8-10.2 5.7-15.9 8.8-20.1 11l-4.8 2.3-9.1 28.3c-5.1 15.5-11.9 36.5-15.2 46.7-3.2 10.2-6.3 19.5-6.8 20.7-.5 1.3-.8 2.3-.5 2.3.4 0 66.1-47.6 86-62.2 4.4-3.3 8.9-6.6 10-7.4 44.9-32.6 57.1-41.4 57.6-41.4.6 0 28.7 20 34.9 24.8 1.4 1 10.8 7.9 21 15.3 10.2 7.3 19 13.7 19.5 14.2.6.4 15.4 11.3 33 24 17.6 12.8 34.9 25.4 38.4 28 3.6 2.6 6.6 4.5 6.8 4.4.1-.2-4.7-15.6-10.8-34.3-27.6-84.9-36.2-111.1-41.7-127.9-3.2-9.9-5.8-18-5.8-18.1.1-.1 34.1-24.8 75.6-54.9 41.5-30.1 76.2-55.4 77-56.2 1.3-1.2.2-1.3-8.9-.8-5.7.3-10.7.8-11.1 1-.4.3-2.7.7-5.1.9-2.4.3-6 .7-7.9 1-1.9.3-5.7.8-8.5 1-5 .6-9.3 1.1-15 2-4.9.8-27.7 3.7-32.5 4.2-2.5.2-5.2.6-6 .9-.8.2-4 .7-7 1-3 .4-6.8.8-8.5 1-1.6.2-5.4.7-8.4 1-3 .4-6.2.8-7 1-.9.1-3.8.6-6.6.9-2.7.4-6.6.9-8.5 1.2-1.9.2-5.9.6-8.8.9-2.9.2-5.6.6-6 .8-.4.3-3.6.8-7.2 1.1-3.6.4-7.6.9-9 1.1-1.4.3-4.1.7-6 .9-8.2 1-14.4 1.8-16.3 2.2-1 .2-4.5.6-7.6.9-3.1.4-8.4 1.1-11.9 1.6s-6.7.7-7.3.4c-.5-.4-.9-.2-.9.2 0 .5-1 .9-2.2.9-2.4.1-11.5 1.1-15.8 1.9-1.4.2-4.5.6-7 .9-2.5.3-6.1.7-8 1-5.6.8-18.1 2.5-22.7 3.1-2.4.3-6 .7-8 1-8.5 1.1-12 1.6-15.8 2-2.2.3-5.6.7-7.5 1-1.9.3-5.5.8-8 1-2.5.3-5.4.7-6.5.9-1.8.4-6.8 1-15.5 2-1.4.2-4.5.6-7 .9-2.5.4-6.5.9-9 1.2-2.5.3-5.6.7-7 .9-1.4.2-4.7.7-7.5 1-2.7.4-6.3.9-8 1.2-1.6.3-2.7.2-2.3-.1.3-.4 14.9-10.3 32.5-22.1 33.6-22.6 34.6-23.3 37.1-25 1.1-.8-22.9-1.1-92.1-1.1-51.5 0-93.7.3-93.7.6z"/></svg>