<?xml version="1.0" encoding="utf-8"?>
<!-- Generator: Adobe Illustrator 19.0.0, SVG Export Plug-In . SVG Version: 6.00 Build 0)  -->
<svg version="1.1" id="Layer_1" xmlns="http://www.w3.org/2000/svg" xmlns:xlink="http://www.w3.org/1999/xlink" x="0px" y="0px"
	 viewBox="-49 141 512 512" style="enable-background:new -49 141 512 512;" xml:space="preserve">
<g>
	<g>
		<path d="M457.7,189.5l-43.2-43.2c-3.4-3.4-8-5.3-12.8-5.3s-9.4,1.9-12.8,5.3L377,158.2c-3.4,3.4-5.3,8-5.3,12.8
			c0,3,0.7,5.9,2.1,8.5L338,215.2c-34.1,34.1-82,75.5-116.5,78.8c-33.9,3.2-59.1,12.8-74.8,28.6L-39.7,508.9c-6,6-9.3,14-9.3,22.5
			s3.3,16.5,9.3,22.5l89.8,89.8c6,6,14,9.3,22.5,9.3l0,0c8.5,0,16.5-3.3,22.5-9.3l186.4-186.4c15.7-15.7,25.4-40.9,28.6-74.8
			c3.3-34.5,44.6-82.4,78.8-116.5l35.6-35.6c2.6,1.4,5.5,2.1,8.5,2.1c4.8,0,9.4-1.9,12.8-5.3l11.9-11.9c3.4-3.4,5.3-8,5.3-12.8
			C463,197.5,461.1,193,457.7,189.5z M294.9,381c-2.9,30.3-11,52.3-24.2,65.5l-7.7,7.7l-78.3-78.3l-92.2,92.2l10.8,10.8l81.4-81.4
			l67.5,67.5L121.5,595.7L54,528.2l35-35l-10.8-10.8l-45.8,45.8l78.3,78.3l-26.4,26.4c-3.1,3.1-7.3,4.9-11.7,4.9
			c-4.4,0-8.6-1.7-11.7-4.9l-89.8-89.8c-3.1-3.1-4.9-7.3-4.9-11.7c0-4.4,1.7-8.6,4.9-11.7l186.4-186.4
			c13.2-13.1,35.2-21.3,65.5-24.2c21.9-2.1,49.2-16.4,81.5-42.7l33.1,33.1C311.3,331.8,296.9,359.1,294.9,381z M378,255.2L378,255.2
			L378,255.2c-6.1,6.1-17.9,17.9-30.7,32.6l-31.1-31.1c14.7-12.8,26.5-24.6,32.6-30.7l35.1-35.1l14.6,14.6l14.6,14.6L378,255.2z
			 M446.9,204.4l-11.9,12c-0.7,0.7-1.6,0.9-2.1,0.9s-1.3-0.1-2.1-0.9l-43.2-43.2c-0.7-0.7-0.9-1.6-0.9-2.1s0.1-1.3,0.9-2.1
			l11.9-11.9c0.7-0.7,1.6-0.9,2.1-0.9s1.3,0.1,2.1,0.9l43.2,43.2c0.7,0.7,0.9,1.6,0.9,2.1C447.8,202.8,447.7,203.7,446.9,204.4z"/>
	</g>
</g>
</svg>
