<?xml version="1.0" encoding="UTF-8" standalone="no"?>
<svg width="42px" height="36px" viewBox="0 0 42 36" version="1.1" xmlns="http://www.w3.org/2000/svg" xmlns:xlink="http://www.w3.org/1999/xlink">
    <!-- Generator: Sketch 3.8.3 (29802) - http://www.bohemiancoding.com/sketch -->
    <title>tank copy 3</title>
    <desc>Created with Sketch.</desc>
    <defs>
        <polygon id="path-1" points="0.00780213245 0.0294078564 41.0912309 0.0294078564 41.0912309 35.6632518 0.00780213245 35.6632518"></polygon>
    </defs>
    <g id="Page-1" stroke="none" stroke-width="1" fill="none" fill-rule="evenodd">
        <g id="Лендинг" transform="translate(-441.000000, -1815.000000)">
            <g id="tank-copy-3" transform="translate(441.000000, 1815.000000)">
                <path d="M40.1470587,13.7128148 C39.9106822,20.9309862 40.5241443,21.0455129 40.7647082,28.7549525 C40.8584954,31.7605869 39.0390451,34.2798984 36.3284565,34.9535856 C28.7600591,36.8346283 16.3577185,34.9535863 8.45501013,34.9535859 C-1.44979676e-07,34.9535856 0.617647067,32.9601028 1.23529412,17.5412216 C1.41912524,12.9520793 11.7352945,13.7128148 12.9705882,13.7128148 C14.2058818,13.7128149 21.4852418,12.5879235 24.7058827,13.7128148 C29.6470592,15.4386471 31.8390661,13.4820238 36.328457,13.7128148 L40.1470587,13.7128148 Z" id="Path-321" fill="#7ED321" opacity="0.325559701"></path>
                <g id="Group-3">
                    <mask id="mask-2" fill="white">
                        <use xlink:href="#path-1"></use>
                    </mask>
                    <g id="Clip-2"></g>
                    <path d="M36.40488,7.52258265 L15.1491405,7.52258265 L15.1491405,5.50920423 C15.54991,5.40150789 15.8454808,5.03059799 15.8454808,4.58815547 L15.8454808,0.983043703 C15.8454808,0.456219177 15.4265063,0.0294078564 14.909355,0.0294078564 L4.88595541,0.0294078564 C4.3689341,0.0294078564 3.94982955,0.456219177 3.94982955,0.983043703 L3.94982955,4.58815547 C3.94982955,5.03059799 4.24592048,5.40150789 4.64616987,5.50920423 L4.64616987,7.52258265 L4.63251614,7.52258265 C2.07796794,7.52258265 0,9.63941843 0,12.2417488 L0,30.9145454 C0,33.5167433 2.07796794,35.6337115 4.63251614,35.6337115 L36.40488,35.6337115 C38.9589081,35.6337115 41.0373962,33.5167433 41.0373962,30.9145454 L41.0373962,12.2417488 C41.0373962,9.63941843 38.9589081,7.52258265 36.40488,7.52258265 L36.40488,7.52258265 Z M5.82208127,1.93667955 L13.9732291,1.93667955 L13.9732291,3.63438715 L5.82208127,3.63438715 L5.82208127,1.93667955 Z M6.51907177,5.54179131 L13.2763686,5.54179131 L13.2763686,7.52258265 L6.51907177,7.52258265 L6.51907177,5.54179131 Z M39.1646243,30.9145454 C39.1646243,32.4648163 37.926686,33.7264398 36.40488,33.7264398 L4.63251614,33.7264398 C3.11071021,33.7264398 1.87225172,32.4648163 1.87225172,30.9145454 L1.87225172,12.2417488 C1.87225172,10.6914779 3.11071021,9.42985434 4.63251614,9.42985434 L36.40488,9.42985434 C37.926686,9.42985434 39.1646243,10.6914779 39.1646243,12.2417488 L39.1646243,30.9145454 Z" id="Fill-1" fill="#000000" mask="url(#mask-2)"></path>
                </g>
                <ellipse id="Oval-17" stroke="#7ED321" cx="17.2941176" cy="24.6666667" rx="1.23529412" ry="1.23333333"></ellipse>
                <ellipse id="Oval-17-Copy" stroke="#7ED321" cx="21.6176471" cy="20.35" rx="1.85294118" ry="1.85"></ellipse>
                <path d="M37.6285145,12.3187716 C35.6150442,11.555492 33.3962477,11.555492 31.3806968,12.3193014 C29.7872413,12.9225599 28.0322817,12.9225599 26.4388261,12.3187716 C24.4248357,11.5560218 22.2061693,11.555492 20.1915287,12.3187716 C20.189058,12.3198313 20.1864573,12.3207586 20.1834665,12.3218183 C18.5920915,12.9225599 16.8401227,12.9216326 15.2492679,12.3187716 C13.2346272,11.5560218 11.016481,11.5560218 9.00197038,12.3187716 C7.40851486,12.9225599 5.65355521,12.9225599 4.06009969,12.3187716 C3.57545723,12.1350387 3.03658995,12.3865951 2.85623065,12.8801702 C2.67587136,13.3738778 2.92280885,13.9233543 3.40732127,14.1070871 C5.42183187,14.8703667 7.6406283,14.8698369 9.65461876,14.1070871 C11.2480743,13.5031663 13.0035541,13.5031663 14.5970096,14.1070871 C15.6042649,14.488462 16.6623641,14.6793481 17.7203332,14.6788183 C18.7784324,14.6788183 19.8370518,14.488462 20.8437869,14.1070871 C20.8467778,14.1060274 20.8498986,14.1044378 20.8523693,14.1035105 C22.4438743,13.5031663 24.1951929,13.5042261 25.7866979,14.1070871 C27.8006884,14.8698369 30.0193548,14.8698369 32.0349056,14.1065573 C33.627841,13.5031663 35.3829307,13.5031663 36.9758661,14.1065573 C37.4603785,14.2897603 37.999896,14.0387337 38.1796051,13.5451586 C38.3599644,13.0509212 38.1136771,12.5025044 37.6285145,12.3187716 L37.6285145,12.3187716 Z" id="Fill-4" fill="#7ED321"></path>
            </g>
        </g>
    </g>
</svg>