<?xml version="1.0" encoding="UTF-8" standalone="no"?>
<svg width="50px" height="44px" viewBox="0 0 50 44" version="1.1" xmlns="http://www.w3.org/2000/svg" xmlns:xlink="http://www.w3.org/1999/xlink">
    <!-- Generator: Sketch 3.8.3 (29802) - http://www.bohemiancoding.com/sketch -->
    <title>tank copy 6</title>
    <desc>Created with Sketch.</desc>
    <defs>
        <polygon id="path-1" points="0.00947401797 0.0357663118 49.8964946 0.0357663118 49.8964946 43.3742252 0.00947401797 43.3742252"></polygon>
    </defs>
    <g id="Page-1" stroke="none" stroke-width="1" fill="none" fill-rule="evenodd">
        <g id="Лендинг" transform="translate(-563.000000, -1800.000000)">
            <g id="tank-copy-6" transform="translate(563.000000, 1800.000000)">
                <path d="M48.7499999,16.6777478 C48.4629712,25.4566049 49.2078895,25.5958941 49.5000028,34.9722395 C49.6138873,38.6277408 47.4045547,41.6917683 44.1131257,42.5111177 C34.922929,44.7988723 19.8629439,42.5111184 10.266798,42.511118 C-1.76046727e-07,42.5111177 0.75000001,40.0866116 1.5,21.3339182 C1.7232235,15.7525289 14.2500005,16.6777477 15.7499999,16.6777478 C17.2499993,16.6777478 26.0892222,15.3096367 30.0000005,16.6777477 C36.0000005,18.776733 38.6617231,16.397056 44.1131264,16.6777477 L48.7499999,16.6777478 Z" id="Path-321" fill="#7ED321" opacity="0.325559701"></path>
                <g id="Group-3">
                    <mask id="mask-2" fill="white">
                        <use xlink:href="#path-1"></use>
                    </mask>
                    <g id="Clip-2"></g>
                    <path d="M44.2059258,9.149087 L18.3953849,9.149087 L18.3953849,6.70038352 C18.8820336,6.56940149 19.240941,6.11829485 19.240941,5.58018908 L19.240941,1.19559369 C19.240941,0.554861161 18.7321862,0.0357663118 18.1042167,0.0357663118 L5.93294585,0.0357663118 C5.30513426,0.0357663118 4.7962216,0.554861161 4.7962216,1.19559369 L4.7962216,5.58018908 C4.7962216,6.11829485 5.15576058,6.56940149 5.6417777,6.70038352 L5.6417777,9.149087 L5.62519817,9.149087 C2.52324679,9.149087 0,11.723617 0,14.8886134 L0,37.5987714 C0,40.7636067 2.52324679,43.3382978 5.62519817,43.3382978 L44.2059258,43.3382978 C47.3072455,43.3382978 49.8311239,40.7636067 49.8311239,37.5987714 L49.8311239,14.8886134 C49.8311239,11.723617 47.3072455,9.149087 44.2059258,9.149087 L44.2059258,9.149087 Z M7.06967011,2.35542107 L16.9674925,2.35542107 L16.9674925,4.42020059 L7.06967011,4.42020059 L7.06967011,2.35542107 Z M7.91601572,6.74001646 L16.1213048,6.74001646 L16.1213048,9.149087 L7.91601572,9.149087 L7.91601572,6.74001646 Z M47.5570438,37.5987714 C47.5570438,39.484236 46.053833,41.018643 44.2059258,41.018643 L5.62519817,41.018643 C3.77729096,41.018643 2.27344851,39.484236 2.27344851,37.5987714 L2.27344851,14.8886134 C2.27344851,13.0031488 3.77729096,11.4687418 5.62519817,11.4687418 L44.2059258,11.4687418 C46.053833,11.4687418 47.5570438,13.0031488 47.5570438,14.8886134 L47.5570438,37.5987714 Z" id="Fill-1" fill="#000000" mask="url(#mask-2)"></path>
                </g>
                <circle id="Oval-17" stroke="#7ED321" cx="21" cy="30" r="1.5"></circle>
                <circle id="Oval-17-Copy" stroke="#7ED321" cx="26.25" cy="24.75" r="2.25"></circle>
                <path d="M45.6917676,14.9822897 C43.2468393,14.0539767 40.5525865,14.0539767 38.1051319,14.9829342 C36.1702216,15.7166269 34.0391992,15.7166269 32.1042889,14.9822897 C29.6587291,14.0546212 26.9646341,14.0539767 24.5182848,14.9822897 C24.5152847,14.9835786 24.5121267,14.9847064 24.508495,14.9859952 C22.5761111,15.7166269 20.4487204,15.7154991 18.5169681,14.9822897 C16.0706188,14.0546212 13.3771555,14.0546212 10.930964,14.9822897 C8.99605376,15.7166269 6.86503132,15.7166269 4.93012105,14.9822897 C4.34162664,14.7588308 3.68728779,15.0647778 3.46828008,15.6650718 C3.24927236,16.265527 3.54912503,16.9338093 4.13746155,17.1572681 C6.58365299,18.0855812 9.2779058,18.0849367 11.7234656,17.1572681 C13.6583759,16.4227699 15.79003,16.4227699 17.7249402,17.1572681 C18.9480359,17.6211024 20.2328707,17.8532612 21.5175475,17.8526168 C22.8023823,17.8526168 24.0878486,17.6211024 25.3103127,17.1572681 C25.3139444,17.1559793 25.317734,17.154046 25.3207341,17.1529182 C27.2532759,16.4227699 29.3798771,16.4240588 31.3124189,17.1572681 C33.7579787,18.0849367 36.4520736,18.0849367 38.8995283,17.1566237 C40.833807,16.4227699 42.9649873,16.4227699 44.899266,17.1566237 C45.4876025,17.3794382 46.1427308,17.0741356 46.360949,16.4738416 C46.5799568,15.872742 46.2808936,15.2057486 45.6917676,14.9822897 L45.6917676,14.9822897 Z" id="Fill-4" fill="#7ED321"></path>
            </g>
        </g>
    </g>
</svg>