<?xml version="1.0" encoding="UTF-8" standalone="no"?>
<svg width="62px" height="55px" viewBox="0 0 62 55" version="1.1" xmlns="http://www.w3.org/2000/svg" xmlns:xlink="http://www.w3.org/1999/xlink">
    <!-- Generator: Sketch 3.8.3 (29802) - http://www.bohemiancoding.com/sketch -->
    <title>Group 4</title>
    <desc>Created with Sketch.</desc>
    <defs>
        <polygon id="path-1" points="0.0117031987 0.044509188 61.6368463 0.044509188 61.6368463 53.9768136 0.0117031987 53.9768136"></polygon>
        <polygon id="path-3" points="0.0117031987 0.044509188 61.6368463 0.044509188 61.6368463 53.9768136 0.0117031987 53.9768136"></polygon>
    </defs>
    <g id="Page-1" stroke="none" stroke-width="1" fill="none" fill-rule="evenodd">
        <g id="Лендинг" transform="translate(-662.000000, -1852.000000)">
            <g id="Group-4" transform="translate(662.000000, 1852.000000)">
                <path d="M60.2205881,20.7545305 C59.8660232,31.6793305 60.7862164,31.8526682 61.1470622,43.5210092 C61.2877431,48.0700775 58.5585676,51.8830894 54.4926847,52.9027242 C43.1400887,55.7497077 24.5365777,52.9027251 12.6825152,52.9027247 C-2.17469575e-07,52.9027242 0.9264706,49.885561 1.85294118,26.5488759 C2.12868786,19.6031471 17.6029418,20.7545304 19.4558822,20.7545305 C21.3088227,20.7545306 32.2278628,19.0519923 37.0588241,20.7545304 C44.4705888,23.366601 47.7585991,20.4052253 54.4926856,20.7545305 L60.2205881,20.7545305 Z" id="Path-321" fill="#2196F3" opacity="0.325559701"></path>
                <g id="Group-3">
                    <mask id="mask-2" fill="white">
                        <use xlink:href="#path-1"></use>
                    </mask>
                    <g id="Clip-2"></g>
                    <path d="M54.60732,11.3855305 L22.7237107,11.3855305 L22.7237107,8.33825505 C23.3248651,8.17525518 23.7682212,7.61387804 23.7682212,6.9442353 L23.7682212,1.48784993 C23.7682212,0.69049389 23.1397595,0.044509188 22.3640324,0.044509188 L7.32893311,0.044509188 C6.55340115,0.044509188 5.92474433,0.69049389 5.92474433,1.48784993 L5.92474433,6.9442353 C5.92474433,7.61387804 6.36888072,8.17525518 6.96925481,8.33825505 L6.96925481,11.3855305 L6.94877421,11.3855305 C3.11695191,11.3855305 0,14.5893901 0,18.5280522 L0,46.7895822 C0,50.7280438 3.11695191,53.9321039 6.94877421,53.9321039 L54.60732,53.9321039 C58.4383621,53.9321039 61.5560943,50.7280438 61.5560943,46.7895822 L61.5560943,18.5280522 C61.5560943,14.5893901 58.4383621,11.3855305 54.60732,11.3855305 L54.60732,11.3855305 Z M8.7331219,2.93119067 L20.9598437,2.93119067 L20.9598437,5.50069407 L8.7331219,5.50069407 L8.7331219,2.93119067 Z M9.77860765,8.38757604 L19.914553,8.38757604 L19.914553,11.3855305 L9.77860765,11.3855305 L9.77860765,8.38757604 Z M58.7469365,46.7895822 C58.7469365,49.1359382 56.8900289,51.0454224 54.60732,51.0454224 L6.94877421,51.0454224 C4.66606531,51.0454224 2.80837757,49.1359382 2.80837757,46.7895822 L2.80837757,18.5280522 C2.80837757,16.1816962 4.66606531,14.272212 6.94877421,14.272212 L54.60732,14.272212 C56.8900289,14.272212 58.7469365,16.1816962 58.7469365,18.5280522 L58.7469365,46.7895822 Z" id="Fill-1" fill="#000000" mask="url(#mask-2)"></path>
                </g>
                <g id="Group-3-Copy">
                    <mask id="mask-4" fill="white">
                        <use xlink:href="#path-3"></use>
                    </mask>
                    <g id="Clip-2"></g>
                    <path d="M54.60732,11.3855305 L22.7237107,11.3855305 L22.7237107,8.33825505 C23.3248651,8.17525518 23.7682212,7.61387804 23.7682212,6.9442353 L23.7682212,1.48784993 C23.7682212,0.69049389 23.1397595,0.044509188 22.3640324,0.044509188 L7.32893311,0.044509188 C6.55340115,0.044509188 5.92474433,0.69049389 5.92474433,1.48784993 L5.92474433,6.9442353 C5.92474433,7.61387804 6.36888072,8.17525518 6.96925481,8.33825505 L6.96925481,11.3855305 L6.94877421,11.3855305 C3.11695191,11.3855305 0,14.5893901 0,18.5280522 L0,46.7895822 C0,50.7280438 3.11695191,53.9321039 6.94877421,53.9321039 L54.60732,53.9321039 C58.4383621,53.9321039 61.5560943,50.7280438 61.5560943,46.7895822 L61.5560943,18.5280522 C61.5560943,14.5893901 58.4383621,11.3855305 54.60732,11.3855305 L54.60732,11.3855305 Z M8.7331219,2.93119067 L20.9598437,2.93119067 L20.9598437,5.50069407 L8.7331219,5.50069407 L8.7331219,2.93119067 Z M9.77860765,8.38757604 L19.914553,8.38757604 L19.914553,11.3855305 L9.77860765,11.3855305 L9.77860765,8.38757604 Z M58.7469365,46.7895822 C58.7469365,49.1359382 56.8900289,51.0454224 54.60732,51.0454224 L6.94877421,51.0454224 C4.66606531,51.0454224 2.80837757,49.1359382 2.80837757,46.7895822 L2.80837757,18.5280522 C2.80837757,16.1816962 4.66606531,14.272212 6.94877421,14.272212 L54.60732,14.272212 C56.8900289,14.272212 58.7469365,16.1816962 58.7469365,18.5280522 L58.7469365,46.7895822 Z" id="Fill-1" fill="#000000" mask="url(#mask-4)"></path>
                </g>
                <ellipse id="Oval-17" stroke="#2196F3" cx="25.9411765" cy="37.3333333" rx="1.85294118" ry="1.86666667"></ellipse>
                <ellipse id="Oval-17-Copy" stroke="#2196F3" cx="32.4264706" cy="30.8" rx="2.77941176" ry="2.8"></ellipse>
                <path d="M56.4427717,18.6446272 C53.4225662,17.4893932 50.0943716,17.4893932 47.0710453,18.6454292 C44.680862,19.558469 42.0484225,19.558469 39.6582392,18.6446272 C36.6372535,17.4901952 33.3092539,17.4893932 30.287293,18.6446272 C30.283587,18.6462311 30.2796859,18.6476346 30.2751997,18.6492385 C27.8881373,19.558469 25.260184,19.5570656 22.8739018,18.6446272 C19.8519408,17.4901952 16.5247215,17.4901952 13.5029556,18.6446272 C11.1127723,19.558469 8.48033281,19.558469 6.09014953,18.6446272 C5.36318584,18.366545 4.55488492,18.747279 4.28434598,19.4943116 C4.01380704,20.2415447 4.38421327,21.0731848 5.11098191,21.351267 C8.13274781,22.506501 11.4609425,22.505699 14.4819281,21.351267 C16.8721114,20.4372247 19.5053311,20.4372247 21.8955144,21.351267 C23.4063973,21.928483 24.9935461,22.2173918 26.5804999,22.2165898 C28.1676487,22.2165898 29.7555777,21.928483 31.2656804,21.351267 C31.2701666,21.3496631 31.2748479,21.3472572 31.2785539,21.3458537 C33.6658114,20.4372247 36.2927894,20.4388287 38.6800469,21.351267 C41.7010326,22.505699 45.0290321,22.505699 48.0523585,21.3504651 C50.4417615,20.4372247 53.0743961,20.4372247 55.4637991,21.3504651 C56.1905678,21.6277453 56.999844,21.2478132 57.2694076,20.5007807 C57.5399466,19.7527456 57.1705156,18.9227094 56.4427717,18.6446272 L56.4427717,18.6446272 Z" id="Fill-4" fill="#2196F3"></path>
            </g>
        </g>
    </g>
</svg>