<?xml version="1.0" encoding="UTF-8" standalone="no"?>
<svg width="74px" height="65px" viewBox="0 0 74 65" version="1.1" xmlns="http://www.w3.org/2000/svg" xmlns:xlink="http://www.w3.org/1999/xlink">
    <!-- Generator: Sketch 3.8.3 (29802) - http://www.bohemiancoding.com/sketch -->
    <title>tank copy 7</title>
    <desc>Created with Sketch.</desc>
    <defs>
        <polygon id="path-1" points="0.0139323794 0.0532520642 73.377198 0.0532520642 73.377198 64.579402 0.0139323794 64.579402"></polygon>
    </defs>
    <g id="Page-1" stroke="none" stroke-width="1" fill="none" fill-rule="evenodd">
        <g id="Лендинг" transform="translate(-235.000000, -1689.000000)">
            <g id="tank-copy-7" transform="translate(235.000000, 1689.000000)">
                <path d="M71.6911763,24.8313133 C71.2690753,37.9020561 72.3645433,38.1094423 72.7941217,52.0697788 C72.9615989,57.5124141 69.7125805,62.0744106 64.8722437,63.2943307 C51.3572485,66.7005431 29.2102115,63.2943319 15.0982324,63.2943313 C-2.58892304e-07,63.2943307 1.10294119,59.6845105 2.20588235,31.7638337 C2.53415221,23.4537653 20.955883,24.8313132 23.1617646,24.8313133 C25.3676461,24.8313135 38.3665033,22.7943479 44.1176477,24.8313132 C52.9411772,27.9564691 56.8554751,24.4133945 64.8722447,24.8313132 L71.6911763,24.8313133 Z" id="Path-321" fill="#7ED321" opacity="0.325559701"></path>
                <g id="Group-3">
                    <mask id="mask-2" fill="white">
                        <use xlink:href="#path-1"></use>
                    </mask>
                    <g id="Clip-2"></g>
                    <path d="M65.0087143,13.621974 L27.0520366,13.621974 L27.0520366,9.97612657 C27.7676965,9.78110888 28.2955015,9.10946122 28.2955015,8.30828152 L28.2955015,1.78010617 C28.2955015,0.826126618 27.5473327,0.0532520642 26.6238481,0.0532520642 L8.72492037,0.0532520642 C7.80166803,0.0532520642 7.05326706,0.826126618 7.05326706,1.78010617 L7.05326706,8.30828152 C7.05326706,9.10946122 7.58200085,9.78110888 8.29673191,9.97612657 L8.29673191,13.621974 L8.27235025,13.621974 C3.71065704,13.621974 0,17.4551631 0,22.167491 L0,55.980393 C0,60.692481 3.71065704,64.52591 8.27235025,64.52591 L65.0087143,64.52591 C69.5694787,64.52591 73.2810646,60.692481 73.2810646,55.980393 L73.2810646,22.167491 C73.2810646,17.4551631 69.5694787,13.621974 65.0087143,13.621974 L65.0087143,13.621974 Z M10.3965737,3.50696027 L24.9521948,3.50696027 L24.9521948,6.58118754 L10.3965737,6.58118754 L10.3965737,3.50696027 Z M11.6411996,10.0351356 L23.7078011,10.0351356 L23.7078011,13.621974 L11.6411996,13.621974 L11.6411996,10.0351356 Z M69.9368291,55.980393 C69.9368291,58.7876403 67.7262249,61.0722018 65.0087143,61.0722018 L8.27235025,61.0722018 C5.55483965,61.0722018 3.34330664,58.7876403 3.34330664,55.980393 L3.34330664,22.167491 C3.34330664,19.3602437 5.55483965,17.0756822 8.27235025,17.0756822 L65.0087143,17.0756822 C67.7262249,17.0756822 69.9368291,19.3602437 69.9368291,22.167491 L69.9368291,55.980393 Z" id="Fill-1" fill="#000000" mask="url(#mask-2)"></path>
                </g>
                <path d="M30.8823529,46.9 C32.1006281,46.9 33.0882353,45.9001026 33.0882353,44.6666667 C33.0882353,43.4332307 32.1006281,42.4333333 30.8823529,42.4333333 C29.6640778,42.4333333 28.6764706,43.4332307 28.6764706,44.6666667 C28.6764706,45.9001026 29.6640778,46.9 30.8823529,46.9 Z" id="Oval-17" stroke="#7ED321"></path>
                <ellipse id="Oval-17-Copy" stroke="#7ED321" cx="38.6029412" cy="36.85" rx="3.30882353" ry="3.35"></ellipse>
                <path d="M67.1937758,22.3069647 C63.5982931,20.9248098 59.6361566,20.9248098 56.0369586,22.3079242 C53.1915024,23.4003111 50.0576458,23.4003111 47.2121896,22.3069647 C43.615778,20.9257693 39.6538737,20.9248098 36.0563012,22.3069647 C36.0518893,22.3088837 36.0472451,22.3105628 36.0419044,22.3124818 C33.2001634,23.4003111 30.0716476,23.398632 27.2308355,22.3069647 C23.6332629,20.9257693 19.6722875,20.9257693 16.0749471,22.3069647 C13.2294908,23.4003111 10.0956343,23.4003111 7.25017802,22.3069647 C6.38474505,21.9742592 5.42248205,22.4297803 5.10041188,23.3235514 C4.77834171,24.2175624 5.21930152,25.2125604 6.08450228,25.5452659 C9.68184263,26.9274208 13.6439791,26.9264613 17.2403906,25.5452659 C20.0858469,24.4516796 23.2206323,24.4516796 26.0660886,25.5452659 C27.8647587,26.2358636 29.7542216,26.5815223 31.6434522,26.5805628 C33.5329151,26.5805628 35.4233068,26.2358636 37.2210481,25.5452659 C37.2263888,25.5433469 37.2319618,25.5404684 37.2363737,25.5387893 C40.0783469,24.4516796 43.2057017,24.4535986 46.0476748,25.5452659 C49.6440864,26.9264613 53.6059907,26.9264613 57.2051887,25.5443064 C60.0497161,24.4516796 63.1838048,24.4516796 66.0283323,25.5443064 C66.8935331,25.8760524 67.8569571,25.4214908 68.1778662,24.5277197 C68.4999364,23.6327492 68.0601376,22.6396702 67.1937758,22.3069647 L67.1937758,22.3069647 Z" id="Fill-4" fill="#7ED321"></path>
            </g>
        </g>
    </g>
</svg>