<?xml version="1.0" encoding="UTF-8" standalone="no"?>
<svg width="85px" height="75px" viewBox="0 0 85 75" version="1.1" xmlns="http://www.w3.org/2000/svg" xmlns:xlink="http://www.w3.org/1999/xlink">
    <!-- Generator: Sketch 3.8.3 (29802) - http://www.bohemiancoding.com/sketch -->
    <title>tank copy 5</title>
    <desc>Created with Sketch.</desc>
    <defs>
        <polygon id="path-1" points="0.015975795 0.0612001335 84.139187 0.0612001335 84.139187 74.2181187 0.015975795 74.2181187"></polygon>
    </defs>
    <g id="Page-1" stroke="none" stroke-width="1" fill="none" fill-rule="evenodd">
        <g id="Лендинг" transform="translate(-873.000000, -1831.000000)">
            <g id="tank-copy-5" transform="translate(873.000000, 1831.000000)">
                <path d="M82.2058822,28.5374795 C81.721873,43.5590794 82.9780097,43.7974188 83.4705929,59.8413876 C83.6626335,66.0963565 79.9370923,71.3392479 74.3868394,72.7412458 C58.8896449,76.6558481 33.4943759,72.7412471 17.3126398,72.7412464 C-2.9686316e-07,72.7412458 1.2647059,68.5926464 2.52941177,36.5047044 C2.90582787,26.9543272 24.0294126,28.5374794 26.5588234,28.5374795 C29.0882342,28.5374796 43.9935904,26.1964894 50.5882361,28.5374794 C60.7058831,32.1290764 65.1942782,28.0571848 74.3868406,28.5374794 L82.2058822,28.5374795 Z" id="Path-321" fill="#4EBDF8" opacity="0.325559701"></path>
                <g id="Group-3">
                    <mask id="mask-2" fill="white">
                        <use xlink:href="#path-1"></use>
                    </mask>
                    <g id="Clip-2"></g>
                    <path d="M74.5433258,15.6551044 L31.0196686,15.6551044 L31.0196686,11.4651007 C31.840292,11.2409759 32.4455083,10.4690823 32.4455083,9.54832354 L32.4455083,2.04579365 C32.4455083,0.949429099 31.5876082,0.0612001335 30.5286792,0.0612001335 L10.0045754,0.0612001335 C8.94591268,0.0612001335 8.08774622,0.949429099 8.08774622,2.04579365 L8.08774622,9.54832354 C8.08774622,10.4690823 8.69402764,11.2409759 9.51358593,11.4651007 L9.51358593,15.6551044 L9.48562829,15.6551044 C4.25488674,15.6551044 0,20.0604113 0,25.4760718 L0,64.3356755 C0,69.7510603 4.25488674,74.1566429 9.48562829,74.1566429 L74.5433258,74.1566429 C79.7730023,74.1566429 84.0289541,69.7510603 84.0289541,64.3356755 L84.0289541,25.4760718 C84.0289541,20.0604113 79.7730023,15.6551044 74.5433258,15.6551044 L74.5433258,15.6551044 Z M11.9214045,4.03038717 L28.6118501,4.03038717 L28.6118501,7.56345434 L11.9214045,7.56345434 L11.9214045,4.03038717 Z M13.3485755,11.5329171 L27.1849453,11.5329171 L27.1849453,15.6551044 L13.3485755,15.6551044 L13.3485755,11.5329171 Z M80.1942307,64.3356755 C80.1942307,67.561915 77.6594046,70.1874558 74.5433258,70.1874558 L9.48562829,70.1874558 C6.36954947,70.1874558 3.83365828,67.561915 3.83365828,64.3356755 L3.83365828,25.4760718 C3.83365828,22.2498323 6.36954947,19.6242915 9.48562829,19.6242915 L74.5433258,19.6242915 C77.6594046,19.6242915 80.1942307,22.2498323 80.1942307,25.4760718 L80.1942307,64.3356755 Z" id="Fill-1" fill="#000000" mask="url(#mask-2)"></path>
                </g>
                <ellipse id="Oval-17" stroke="#2196F3" cx="35.4117647" cy="51.3333333" rx="2.52941176" ry="2.56666667"></ellipse>
                <ellipse id="Oval-17-Copy" stroke="#2196F3" cx="44.2647059" cy="42.35" rx="3.79411765" ry="3.85"></ellipse>
                <path d="M77.048863,25.6363624 C72.9260428,24.0479157 68.382793,24.0479157 64.2557126,25.6374651 C60.9929227,26.8928949 57.3994339,26.8928949 54.136644,25.6363624 C50.0127588,24.0490184 45.4697752,24.0479157 41.3445587,25.6363624 C41.3394997,25.6385678 41.3341744,25.6404976 41.3280504,25.642703 C38.0695207,26.8928949 34.4821559,26.8909652 31.2246913,25.6363624 C27.0994748,24.0490184 22.5575563,24.0490184 18.432606,25.6363624 C15.1698162,26.8928949 11.5763273,26.8928949 8.31353746,25.6363624 C7.32117433,25.2539994 6.21777942,25.7775087 5.84847229,26.8046785 C5.47916516,27.832124 5.98479907,28.9756292 6.97689594,29.3579922 C11.1018462,30.9464389 15.6450961,30.9453362 19.7689813,29.3579922 C23.0317711,28.101184 26.626325,28.101184 29.8891149,29.3579922 C31.95159,30.1516642 34.1181741,30.5489137 36.2844919,30.547811 C38.451076,30.547811 40.6187251,30.1516642 42.6801352,29.3579922 C42.6862592,29.3557868 42.6926495,29.3524786 42.6977085,29.3505489 C45.9565044,28.101184 49.5425379,28.1033894 52.8013338,29.3579922 C56.925219,30.9453362 61.4682026,30.9453362 65.595283,29.3568895 C68.8570078,28.101184 72.4507629,28.101184 75.7124877,29.3568895 C76.7045846,29.7381497 77.8093108,29.2157432 78.1772866,28.1885734 C78.5465937,27.1600252 78.0422911,26.0187254 77.048863,25.6363624 L77.048863,25.6363624 Z" id="Fill-4" fill="#2196F3"></path>
            </g>
        </g>
    </g>
</svg>