<?xml version="1.0" encoding="UTF-8" standalone="no"?>
<svg width="45px" height="64px" viewBox="0 0 45 64" version="1.1" xmlns="http://www.w3.org/2000/svg" xmlns:xlink="http://www.w3.org/1999/xlink">
    <!-- Generator: Sketch 3.8.3 (29802) - http://www.bohemiancoding.com/sketch -->
    <title>welding-machine</title>
    <desc>Created with Sketch.</desc>
    <defs>
        <polygon id="path-1" points="0.0137755102 0.00914285714 45 0.00914285714 45 64 0.0137755102 64"></polygon>
    </defs>
    <g id="Page-1" stroke="none" stroke-width="1" fill="none" fill-rule="evenodd">
        <g id="Лендинг" transform="translate(-671.000000, -1433.000000)">
            <g id="welding-machine" transform="translate(671.000000, 1433.000000)">
                <path d="M6.20517857,58.1481143 L26.4891582,58.1481143 C28.4928061,58.1481143 30.1222194,56.5259429 30.1222194,54.5312 L30.1222194,19.7446857 C30.1222194,17.7508571 28.4928061,16.1277714 26.4891582,16.1277714 L6.20517857,16.1277714 C4.2017602,16.1277714 2.57119898,17.7508571 2.57119898,19.7446857 L2.57119898,54.5312 C2.57119898,56.5259429 4.2017602,58.1481143 6.20517857,58.1481143 L6.20517857,58.1481143 Z M4.04127551,19.7446857 C4.04127551,18.5572571 5.01153061,17.5910857 6.20517857,17.5910857 L26.4891582,17.5910857 C27.6818878,17.5910857 28.6532908,18.5572571 28.6532908,19.7446857 L28.6532908,54.5312 C28.6532908,55.7188571 27.6818878,56.6857143 26.4891582,56.6857143 L6.20517857,56.6857143 C5.01153061,56.6857143 4.04127551,55.7188571 4.04127551,54.5312 L4.04127551,19.7446857 Z" id="Fill-1" fill="#000000"></path>
                <path d="M5.8780102,26.5213714 L16.5278571,26.5213714 C16.9333163,26.5213714 17.262551,26.1938286 17.262551,25.7901714 L17.262551,21.0027429 C17.262551,20.5990857 16.9333163,20.2715429 16.5278571,20.2715429 L5.8780102,20.2715429 C5.47163265,20.2715429 5.14331633,20.5990857 5.14331633,21.0027429 L5.14331633,25.7901714 C5.14331633,26.1938286 5.47163265,26.5213714 5.8780102,26.5213714 L5.8780102,26.5213714 Z M6.61247449,21.7339429 L15.7924745,21.7339429 L15.7924745,25.0589714 L6.61247449,25.0589714 L6.61247449,21.7339429 Z" id="Fill-2" fill="#000000"></path>
                <path d="M19.928801,21.7339429 L26.8613265,21.7339429 C27.2667857,21.7339429 27.5957908,21.4070857 27.5957908,21.0027429 C27.5957908,20.5990857 27.2667857,20.2715429 26.8613265,20.2715429 L19.928801,20.2715429 C19.5233418,20.2715429 19.1943367,20.5990857 19.1943367,21.0027429 C19.1943367,21.4070857 19.5233418,21.7339429 19.928801,21.7339429 L19.928801,21.7339429 Z" id="Fill-3" fill="#000000"></path>
                <path d="M19.928801,24.1277714 L26.8613265,24.1277714 C27.2667857,24.1277714 27.5957908,23.8 27.5957908,23.3963429 C27.5957908,22.9929143 27.2667857,22.6651429 26.8613265,22.6651429 L19.928801,22.6651429 C19.5233418,22.6651429 19.1943367,22.9929143 19.1943367,23.3963429 C19.1943367,23.8 19.5233418,24.1277714 19.928801,24.1277714 L19.928801,24.1277714 Z" id="Fill-4" fill="#000000"></path>
                <path d="M19.928801,26.5213714 L26.8613265,26.5213714 C27.2667857,26.5213714 27.5957908,26.1938286 27.5957908,25.7901714 C27.5957908,25.3856 27.2667857,25.0589714 26.8613265,25.0589714 L19.928801,25.0589714 C19.5233418,25.0589714 19.1943367,25.3856 19.1943367,25.7901714 C19.1943367,26.1938286 19.5233418,26.5213714 19.928801,26.5213714 L19.928801,26.5213714 Z" id="Fill-5" fill="#000000"></path>
                <path d="M22.8678061,45.3481143 C24.9940561,45.3481143 26.724949,43.6258286 26.724949,41.5090286 C26.724949,39.3910857 24.9940561,37.6688 22.8678061,37.6688 C20.7404082,37.6688 19.0104337,39.3910857 19.0104337,41.5090286 C19.0104337,43.6258286 20.7404082,45.3481143 22.8678061,45.3481143 L22.8678061,45.3481143 Z M22.8678061,39.1312 C24.1842857,39.1312 25.255102,40.1981714 25.255102,41.5090286 C25.255102,42.8196571 24.1842857,43.8857143 22.8678061,43.8857143 C21.5510969,43.8857143 20.4793622,42.8196571 20.4793622,41.5090286 C20.4793622,40.1981714 21.5510969,39.1312 22.8678061,39.1312 L22.8678061,39.1312 Z" id="Fill-6" fill="#000000"></path>
                <path d="M23.941148,41.5090286 C23.941148,42.0992 23.4606122,42.5776 22.8678061,42.5776 C22.275,42.5776 21.7942347,42.0992 21.7942347,41.5090286 C21.7942347,40.9179429 22.275,40.4402286 22.8678061,40.4402286 C23.4606122,40.4402286 23.941148,40.9179429 23.941148,41.5090286 L23.941148,41.5090286 Z" id="Fill-7" fill="#000000"></path>
                <path d="M23.941148,51.0169143 C23.941148,51.6070857 23.4606122,52.0857143 22.8678061,52.0857143 C22.275,52.0857143 21.7942347,51.6070857 21.7942347,51.0169143 C21.7942347,50.4267429 22.275,49.9481143 22.8678061,49.9481143 C23.4606122,49.9481143 23.941148,50.4267429 23.941148,51.0169143 L23.941148,51.0169143 Z" id="Fill-8" fill="#000000"></path>
                <path d="M22.8678061,54.8571429 C24.9940561,54.8571429 26.724949,53.1348571 26.724949,51.0169143 C26.724949,48.9001143 24.9940561,47.1766857 22.8678061,47.1766857 C20.7404082,47.1766857 19.0104337,48.9001143 19.0104337,51.0169143 C19.0104337,53.1348571 20.7404082,54.8571429 22.8678061,54.8571429 L22.8678061,54.8571429 Z M22.8678061,48.6402286 C24.1842857,48.6402286 25.255102,49.7062857 25.255102,51.0169143 C25.255102,52.3277714 24.1842857,53.3947429 22.8678061,53.3947429 C21.5510969,53.3947429 20.4793622,52.3277714 20.4793622,51.0169143 C20.4793622,49.7062857 21.5510969,48.6402286 22.8678061,48.6402286 L22.8678061,48.6402286 Z" id="Fill-9" fill="#000000"></path>
                <path d="M16.9897959,50.2857143 L15.8875255,50.2857143 L15.8875255,49.1883429 C15.8875255,48.7849143 15.5594388,48.4571429 15.1530612,48.4571429 C14.747602,48.4571429 14.4185969,48.7849143 14.4185969,49.1883429 L14.4185969,50.2857143 L13.3163265,50.2857143 C12.9108673,50.2857143 12.5818622,50.6134857 12.5818622,51.0169143 C12.5818622,51.4214857 12.9108673,51.7481143 13.3163265,51.7481143 L14.4185969,51.7481143 L14.4185969,52.8454857 C14.4185969,53.2500571 14.747602,53.5766857 15.1530612,53.5766857 C15.5594388,53.5766857 15.8875255,53.2500571 15.8875255,52.8454857 L15.8875255,51.7481143 L16.9897959,51.7481143 C17.3961735,51.7481143 17.7242602,51.4214857 17.7242602,51.0169143 C17.7242602,50.6134857 17.3961735,50.2857143 16.9897959,50.2857143 L16.9897959,50.2857143 Z" id="Fill-10" fill="#000000"></path>
                <g id="Group-14">
                    <mask id="mask-2" fill="white">
                        <use xlink:href="#path-1"></use>
                    </mask>
                    <g id="Clip-12"></g>
                    <path d="M13.3163265,40.7766857 C12.9108673,40.7766857 12.5818622,41.1044571 12.5818622,41.5090286 C12.5818622,41.9124571 12.9108673,42.2402286 13.3163265,42.2402286 L16.9897959,42.2402286 C17.3961735,42.2402286 17.7242602,41.9124571 17.7242602,41.5090286 C17.7242602,41.1044571 17.3961735,40.7766857 16.9897959,40.7766857 L13.3163265,40.7766857 Z" id="Fill-11" fill="#000000" mask="url(#mask-2)"></path>
                    <path d="M44.082551,1.28045714 L42.5454337,1.28045714 L42.5454337,0.7312 C42.5454337,0.327771429 42.216199,0 41.8098214,0 C41.4045918,0 41.0753571,0.327771429 41.0753571,0.7312 L41.0753571,1.28045714 L39.8817092,1.28045714 L39.8817092,0.7312 C39.8817092,0.327771429 39.5524745,0 39.1472449,0 C38.7408673,0 38.4127806,0.327771429 38.4127806,0.7312 L38.4127806,1.28045714 L15.980051,1.28045714 C15.5745918,1.28045714 15.2453571,1.60708571 15.2453571,2.01165714 C15.2453571,2.41508571 15.5745918,2.74285714 15.980051,2.74285714 L38.4127806,2.74285714 L38.4127806,4.00525714 L38.3625,4.00525714 C37.9570408,4.00525714 37.6280357,4.33302857 37.6280357,4.7376 L37.6280357,26.2838857 C37.6280357,26.6875429 37.9570408,27.0150857 38.3625,27.0150857 L39.7434949,27.0150857 L39.7434949,42.8285714 C39.7434949,46.4018286 36.8244643,49.3081143 33.2352551,49.3081143 L32.6934184,49.3081143 L32.6934184,10.0571429 C32.6934184,9.65348571 32.3653316,9.32594286 31.9589541,9.32594286 L0.734464286,9.32594286 C0.329234694,9.32594286 0,9.65348571 0,10.0571429 L0,59.9766857 C0,60.3812571 0.329234694,60.7090286 0.734464286,60.7090286 L2.29591837,60.7090286 L2.29591837,63.2688 C2.29591837,63.6722286 2.62515306,64 3.03038265,64 L6.15329082,64 C6.55852041,64 6.8877551,63.6722286 6.8877551,63.2688 L6.8877551,60.7090286 L25.8056633,60.7090286 L25.8056633,63.2688 C25.8056633,63.6722286 26.134898,64 26.5412755,64 L29.6630357,64 C30.0694133,64 30.3975,63.6722286 30.3975,63.2688 L30.3975,60.7090286 L31.9589541,60.7090286 C32.3653316,60.7090286 32.6934184,60.3812571 32.6934184,59.9766857 L32.6934184,50.7714286 L33.2352551,50.7714286 C37.6342347,50.7714286 41.2135714,47.208 41.2135714,42.8285714 L41.2135714,27.0150857 L42.5945663,27.0150857 C43.0000255,27.0150857 43.3292602,26.6875429 43.3292602,26.2838857 L43.3292602,4.7376 C43.3292602,4.33302857 43.0000255,4.00525714 42.5945663,4.00525714 L42.5454337,4.00525714 L42.5454337,2.74285714 L44.082551,2.74285714 C44.4880102,2.74285714 44.8170153,2.41508571 44.8170153,2.01165714 C44.8170153,1.60708571 44.4880102,1.28045714 44.082551,1.28045714 L44.082551,1.28045714 Z M3.76576531,60.7090286 L5.41882653,60.7090286 L5.41882653,62.5376 L3.76576531,62.5376 L3.76576531,60.7090286 Z M27.2757398,60.7090286 L28.9285714,60.7090286 L28.9285714,62.5376 L27.2757398,62.5376 L27.2757398,60.7090286 Z M1.46984694,10.7883429 L31.2244898,10.7883429 L31.2244898,59.2454857 L1.46984694,59.2454857 L1.46984694,10.7883429 Z M39.0978827,18.8706286 L41.860102,18.8706286 L41.860102,20.1508571 L39.0978827,20.1508571 L39.0978827,18.8706286 Z M39.0978827,21.6134857 L41.860102,21.6134857 L41.860102,22.8937143 L39.0978827,22.8937143 L39.0978827,21.6134857 Z M39.0978827,5.4688 L41.860102,5.4688 L41.860102,17.408 L39.0978827,17.408 L39.0978827,5.4688 Z M39.0978827,24.3563429 L41.860102,24.3563429 L41.860102,25.5517714 L39.0978827,25.5517714 L39.0978827,24.3563429 Z M39.8817092,2.74285714 L41.0753571,2.74285714 L41.0753571,4.00525714 L39.8817092,4.00525714 L39.8817092,2.74285714 Z" id="Fill-13" fill="#000000" mask="url(#mask-2)"></path>
                </g>
            </g>
        </g>
    </g>
</svg>