<?xml version="1.0" encoding="UTF-8" standalone="no"?>
<svg width="51px" height="54px" viewBox="0 0 51 54" version="1.1" xmlns="http://www.w3.org/2000/svg" xmlns:xlink="http://www.w3.org/1999/xlink">
    <!-- Generator: Sketch 3.8.3 (29802) - http://www.bohemiancoding.com/sketch -->
    <title>weld copy</title>
    <desc>Created with Sketch.</desc>
    <defs>
        <polygon id="path-1" points="0 0.0961016949 50.9629091 0.0961016949 50.9629091 53.1808475 0 53.1808475"></polygon>
    </defs>
    <g id="Page-1" stroke="none" stroke-width="1" fill="none" fill-rule="evenodd">
        <g id="Лендинг" transform="translate(-262.000000, -1544.000000)">
            <g id="weld-copy" transform="translate(262.000000, 1544.000000)">
                <mask id="mask-2" fill="white">
                    <use xlink:href="#path-1"></use>
                </mask>
                <g id="Clip-2"></g>
                <path d="M32.0382,16.8745424 L21.6100909,16.8745424 C20.1208909,16.8745424 18.9117273,18.0716949 18.9117273,19.5379322 C18.9117273,21.0069153 20.1208909,22.2049831 21.6100909,22.2049831 L32.0382,22.2049831 C33.5264727,22.2049831 34.7365636,21.0069153 34.7365636,19.5379322 C34.7365636,18.0716949 33.5227636,16.8745424 32.0382,16.8745424 L32.0382,16.8745424 Z M32.0382,20.7387458 L21.6100909,20.7387458 C20.9396727,20.7387458 20.3925818,20.199661 20.3925818,19.5379322 C20.3925818,18.8798644 20.9396727,18.3398644 21.6100909,18.3398644 L32.0382,18.3398644 C32.7076909,18.3398644 33.2510727,18.8798644 33.2510727,19.5379322 C33.2510727,20.199661 32.7076909,20.7387458 32.0382,20.7387458 L32.0382,20.7387458 Z M15.1330909,7.14630508 C15.9082909,2.26983051 19.5163091,0.0961016949 26.8222909,0.0961016949 C33.8167091,0.0961016949 37.8299455,2.45928814 38.7572182,7.1179322 C38.8332545,7.51423729 38.5726909,7.90047458 38.1702545,7.97918644 C38.1229636,7.99016949 38.0728909,7.99383051 38.0293091,7.99383051 C37.6815818,7.99383051 37.3700182,7.75037288 37.3014,7.39983051 C36.5187818,3.47064407 33.0925091,1.56142373 26.8222909,1.56142373 C18.6502364,1.56142373 17.0785091,4.35386441 16.5963273,7.37511864 C16.5314182,7.77233898 16.1549455,8.04325424 15.7488,7.98284746 C15.3435818,7.91877966 15.0681818,7.54627119 15.1330909,7.14630508 L15.1330909,7.14630508 Z M50.0940545,40.8102712 C49.6239273,40.341661 48.9498,40.0524407 48.0735273,39.9206441 C47.9789455,39.3229831 47.8342909,38.7472881 47.6673818,38.1862373 L47.6673818,23.4991525 C47.6673818,23.0955254 47.3344909,22.7696949 46.9246364,22.7696949 C46.5157091,22.7696949 46.1828182,23.0955254 46.1828182,23.4991525 L46.1828182,34.8894915 C45.0812182,33.102 43.6216909,31.593661 42.0351273,30.3782034 L42.2382,29.6167119 C42.3429818,29.2268136 42.1037455,28.8259322 41.7087273,28.7225085 C41.3183455,28.6190847 40.9047818,28.8515593 40.8037091,29.2442034 L40.7452909,29.4629492 C39.6622364,28.7618644 38.5541455,28.1861695 37.4822182,27.7468475 L37.4822182,22.7980678 C38.3074909,22.3770508 40.1917091,21.0792203 40.0971273,18.0149492 C40.0832182,17.5252881 40.0396364,16.030678 38.9417455,15.6124068 C38.4382364,15.4192881 37.9208182,15.548339 37.4785091,15.7661695 L37.4785091,15.012 L39.3543818,13.881661 C39.7021091,13.6711525 39.8152364,13.2208475 39.6010364,12.8776271 C39.3877636,12.5307458 38.9306182,12.42 38.5828909,12.6305085 L37.4785091,13.2958983 L37.4785091,11.5477627 C37.4785091,8.67294915 34.7690182,6.52759322 32.3460545,6.52759322 L21.2985273,6.52759322 C18.3711273,6.52759322 16.1623636,8.68759322 16.1623636,11.5477627 L16.1623636,13.2995593 L15.0533455,12.6305085 C14.7056182,12.42 14.2494,12.5307458 14.0361273,12.8776271 C13.8219273,13.2208475 13.9304182,13.6711525 14.2818545,13.881661 L16.1623636,15.015661 L16.1623636,15.7194915 C15.7562182,15.5190508 15.2786727,15.4009831 14.8039091,15.5803729 C13.7097273,15.987661 13.6661455,17.5143051 13.6485273,18.0149492 C13.5576545,21.0856271 15.3797455,22.3871186 16.1623636,22.8017288 L16.1623636,27.7935254 C15.0431455,28.2612203 13.9851273,28.8195254 13.0031455,29.4592881 L12.9456545,29.2442034 C12.8408727,28.8515593 12.4347273,28.6190847 12.0397091,28.7225085 C11.6456182,28.8259322 11.4063818,29.2231525 11.5111636,29.6167119 L11.7179455,30.3855254 C8.82021818,32.6407119 6.74776364,35.6226102 5.91878182,38.8479661 L5.91878182,36.187322 C5.91878182,35.7836949 5.58496364,35.4551186 5.17603636,35.4551186 L4.79956364,35.4551186 L4.79956364,19.5168814 C4.77730909,18.9054915 4.88672727,16.9999322 5.61463636,16.2558305 C5.81029091,16.0553898 6.02727273,15.9666102 6.30267273,15.9666102 C6.7116,15.9666102 7.04541818,15.6371186 7.04541818,15.2334915 C7.04541818,14.8289492 6.7116,14.5003729 6.30267273,14.5003729 C5.62483636,14.5003729 5.02025455,14.7575593 4.54549091,15.2371525 C3.24916364,16.5670169 3.30665455,19.2624407 3.31778182,19.5379322 L3.31778182,28.0003729 L2.25698182,28.0003729 L2.25698182,27.3139322 L1.06450909,27.3139322 L1.06450909,30.1530508 L2.25698182,30.1530508 L2.25698182,29.4666102 L3.31407273,29.4666102 L3.31407273,35.4551186 L2.9376,35.4551186 C2.52867273,35.4551186 2.19485455,35.7836949 2.19485455,36.187322 L2.19485455,40.0670847 C1.65147273,40.2272542 1.2138,40.4743729 0.872563636,40.8102712 C-0.0111272727,41.6898305 -0.00741818182,42.9235932 1.02782366e-16,44.013661 L0.00370909091,49.0942373 C0.00370909091,51.292678 1.81467273,53.0838305 4.04569091,53.0838305 C6.27392727,53.0838305 8.0886,51.292678 8.0886,49.0942373 L8.0886,44.013661 C8.09509091,42.9235932 8.10250909,41.6898305 7.21510909,40.8102712 C7.17523636,40.7709153 7.12145455,40.7462034 7.08158182,40.7068475 C7.47289091,37.4247458 9.31630909,34.3000678 12.1305818,31.9332203 L13.6485273,37.6352542 L13.6485273,51.843661 C13.6485273,52.2472881 13.9777091,52.5731186 14.3875636,52.5731186 C14.8002,52.5731186 15.1293818,52.2472881 15.1293818,51.843661 L15.1293818,38.2759322 L16.1660727,38.2759322 L16.1660727,39.4877288 C16.1660727,42.3158644 18.4944545,44.6140678 21.3560182,44.6140678 L32.2876364,44.6140678 C35.1529091,44.6140678 37.4822182,42.3158644 37.4822182,39.4877288 L37.4822182,38.2759322 L38.6190545,38.2759322 L38.6190545,51.843661 C38.6190545,52.2472881 38.9491636,52.5767797 39.3580909,52.5767797 C39.7716545,52.5767797 40.1008364,52.2472881 40.1008364,51.843661 L40.1008364,37.6352542 L41.6224909,31.9185763 C43.6291091,33.5742712 45.339,35.744339 46.1828182,38.394 L46.1828182,39.8776271 C45.1071818,39.9737288 44.2958182,40.2739322 43.7561455,40.8102712 C42.8678182,41.6898305 42.8752364,42.9235932 42.8826545,44.013661 L42.8826545,49.0942373 C42.8826545,51.292678 44.6973273,53.0838305 46.9246364,53.0838305 C49.1565818,53.0838305 50.9675455,51.292678 50.9675455,49.0942373 L50.9712545,44.013661 C50.9749636,42.9235932 50.9814545,41.6898305 50.0940545,40.8102712 L50.0940545,40.8102712 Z M3.68034545,36.9204407 L4.43329091,36.9204407 L4.43329091,39.3486102 L3.68034545,39.3486102 L3.68034545,36.9204407 Z M4.04569091,51.6221695 C2.63345455,51.6221695 1.48549091,50.4881695 1.48549091,49.0942373 L1.48549091,44.006339 C1.47807273,43.1240339 1.47436364,42.2902373 1.92687273,41.8435932 C2.28943636,41.4829831 3.00250909,41.2999322 4.04569091,41.2999322 C5.08516364,41.2999322 5.79916364,41.4829831 6.16450909,41.8435932 C6.46587273,42.1437966 6.55952727,42.6160678 6.59198182,43.1597288 L4.86818182,43.1597288 C4.45925455,43.1597288 4.12543636,43.4846441 4.12543636,43.8882712 C4.12543636,44.2964746 4.45925455,44.6213898 4.86818182,44.6213898 L6.60681818,44.6213898 L6.60681818,45.9549153 L4.86818182,45.9549153 C4.45925455,45.9549153 4.12543636,46.2844068 4.12543636,46.6880339 C4.12543636,47.091661 4.45925455,47.4211525 4.86818182,47.4211525 L6.60310909,47.4211525 L6.60310909,48.657661 L4.86818182,48.657661 C4.45925455,48.657661 4.12543636,48.9834915 4.12543636,49.3907797 C4.12543636,49.795322 4.45925455,50.1202373 4.86818182,50.1202373 L6.37870909,50.1202373 C5.97627273,51.0034576 5.08516364,51.6221695 4.04569091,51.6221695 L4.04569091,51.6221695 Z M15.1330909,18.0579661 C15.1590545,17.2104407 15.3213273,16.9743051 15.3111273,16.9569153 C15.4669091,16.9605763 15.8758364,17.2314915 16.1326909,17.499661 C16.1401091,17.5069831 16.1549455,17.5106441 16.1623636,17.5216271 L16.1623636,20.9931864 C15.6440182,20.4742373 15.0895091,19.5699661 15.1330909,18.0579661 L15.1330909,18.0579661 Z M14.9596909,36.8096949 L13.4018727,30.9639661 C14.2605273,30.3708814 15.1803818,29.8455254 16.1623636,29.3952203 L16.1623636,36.8096949 L14.9596909,36.8096949 Z M38.3872364,16.9669831 C38.3909455,16.9706441 38.5866,17.1601017 38.6162727,18.0579661 C38.6626364,19.602 38.0432182,20.5172542 37.4822182,21.0288814 L37.4822182,17.553661 C37.7826545,17.2534576 38.2212545,16.9569153 38.3872364,16.9669831 L38.3872364,16.9669831 Z M35.9967273,39.4877288 C35.9967273,41.5076949 34.3341273,43.1487458 32.2876364,43.1487458 L21.3560182,43.1487458 C19.3095273,43.1487458 17.6469273,41.5076949 17.6469273,39.4877288 L17.6469273,11.5477627 C17.6469273,9.52047458 19.2158727,7.99383051 21.2985273,7.99383051 L32.3460545,7.99383051 C33.8343273,7.99383051 35.9967273,9.37677966 35.9967273,11.5477627 L35.9967273,39.4877288 Z M38.7859636,36.8096949 L37.4822182,36.8096949 L37.4822182,29.3485424 C38.4345273,29.7768814 39.4053818,30.3168814 40.3474909,30.9603051 L38.7859636,36.8096949 Z M49.4857636,44.006339 L49.4857636,49.0942373 C49.4857636,50.4881695 48.3378,51.6221695 46.9246364,51.6221695 C45.8851636,51.6221695 44.9912727,51.0034576 44.5925455,50.1202373 L46.1030727,50.1202373 C46.512,50.1202373 46.8458182,49.795322 46.8458182,49.3907797 C46.8458182,48.9834915 46.512,48.657661 46.1030727,48.657661 L44.3681455,48.657661 L44.3681455,47.4211525 L46.1030727,47.4211525 C46.512,47.4211525 46.8458182,47.091661 46.8458182,46.6880339 C46.8458182,46.2844068 46.512,45.9549153 46.1030727,45.9549153 L44.3681455,45.9549153 L44.3681455,44.6213898 L46.1030727,44.6213898 C46.5157091,44.6213898 46.8458182,44.2964746 46.8458182,43.8882712 C46.8458182,43.4846441 46.5157091,43.1597288 46.1030727,43.1597288 L44.3783455,43.1597288 C44.4117273,42.6160678 44.5053818,42.1437966 44.8058182,41.8435932 C45.1720909,41.4829831 45.8851636,41.2999322 46.9246364,41.2999322 C47.9678182,41.2999322 48.6818182,41.4829831 49.0443818,41.8435932 C49.4968909,42.2902373 49.4894727,43.1240339 49.4857636,44.006339 L49.4857636,44.006339 Z M33.5700545,48.3647797 C33.5700545,48.7684068 33.2408727,49.0978983 32.8310182,49.0978983 L20.9183455,49.0978983 C20.5084909,49.0978983 20.1756,48.7684068 20.1756,48.3647797 C20.1756,47.9611525 20.5084909,47.631661 20.9183455,47.631661 L32.8310182,47.631661 C33.2408727,47.631661 33.5700545,47.9611525 33.5700545,48.3647797 L33.5700545,48.3647797 Z" id="Fill-1" fill="#231F1F" mask="url(#mask-2)"></path>
            </g>
        </g>
    </g>
</svg>