<?xml version="1.0" encoding="UTF-8" standalone="no"?>
<svg width="48px" height="48px" viewBox="0 0 48 48" version="1.1" xmlns="http://www.w3.org/2000/svg" xmlns:xlink="http://www.w3.org/1999/xlink">
    <!-- Generator: Sketch 3.8.3 (29802) - http://www.bohemiancoding.com/sketch -->
    <title>favorite</title>
    <desc>Created with Sketch.</desc>
    <defs>
        <polygon id="path-1" points="0 0 48 0 48 47.94 0 47.94"></polygon>
    </defs>
    <g id="Page-1" stroke="none" stroke-width="1" fill="none" fill-rule="evenodd">
        <g id="Лендинг" transform="translate(-669.000000, -1547.000000)">
            <g id="favorite" transform="translate(669.000000, 1547.000000)">
                <path d="M28.801,17.602 L8.801,17.602 C8.359,17.602 8,17.957 8,18.398 C8,18.84 8.359,19.199 8.801,19.199 L28.801,19.199 C29.242,19.199 29.602,18.84 29.602,18.398 C29.602,17.957 29.242,17.602 28.801,17.602 L28.801,17.602 Z" id="Fill-1" fill="#000000"></path>
                <path d="M8.801,12.801 L16.801,12.801 C17.242,12.801 17.602,12.441 17.602,12 C17.602,11.559 17.242,11.199 16.801,11.199 L8.801,11.199 C8.359,11.199 8,11.559 8,12 C8,12.441 8.359,12.801 8.801,12.801 L8.801,12.801 Z" id="Fill-2" fill="#000000"></path>
                <path d="M29.602,24.801 C29.602,24.359 29.242,24 28.801,24 L8.801,24 C8.359,24 8,24.359 8,24.801 C8,25.242 8.359,25.602 8.801,25.602 L28.801,25.602 C29.242,25.602 29.602,25.242 29.602,24.801 L29.602,24.801 Z" id="Fill-3" fill="#000000"></path>
                <path d="M23.199,31.199 C23.199,30.758 22.844,30.398 22.398,30.398 L8.801,30.398 C8.359,30.398 8,30.758 8,31.199 C8,31.641 8.359,32 8.801,32 L22.398,32 C22.844,32 23.199,31.641 23.199,31.199 L23.199,31.199 Z" id="Fill-4" fill="#000000"></path>
                <g id="Group-9">
                    <mask id="mask-2" fill="white">
                        <use xlink:href="#path-1"></use>
                    </mask>
                    <g id="Clip-6"></g>
                    <path d="M8.801,36.801 C8.359,36.801 8,37.16 8,37.602 C8,38.043 8.359,38.398 8.801,38.398 L20,38.398 C20.441,38.398 20.801,38.043 20.801,37.602 C20.801,37.16 20.441,36.801 20,36.801 L8.801,36.801 Z" id="Fill-5" fill="#000000" mask="url(#mask-2)"></path>
                    <path d="M1.602,1.602 L24.801,1.602 L24.801,12.801 L36,12.801 L36,26.398 L37.602,26.398 L37.602,11.668 L25.93,0 L0,0 L0,48 L26.398,48 L26.398,46.398 L1.602,46.398 L1.602,1.602 Z M26.398,2.73 L34.867,11.199 L26.398,11.199 L26.398,2.73 Z" id="Fill-7" fill="#000000" mask="url(#mask-2)"></path>
                    <path d="M47.164,36.082 C47.07,35.789 46.816,35.574 46.512,35.531 L40.289,34.66 L37.512,29.234 C37.238,28.699 36.363,28.699 36.09,29.234 L33.312,34.66 L27.09,35.531 C26.785,35.574 26.531,35.789 26.438,36.082 C26.344,36.375 26.43,36.695 26.652,36.906 L31.137,41.121 L30.078,47.059 C30.027,47.359 30.148,47.66 30.391,47.844 C30.633,48.023 30.961,48.051 31.23,47.914 L36.801,45.09 L42.371,47.914 C42.484,47.973 42.609,48 42.734,48 C42.902,48 43.07,47.945 43.211,47.844 C43.453,47.66 43.574,47.359 43.52,47.059 L42.465,41.121 L46.949,36.906 C47.172,36.695 47.254,36.375 47.164,36.082 L47.164,36.082 Z M41.051,40.25 C40.855,40.434 40.766,40.707 40.812,40.973 L41.664,45.762 L37.16,43.48 C37.047,43.422 36.922,43.395 36.801,43.395 C36.676,43.395 36.551,43.422 36.438,43.48 L31.934,45.762 L32.785,40.973 C32.836,40.707 32.742,40.434 32.547,40.25 L28.965,36.883 L33.941,36.188 C34.199,36.148 34.426,35.988 34.543,35.758 L36.797,31.355 L39.055,35.758 C39.172,35.988 39.395,36.148 39.652,36.188 L44.633,36.883 L41.051,40.25 Z" id="Fill-8" fill="#000000" mask="url(#mask-2)"></path>
                </g>
            </g>
        </g>
    </g>
</svg>