<?xml version="1.0" encoding="UTF-8" standalone="no"?>
<svg width="59px" height="43px" viewBox="0 0 59 43" version="1.1" xmlns="http://www.w3.org/2000/svg" xmlns:xlink="http://www.w3.org/1999/xlink">
    <!-- Generator: Sketch 3.8.3 (29802) - http://www.bohemiancoding.com/sketch -->
    <title>library</title>
    <desc>Created with Sketch.</desc>
    <defs></defs>
    <g id="Page-1" stroke="none" stroke-width="1" fill="none" fill-rule="evenodd">
        <g id="Лендинг" transform="translate(-257.000000, -1446.000000)" fill="#000000">
            <g id="library" transform="translate(257.000000, 1446.000000)">
                <path d="M56.2591687,6.50424634 L55.2780954,6.50424634 L55.2780954,3.68404634 C55.2780954,3.34961707 55.0847946,3.04497561 54.7811394,2.9026561 C46.7484841,-0.868019512 37.5534279,-0.921407317 29.4852861,2.73572927 C21.4178655,-0.921407317 12.222665,-0.868019512 4.19015403,2.9026561 C3.88635452,3.04497561 3.69319804,3.34961707 3.69319804,3.68404634 L3.69319804,6.50424634 L2.71212469,6.50424634 C1.21664059,6.50424634 0,7.71777561 0,9.2096122 L0,39.6018073 C0,41.0936439 1.21664059,42.3071732 2.71212469,42.3071732 L56.2591687,42.3071732 C57.7546528,42.3071732 58.9712934,41.0936439 58.9712934,39.6018073 L58.9712934,9.2096122 C58.9712934,7.71777561 57.7546528,6.50424634 56.2591687,6.50424634 L56.2591687,6.50424634 Z M30.3508117,19.3378976 L30.3508117,4.23778293 C37.7529315,0.933063415 46.1456455,0.933063415 53.547044,4.23778293 L53.547044,7.36420732 L53.547044,7.36766098 L53.547044,7.37097073 L53.547044,35.5112366 C49.8268704,33.9614073 45.8875746,33.1867805 41.9492885,33.1867805 C38.0104254,33.1867805 34.0711296,33.9614073 30.3508117,35.5112366 L30.3508117,19.3378976 Z M24.8117359,2.85315366 C26.1026675,3.22197561 27.3755672,3.6817439 28.6197604,4.23778293 L28.6197604,17.7274854 L27.1958264,16.7803195 C26.905154,16.5869146 26.5264866,16.5869146 26.2356699,16.7803195 L24.8117359,17.7274854 L24.8117359,2.85315366 Z M5.42424939,7.36981951 L5.42424939,7.36766098 L5.42424939,7.36535854 L5.42424939,4.23778293 C11.0280954,1.73517561 17.2005917,1.12920244 23.0806846,2.41640976 L23.0806846,6.19888537 C19.9916235,5.56485122 16.839956,5.41879024 13.6952127,5.76717805 C13.2201834,5.81955854 12.8775795,6.24680488 12.9305208,6.72053171 C12.9834621,7.19440244 13.410599,7.53617073 13.8862054,7.48335854 C16.9684866,7.14159024 20.0581247,7.30348049 23.0806846,7.96284146 L23.0806846,13.5678415 C21.2443276,13.1916805 19.3717628,12.9843171 17.4976112,12.9551049 C17.0191198,12.946039 16.6264597,13.3278122 16.6185257,13.8044171 C16.6111687,14.2811659 16.9921443,14.6740195 17.4699144,14.6813585 C19.3548851,14.7111463 21.2385575,14.9303098 23.0806846,15.3316537 L23.0806846,17.2495854 C18.0734743,16.2238488 12.8797433,16.4846 7.99139853,18.0168732 C7.53555501,18.1597683 7.28195599,18.6442878 7.42520049,19.0995951 C7.54175795,19.4682732 7.88277506,19.7044171 8.25062347,19.7044171 C8.33688753,19.7044171 8.42416137,19.6914659 8.51042543,19.6639805 C13.2314352,18.1845195 18.2537922,17.9634854 23.0806846,19.0152683 L23.0806846,19.3402 C23.0806846,19.6589439 23.2559535,19.9512098 23.5376822,20.1013 C23.8188337,20.2519659 24.1602836,20.2351293 24.4262885,20.058561 L26.7157482,18.5357854 L28.6197604,19.8022707 L28.6197604,35.5112366 C24.8995868,33.9614073 20.960291,33.1863488 17.0220049,33.1863488 C13.0831418,33.1863488 9.14384597,33.9614073 5.42367237,35.5112366 L5.42367237,7.36981951 L5.42424939,7.36981951 Z M25.8502225,40.5803439 L2.71212469,40.5803439 C2.17117115,40.5803439 1.73105134,40.1414415 1.73105134,39.6018073 L1.73105134,9.2096122 C1.73105134,8.66997805 2.17117115,8.23107561 2.71212469,8.23107561 L3.69319804,8.23107561 L3.69319804,37.7602878 C3.69319804,38.2368927 4.08023227,38.6237024 4.55872372,38.6237024 L25.8502225,38.6237024 L25.8502225,40.5803439 Z M6.6114621,36.8968732 C13.316401,34.2565512 20.7276088,34.2559756 27.4325477,36.8968732 L6.6114621,36.8968732 Z M27.5812738,40.5803439 L31.3900196,40.5803439 L31.3900196,38.6237024 L27.5812738,38.6237024 L27.5812738,40.5803439 Z M52.3598313,36.8968732 L31.5387457,36.8968732 C38.2431076,34.2565512 45.6547482,34.2565512 52.3598313,36.8968732 L52.3598313,36.8968732 Z M57.2402421,39.6018073 C57.2402421,40.1414415 56.8001222,40.5803439 56.2591687,40.5803439 L33.1210709,40.5803439 L33.1210709,38.6237024 L54.4125697,38.6237024 C54.8904841,38.6237024 55.2780954,38.2368927 55.2780954,37.7602878 L55.2780954,8.23107561 L56.2591687,8.23107561 C56.8001222,8.23107561 57.2402421,8.66997805 57.2402421,9.2096122 L57.2402421,39.6018073 Z" id="Fill-1"></path>
                <path d="M35.7705892,28.336261 C34.8125966,28.5370049 33.8530171,28.7865317 32.9192592,29.0793732 C32.4628386,29.2222683 32.2092396,29.7073634 32.3529169,30.1620951 C32.4690416,30.5307732 32.8099144,30.7669171 33.1784841,30.7669171 C33.2641711,30.7669171 33.351445,30.7539659 33.437709,30.7270561 C34.3183814,30.4510512 35.2222787,30.2154829 36.125599,30.0266829 C36.5932714,29.9288293 36.8930318,29.4712195 36.7949389,29.0041122 C36.6969902,28.5375805 36.2376846,28.2385512 35.7705892,28.336261 L35.7705892,28.336261 Z" id="Fill-3"></path>
                <path d="M50.7200929,30.7669171 C51.0879413,30.7669171 51.4295355,30.5307732 51.5455159,30.1620951 C51.6886161,29.7067878 51.4351614,29.2222683 50.9791736,29.0793732 C47.2776088,27.9192317 43.4403007,27.4857976 39.5724108,27.7915902 C39.0957946,27.8287171 38.7402078,28.244739 38.7778582,28.7201927 C38.8150758,29.1957902 39.2321149,29.5505098 39.7088753,29.5128073 C43.3546137,29.2250024 46.9716455,29.6336854 50.460291,30.7270561 C50.5464108,30.7539659 50.6338289,30.7669171 50.7200929,30.7669171 L50.7200929,30.7669171 Z" id="Fill-4"></path>
                <path d="M33.1784841,27.072078 C33.2641711,27.072078 33.351445,27.0591268 33.437709,27.0322171 C39.0060685,25.2874 44.8923643,25.2874 50.460291,27.0322171 C50.9167115,27.1749683 51.4024156,26.9219878 51.5455159,26.4672561 C51.6886161,26.0125244 51.4351614,25.5280049 50.9791736,25.384678 C45.0715281,23.5335171 38.8263276,23.5335171 32.9192592,25.384678 C32.4628386,25.5280049 32.2092396,26.0125244 32.3529169,26.4672561 C32.4690416,26.836078 32.8099144,27.072078 33.1784841,27.072078 L33.1784841,27.072078 Z" id="Fill-5"></path>
                <path d="M33.1784841,23.3986805 C33.2641711,23.3986805 33.351445,23.3857293 33.437709,23.3588195 C36.6320758,22.3576902 39.9477604,21.9298683 43.2931614,22.0883049 C43.7716528,22.110322 44.1761418,21.7432268 44.1987897,21.266622 C44.2212934,20.7904488 43.8527237,20.3862268 43.3755306,20.3632024 C39.8260098,20.1957 36.3080807,20.6492805 32.9192592,21.7111366 C32.4628386,21.8544634 32.2092396,22.3391268 32.3529169,22.7938585 C32.4690416,23.1631122 32.8099144,23.3986805 33.1784841,23.3986805 L33.1784841,23.3986805 Z" id="Fill-6"></path>
                <path d="M50.9791736,21.7117122 C49.7372885,21.3221683 48.4581858,21.0107634 47.176198,20.7854122 C46.7056406,20.7028122 46.257154,21.0163756 46.1737751,21.486361 C46.0909731,21.9557707 46.4053032,22.403739 46.8758606,22.486339 C48.0839902,22.6988829 49.289956,22.9923 50.460291,23.3592512 C50.5464108,23.3863049 50.6338289,23.3992561 50.7200929,23.3992561 C51.0879413,23.3992561 51.4295355,23.1631122 51.5455159,22.7944341 C51.6886161,22.3391268 51.4351614,21.8544634 50.9791736,21.7117122 L50.9791736,21.7117122 Z" id="Fill-7"></path>
                <path d="M33.1784841,19.7044171 C33.2641711,19.7044171 33.351445,19.6914659 33.437709,19.6645561 C39.0060685,17.9191634 44.8923643,17.9191634 50.460291,19.6645561 C50.9167115,19.8073073 51.4024156,19.5543268 51.5455159,19.0995951 C51.6886161,18.6448634 51.4351614,18.1597683 50.9791736,18.0168732 C45.0715281,16.1652805 38.8263276,16.1652805 32.9192592,18.0168732 C32.4628386,18.1597683 32.2092396,18.6448634 32.3529169,19.0995951 C32.4690416,19.4682732 32.8099144,19.7044171 33.1784841,19.7044171 L33.1784841,19.7044171 Z" id="Fill-8"></path>
                <path d="M38.6229291,13.1349829 C36.6917971,13.3491098 34.7732152,13.7521805 32.9192592,14.3328268 C32.4628386,14.4761537 32.2092396,14.9606732 32.3529169,15.4154049 C32.4690416,15.7842268 32.8099144,16.0202268 33.1784841,16.0202268 C33.2641711,16.0202268 33.351445,16.0074195 33.437709,15.9803659 C35.1850611,15.4328171 36.9938655,15.0529146 38.8139218,14.8510195 C39.2889511,14.7987829 39.631555,14.3715366 39.5786137,13.8976659 C39.5256724,13.423939 39.0973814,13.0821707 38.6229291,13.1349829 L38.6229291,13.1349829 Z" id="Fill-9"></path>
                <path d="M42.3977751,14.6819341 C45.1358655,14.7246732 47.848423,15.1619927 50.460291,15.9803659 C50.5464108,16.0074195 50.6338289,16.0202268 50.7200929,16.0202268 C51.0879413,16.0202268 51.4295355,15.7842268 51.5455159,15.4154049 C51.6886161,14.9606732 51.4351614,14.4761537 50.9791736,14.3334024 C48.2080489,13.4643756 45.329599,13.0011537 42.4248949,12.9551049 C41.9487115,12.946039 41.5537433,13.3278122 41.5458093,13.8049927 C41.5384523,14.2815976 41.9194279,14.6740195 42.3977751,14.6819341 L42.3977751,14.6819341 Z" id="Fill-10"></path>
                <path d="M45.084511,11.1781976 C45.5595403,11.2310098 45.9878313,10.8892415 46.0407726,10.4153707 C46.0931369,9.9415 45.75111,9.51439756 45.2760807,9.46201707 C41.0921296,8.99836341 36.9347213,9.40129024 32.9192592,10.659861 C32.4628386,10.8027561 32.2092396,11.2872756 32.3529169,11.7425829 C32.4690416,12.111261 32.8099144,12.3474049 33.1784841,12.3474049 C33.2641711,12.3474049 33.351445,12.3344537 33.437709,12.3075439 C37.2226528,11.1209244 41.141176,10.7414537 45.084511,11.1781976 L45.084511,11.1781976 Z" id="Fill-11"></path>
                <path d="M50.9791736,10.659861 C50.353687,10.463722 49.7142078,10.2861463 49.0786235,10.1315951 C48.6131149,10.0184878 48.1454425,10.3029829 48.03278,10.7662049 C47.9195403,11.2294268 48.2040098,11.6965341 48.6683643,11.8094976 C49.2684621,11.9549829 49.870868,12.1226293 50.460291,12.3075439 C50.5464108,12.3344537 50.6338289,12.3474049 50.7200929,12.3474049 C51.0879413,12.3474049 51.4295355,12.111261 51.5455159,11.7425829 C51.6886161,11.2872756 51.4351614,10.8027561 50.9791736,10.659861 L50.9791736,10.659861 Z" id="Fill-12"></path>
                <path d="M33.1784841,8.65256585 C33.2641711,8.65256585 33.351445,8.63961463 33.437709,8.61270488 C34.026555,8.42836585 34.6295379,8.26086341 35.2290587,8.11523415 C35.6934132,8.00227073 35.9784597,7.53516341 35.86522,7.07194146 C35.7519804,6.6081439 35.2837311,6.32436829 34.8193765,6.43733171 C34.1832152,6.59188293 33.5435917,6.76945854 32.9186822,6.96516585 C32.4628386,7.10849268 32.2092396,7.5930122 32.3523399,8.0477439 C32.4690416,8.41656585 32.8099144,8.65256585 33.1784841,8.65256585 L33.1784841,8.65256585 Z" id="Fill-13"></path>
                <path d="M38.8133447,7.48335854 C42.7572567,7.04661463 46.6752029,7.42666098 50.460291,8.61270488 C50.5464108,8.63961463 50.6338289,8.65256585 50.7200929,8.65256585 C51.0879413,8.65256585 51.4295355,8.41656585 51.5455159,8.0477439 C51.6886161,7.5930122 51.4351614,7.10849268 50.9791736,6.96516585 C46.9637115,5.70659512 42.8057262,5.30352439 38.6223521,5.76717805 C38.1473227,5.82013415 37.8047188,6.24680488 37.8578044,6.72053171 C37.9107457,7.19440244 38.3384597,7.53617073 38.8133447,7.48335854 L38.8133447,7.48335854 Z" id="Fill-14"></path>
                <path d="M10.8433056,28.336261 C9.88531296,28.5370049 8.9257335,28.7865317 7.99197555,29.0793732 C7.53555501,29.2222683 7.28253301,29.7073634 7.42577751,30.1620951 C7.54175795,30.5307732 7.88320782,30.7669171 8.25120049,30.7669171 C8.33688753,30.7669171 8.42416137,30.7539659 8.51100244,30.7270561 C9.39124205,30.4510512 10.2955721,30.2154829 11.1983154,30.0266829 C11.6659878,29.9288293 11.9657482,29.4712195 11.8677995,29.0041122 C11.7697066,28.5375805 11.310978,28.2385512 10.8433056,28.336261 L10.8433056,28.336261 Z" id="Fill-15"></path>
                <path d="M25.7928093,30.7669171 C26.160802,30.7669171 26.5022518,30.5307732 26.6182323,30.1620951 C26.7614768,29.7067878 26.5078778,29.2222683 26.0520342,29.0793732 C22.3509022,27.9192317 18.5124401,27.4857976 14.6451271,27.7915902 C14.168511,27.8287171 13.8129242,28.244739 13.8507188,28.7201927 C13.8883692,29.1957902 14.3048313,29.5505098 14.7815917,29.5128073 C18.4273301,29.2250024 22.0443619,29.6336854 25.5330073,30.7270561 C25.6198484,30.7539659 25.7071222,30.7669171 25.7928093,30.7669171 L25.7928093,30.7669171 Z" id="Fill-16"></path>
                <path d="M8.25120049,27.072078 C8.33688753,27.072078 8.42416137,27.0591268 8.51100244,27.0322171 C14.0789291,25.2874 19.9650807,25.2874 25.5330073,27.0322171 C25.9894279,27.1749683 26.475132,26.9219878 26.6182323,26.4672561 C26.7614768,26.0125244 26.5078778,25.5280049 26.0520342,25.384678 C20.1443888,23.5335171 13.8991883,23.5335171 7.99197555,25.384678 C7.53555501,25.5280049 7.28195599,26.0125244 7.42577751,26.4672561 C7.54175795,26.836078 7.88320782,27.072078 8.25120049,27.072078 L8.25120049,27.072078 Z" id="Fill-17"></path>
                <path d="M8.25120049,23.3986805 C8.33688753,23.3986805 8.42416137,23.3857293 8.51100244,23.3588195 C11.7055134,22.3576902 15.0210538,21.9298683 18.3658778,22.0883049 C18.8461002,22.110322 19.2490024,21.7432268 19.2715061,21.266622 C19.2945868,20.7904488 18.9254401,20.3862268 18.4482469,20.3632024 C14.8987262,20.1957 11.3813741,20.6492805 7.99197555,21.7111366 C7.53555501,21.8544634 7.28195599,22.3391268 7.42577751,22.7938585 C7.54175795,23.1631122 7.88320782,23.3986805 8.25120049,23.3986805 L8.25120049,23.3986805 Z" id="Fill-18"></path>
                <path d="M21.949154,22.486339 C23.1567066,22.6988829 24.3632494,22.9923 25.5330073,23.3592512 C25.6198484,23.3863049 25.7071222,23.3992561 25.7928093,23.3992561 C26.160802,23.3992561 26.5022518,23.1631122 26.6182323,22.7944341 C26.7614768,22.3391268 26.5078778,21.8544634 26.0520342,21.7117122 C24.8105819,21.3227439 23.5309022,21.0107634 22.2494914,20.7859878 C21.7785012,20.7028122 21.3298704,21.0163756 21.2464914,21.486361 C21.1636895,21.9557707 21.4781638,22.403739 21.949154,22.486339 L21.949154,22.486339 Z" id="Fill-19"></path>
                <path d="M13.6956455,13.1349829 C11.7652347,13.3491098 9.84593154,13.7521805 7.99197555,14.3328268 C7.53555501,14.4761537 7.28253301,14.9606732 7.42577751,15.4154049 C7.54175795,15.7842268 7.88320782,16.0202268 8.25120049,16.0202268 C8.33688753,16.0202268 8.42416137,16.0074195 8.51100244,15.9803659 C10.2577775,15.4328171 12.0671589,15.0529146 13.8867824,14.8510195 C14.3618117,14.7987829 14.7044156,14.3715366 14.6513301,13.8976659 C14.5989658,13.423939 14.1700978,13.0821707 13.6956455,13.1349829 L13.6956455,13.1349829 Z" id="Fill-20"></path>
                <path d="M7.42577751,11.7425829 C7.54175795,12.111261 7.88320782,12.3474049 8.25120049,12.3474049 C8.33688753,12.3474049 8.42416137,12.3344537 8.51100244,12.3075439 C12.2953692,11.1209244 16.2138924,10.740878 20.1578044,11.1781976 C20.6328337,11.2310098 21.0605477,10.8892415 21.113489,10.4153707 C21.1664303,9.94092439 20.8238264,9.51439756 20.3487971,9.46144146 C16.1649902,8.99836341 12.0074377,9.40129024 7.99197555,10.659861 C7.53555501,10.8027561 7.28253301,11.2872756 7.42577751,11.7425829 L7.42577751,11.7425829 Z" id="Fill-21"></path>
                <path d="M8.25120049,8.65256585 C8.33688753,8.65256585 8.42416137,8.63961463 8.51100244,8.61270488 C9.09984841,8.42836585 9.70225428,8.26086341 10.3017751,8.11523415 C10.7661296,8.00227073 11.051176,7.53516341 10.9379364,7.07194146 C10.8246968,6.6081439 10.3564474,6.32436829 9.89209291,6.43733171 C9.25593154,6.59188293 8.61688509,6.76945854 7.99197555,6.96516585 C7.53555501,7.10849268 7.28195599,7.5930122 7.42577751,8.0477439 C7.54175795,8.41656585 7.88320782,8.65256585 8.25120049,8.65256585 L8.25120049,8.65256585 Z" id="Fill-22"></path>
            </g>
        </g>
    </g>
</svg>