<?xml version="1.0" encoding="UTF-8" standalone="no"?>
<svg width="78px" height="48px" viewBox="0 0 78 48" version="1.1" xmlns="http://www.w3.org/2000/svg" xmlns:xlink="http://www.w3.org/1999/xlink">
    <!-- Generator: Sketch 3.8.3 (29802) - http://www.bohemiancoding.com/sketch -->
    <title>Group 15</title>
    <desc>Created with Sketch.</desc>
    <defs></defs>
    <g id="Page-1" stroke="none" stroke-width="1" fill="none" fill-rule="evenodd">
        <g id="Лендинг" transform="translate(-601.000000, -3461.000000)">
            <g id="Group-15" transform="translate(601.000000, 3461.000000)">
                <g id="Group-12">
                    <g id="truck" fill="#000000">
                        <path d="M22.789876,34.6593247 C20.6111321,34.6593247 18.8381563,36.4118442 18.8381563,38.566026 C18.8381563,40.7202078 20.6111321,42.4727273 22.789876,42.4727273 C24.9696712,42.4727273 26.7426469,40.7202078 26.7426469,38.566026 C26.7426469,36.4118442 24.9696712,34.6593247 22.789876,34.6593247 L22.789876,34.6593247 Z M22.789876,39.9792208 C22.0023073,39.9792208 21.3610674,39.3452468 21.3610674,38.566026 C21.3610674,37.7868052 22.0023073,37.1528312 22.789876,37.1528312 C23.5782857,37.1528312 24.2197358,37.7868052 24.2197358,38.566026 C24.2197358,39.3452468 23.5782857,39.9792208 22.789876,39.9792208 L22.789876,39.9792208 Z" id="Fill-1"></path>
                        <path d="M60.4661887,34.6593247 C58.2863935,34.6593247 56.5134178,36.4118442 56.5134178,38.566026 C56.5134178,40.7202078 58.2863935,42.4727273 60.4661887,42.4727273 C62.6449326,42.4727273 64.4179084,40.7202078 64.4179084,38.566026 C64.4179084,36.4118442 62.6449326,34.6593247 60.4661887,34.6593247 L60.4661887,34.6593247 Z M60.4661887,39.9792208 C59.677779,39.9792208 59.0363288,39.3452468 59.0363288,38.566026 C59.0363288,37.7868052 59.677779,37.1528312 60.4661887,37.1528312 C61.2537574,37.1528312 61.8949973,37.7868052 61.8949973,38.566026 C61.8949973,39.3452468 61.2537574,39.9792208 60.4661887,39.9792208 L60.4661887,39.9792208 Z" id="Fill-2"></path>
                        <path d="M76.5283019,22.7162597 C76.5283019,21.5547013 76.2154609,20.411013 75.6232075,19.4077922 L68.4955633,7.32987013 C67.3095849,5.32093506 65.1102372,4.07251948 62.7565714,4.07251948 L53.7384259,4.07251948 C52.3003666,4.07251948 51.1307871,5.22846753 51.1307871,6.64976623 L51.1307871,29.3404675 L48.2721186,29.3404675 L48.2721186,3.98981818 C48.2721186,1.83563636 46.4989326,0.0831168831 44.3193477,0.0831168831 L3.95277089,0.0831168831 C1.77318598,0.0831168831 0,1.83563636 0,3.98981818 L0,35.9060779 C0,38.0604675 1.77318598,39.8127792 3.95277089,39.8127792 L13.543407,39.8127792 C14.1608895,44.3127273 18.0709811,47.7926234 22.789876,47.7926234 C27.5098221,47.7926234 31.4197035,44.3127273 32.0373962,39.8127792 L51.2186685,39.8127792 C51.8363612,44.3127273 55.7462426,47.7926234 60.4653477,47.7926234 C65.1850836,47.7926234 69.0951752,44.3127273 69.7126577,39.8127792 L75.2668464,39.8127792 C76.7040647,39.8127792 77.873434,38.657039 77.873434,37.2365714 L77.873434,34.5766234 C77.873434,33.6083117 77.3297466,32.7632208 76.5283019,32.3233247 L76.5283019,22.7162597 Z M74.0053908,22.7162597 L74.0053908,24.0205714 L71.5564852,24.0205714 C70.8155903,24.0205714 70.1184259,23.7356883 69.5945013,23.217039 L67.9222318,21.5644675 C66.9221078,20.5757922 65.5908518,20.0311688 64.1757089,20.0311688 L53.6536981,20.0311688 L53.6536981,11.8859221 L68.2632453,11.8859221 L73.4444636,20.6634805 C73.8115472,21.286026 74.0053908,21.9954286 74.0053908,22.7162597 L74.0053908,22.7162597 Z M48.2721186,31.833974 L51.1307871,31.833974 L51.1307871,37.3192727 L48.2721186,37.3192727 L48.2721186,31.833974 Z M2.52291105,26.5140779 L5.38263073,26.5140779 L5.38263073,30.5872208 C5.38263073,31.3664416 4.74118059,32.0004156 3.95277089,32.0004156 L2.52291105,32.0004156 L2.52291105,26.5140779 Z M22.789876,45.2991169 C19.0359946,45.2991169 15.9809596,42.2803117 15.9784367,38.571013 L15.9784367,38.566026 L15.9784367,38.5620779 C15.9809596,34.8517403 19.0359946,31.833974 22.789876,31.833974 C26.5464906,31.833974 29.6023666,34.8542338 29.6023666,38.566026 C29.6023666,42.2786494 26.5464906,45.2991169 22.789876,45.2991169 L22.789876,45.2991169 Z M60.4661887,45.2991169 C56.7095741,45.2991169 53.6536981,42.2786494 53.6536981,38.566026 C53.6536981,34.8542338 56.7095741,31.833974 60.4661887,31.833974 C64.221752,31.833974 67.277628,34.8542338 67.277628,38.566026 C67.277628,42.2786494 64.221752,45.2991169 60.4661887,45.2991169 L60.4661887,45.2991169 Z M75.3505229,37.2365714 C75.3505229,37.2820779 75.3137305,37.3192727 75.2668464,37.3192727 L72.4918544,37.3192727 L72.4918544,34.5766234 C72.4918544,34.5302857 72.5294879,34.4939221 72.575531,34.4939221 L75.2668464,34.4939221 C75.3137305,34.4939221 75.3505229,34.5302857 75.3505229,34.5766234 L75.3505229,37.2365714 Z" id="Fill-3"></path>
                    </g>
                    <path d="M2.52291105,35.9060779 L2.52291105,34.4939221 L3.95277089,34.4939221 C6.1323558,34.4939221 7.90554178,32.7414026 7.90554178,30.5872208 L7.90554178,25.2673247 C7.90554178,24.5791169 7.3404097,24.0205714 6.64408625,24.0205714 L2.52291105,24.0205714 L2.52291105,3.98981818 C2.52291105,3.2105974 3.16436119,2.57662338 3.95277089,2.57662338 L44.3193477,2.57662338 C45.1077574,2.57662338 45.7492075,3.2105974 45.7492075,3.98981818 L45.7492075,37.3192727 L32.0373962,37.3192727 C31.4188625,32.8201558 27.5098221,29.3404675 22.789876,29.3404675 C18.0709811,29.3404675 14.1608895,32.8201558 13.543407,37.3192727 L3.95277089,37.3192727 C3.16436119,37.3192727 2.52291105,36.6852987 2.52291105,35.9060779 L2.52291105,35.9060779 Z" id="Path" fill="#A2DAF7"></path>
                    <path d="M72.575531,32.0004156 C71.1383127,32.0004156 69.9689434,33.1561558 69.9689434,34.5766234 L69.9689434,37.3192727 L69.7126577,37.3192727 C69.0951752,32.8201558 65.1850836,29.3404675 60.4661887,29.3404675 C57.7805499,29.3404675 55.3587655,30.4679481 53.6536981,32.2674286 L53.6536981,22.5246753 L64.1757089,22.5246753 C64.9172345,22.5246753 65.6146092,22.8095584 66.1385337,23.3282078 L67.810593,24.9807792 C68.8109272,25.9694545 70.1413423,26.5140779 71.5564852,26.5140779 L74.0053908,26.5140779 L74.0053908,32.0004156 L72.575531,32.0004156 Z" id="Path" fill="#A2DAF7"></path>
                    <path d="M53.7384259,6.56602597 L62.7565714,6.56602597 C64.2167062,6.56602597 65.5801294,7.34046753 66.3159784,8.58722078 L66.7915472,9.39241558 L53.6536981,9.39241558 L53.6536981,6.64976623 C53.6536981,6.60342857 53.6915418,6.56602597 53.7384259,6.56602597 L53.7384259,6.56602597 Z" id="Path" fill="#A2DAF7"></path>
                </g>
                <path d="M35.8915633,15.8753247 L31.3171051,20.3964675 C30.8242965,20.8835325 30.8242965,21.6723117 31.3171051,22.1593766 C31.5635094,22.4029091 31.8862318,22.5246753 32.2089542,22.5246753 C32.5316765,22.5246753 32.8546092,22.4029091 33.1008032,22.1593766 L39.828566,15.510026 C39.8540054,15.4857143 39.8771321,15.4589091 39.8992075,15.4329351 C39.9034124,15.4281558 39.907407,15.424 39.9116119,15.4192208 C39.9477736,15.3762078 39.9788895,15.3307013 40.0085337,15.2843636 C40.0142102,15.2754286 40.020097,15.2656623 40.0257736,15.2561039 C40.0537358,15.2072727 40.0800162,15.1586494 40.1012507,15.1075325 L40.1020916,15.1058701 L40.1020916,15.105039 C40.1243774,15.0522597 40.1416173,14.9986494 40.1563342,14.9435844 C40.1588571,14.9321558 40.1620108,14.9215584 40.1645337,14.9101299 C40.176938,14.8567273 40.1874501,14.8022857 40.192496,14.747013 L40.192496,14.7447273 C40.1981725,14.6919481 40.1981725,14.6383377 40.1964906,14.5855584 C40.1958598,14.5724675 40.1958598,14.5595844 40.1941779,14.5464935 C40.190814,14.4930909 40.1851375,14.4394805 40.1744151,14.3858701 C40.1744151,14.385039 40.1735741,14.3833766 40.1735741,14.3825455 C40.1628518,14.3297662 40.1481348,14.2778182 40.1300539,14.2275325 C40.12669,14.2171429 40.1235364,14.2073766 40.1193315,14.1967792 C40.0816981,14.0945455 40.0291375,13.9970909 39.9633315,13.9054545 C39.9551321,13.8948571 39.9477736,13.8850909 39.9404151,13.8744935 C39.9059353,13.8306494 39.8697736,13.7876364 39.828566,13.7471169 L33.1008032,7.09776623 C32.6090458,6.6107013 31.8099137,6.6107013 31.3171051,7.09776623 C30.8242965,7.58483117 30.8242965,8.37361039 31.3171051,8.86067532 L35.8915633,13.3818182 L9.3343504,13.3818182 C8.63802695,13.3818182 8.07289488,13.9401558 8.07289488,14.6285714 C8.07289488,15.3167792 8.63802695,15.8753247 9.3343504,15.8753247 L35.8915633,15.8753247 Z" id="Fill-4" fill="#000000"></path>
            </g>
        </g>
    </g>
</svg>