<?xml version="1.0" encoding="UTF-8" standalone="no"?>
<svg width="45px" height="45px" viewBox="0 0 45 45" version="1.1" xmlns="http://www.w3.org/2000/svg" xmlns:xlink="http://www.w3.org/1999/xlink">
    <!-- Generator: Sketch 3.8.3 (29802) - http://www.bohemiancoding.com/sketch -->
    <title>download-1</title>
    <desc>Created with Sketch.</desc>
    <defs></defs>
    <g id="Page-1" stroke="none" stroke-width="1" fill="none" fill-rule="evenodd">
        <g id="Лендинг" transform="translate(-113.000000, -4496.000000)" fill="#79B7F5">
            <path d="M135.503196,4496 C123.023012,4496 113,4505.99857 113,4518.44831 C113,4530.89168 123.023012,4540.89024 135.503196,4540.89024 C147.976988,4540.89024 158,4530.89168 158,4518.44831 C158,4505.99857 147.976988,4496 135.503196,4496 L135.503196,4496 Z M128.645615,4514.67207 L130.078752,4513.24242 C130.284582,4513.0371 130.489133,4512.93762 130.798517,4512.93762 C131.102787,4512.93762 131.307338,4513.0371 131.51189,4513.24242 L132.535924,4514.26269 C132.841473,4514.56749 133.455127,4514.36216 133.455127,4513.85458 L133.455127,4507.22416 C133.455127,4506.61072 133.864229,4506.20262 134.479161,4506.20262 L136.520839,4506.20262 C137.135771,4506.20262 137.544873,4506.61072 137.544873,4507.22416 L137.544873,4513.95406 C137.544873,4514.36216 138.060087,4514.67207 138.469189,4514.36216 L139.48811,4513.347 C139.692662,4513.14167 139.897213,4513.0371 140.206597,4513.0371 C140.512145,4513.0371 140.716696,4513.14167 140.921248,4513.347 L142.354385,4514.77154 C142.558936,4514.97559 142.658655,4515.17965 142.658655,4515.48828 C142.658655,4515.79308 142.558936,4515.99713 142.354385,4516.20118 L136.216569,4522.32403 C136.012017,4522.52808 135.707747,4522.62756 135.503196,4522.62756 C135.297366,4522.62756 134.987983,4522.52808 134.783431,4522.32403 L128.645615,4516.20118 C128.441064,4515.99713 128.341345,4515.79308 128.341345,4515.48828 C128.341345,4515.08017 128.441064,4514.87612 128.645615,4514.67207 L128.645615,4514.67207 Z M148.796471,4529.66609 C148.796471,4530.27952 148.387369,4530.68763 147.772437,4530.68763 L123.227563,4530.68763 C122.613909,4530.68763 122.203529,4530.27952 122.203529,4529.66609 L122.203529,4523.54962 C122.203529,4522.93619 122.613909,4522.52808 123.227563,4522.52808 L125.275633,4522.52808 C125.884173,4522.52808 126.293275,4522.93619 126.293275,4523.54962 L126.293275,4526.10027 C126.293275,4526.4038 126.499105,4526.60785 126.808489,4526.60785 L144.191511,4526.60785 C144.502173,4526.60785 144.706725,4526.4038 144.706725,4526.10027 L144.706725,4523.54962 C144.706725,4522.93619 145.115827,4522.52808 145.730759,4522.52808 L147.772437,4522.52808 C148.387369,4522.52808 148.796471,4522.93619 148.796471,4523.54962 L148.796471,4529.66609 Z" id="download-1"></path>
        </g>
    </g>
</svg>