<?xml version="1.0" encoding="UTF-8" standalone="no"?>
<svg width="43px" height="44px" viewBox="0 0 43 44" version="1.1" xmlns="http://www.w3.org/2000/svg" xmlns:xlink="http://www.w3.org/1999/xlink">
    <!-- Generator: Sketch 3.8.3 (29802) - http://www.bohemiancoding.com/sketch -->
    <title>facebook-logo-button</title>
    <desc>Created with Sketch.</desc>
    <defs>
        <polygon id="path-1" points="0.0644601227 0.301307927 42.9734151 0.301307927 42.9734151 43.6549665 0.0644601227 43.6549665"></polygon>
    </defs>
    <g id="Page-1" stroke="none" stroke-width="1" fill="none" fill-rule="evenodd">
        <g id="Лендинг" transform="translate(-1182.000000, -4492.000000)">
            <g id="Group-18" transform="translate(959.000000, 4492.000000)">
                <g id="facebook-logo-button" transform="translate(223.026585, 0.000000)">
                    <mask id="mask-2" fill="white">
                        <use xlink:href="#path-1"></use>
                    </mask>
                    <g id="Clip-2"></g>
                    <path d="M21.3352263,0.301307927 C9.57232822,0.301307927 0,9.95941921 0,21.8263994 C0,33.6977149 9.57232822,43.3547424 21.3352263,43.3547424 C33.1024217,43.3547424 42.6758242,33.6977149 42.6758242,21.8263994 C42.6758242,9.95941921 33.1024217,0.301307927 21.3352263,0.301307927 L21.3352263,0.301307927 Z M26.6445917,22.5840046 L23.1734141,22.5840046 L23.1734141,35.0698582 L18.028422,35.0698582 L18.028422,22.5840046 L15.5821603,22.5840046 L15.5821603,18.1727698 L18.028422,18.1727698 L18.028422,15.3190152 C18.028422,13.2781418 18.9899521,10.0818933 23.2196105,10.0818933 L27.0302781,10.0981509 L27.0302781,14.3793247 L24.2649389,14.3793247 C23.8115693,14.3793247 23.1734141,14.6080152 23.1734141,15.5813049 L23.1734141,18.1771052 L27.0936639,18.1771052 L26.6445917,22.5840046 Z" id="Fill-1" fill="#FFFFFF" mask="url(#mask-2)"></path>
                </g>
            </g>
        </g>
    </g>
</svg>