<?xml version="1.0" encoding="UTF-8" standalone="no"?>
<svg width="62px" height="54px" viewBox="0 0 62 54" version="1.1" xmlns="http://www.w3.org/2000/svg" xmlns:xlink="http://www.w3.org/1999/xlink">
    <!-- Generator: Sketch 3.8.3 (29802) - http://www.bohemiancoding.com/sketch -->
    <title>Group 3</title>
    <desc>Created with Sketch.</desc>
    <defs>
        <polygon id="path-1" points="0.0117031987 0.044509188 61.6368463 0.044509188 61.6368463 53.9768136 0.0117031987 53.9768136"></polygon>
    </defs>
    <g id="Page-1" stroke="none" stroke-width="1" fill="none" fill-rule="evenodd">
        <g id="Лендинг" transform="translate(-662.000000, -1852.000000)">
            <g id="Group-3" transform="translate(662.000000, 1852.000000)">
                <mask id="mask-2" fill="white">
                    <use xlink:href="#path-1"></use>
                </mask>
                <g id="Clip-2"></g>
                <path d="M54.60732,11.3855305 L22.7237107,11.3855305 L22.7237107,8.33825505 C23.3248651,8.17525518 23.7682212,7.61387804 23.7682212,6.9442353 L23.7682212,1.48784993 C23.7682212,0.69049389 23.1397595,0.044509188 22.3640324,0.044509188 L7.32893311,0.044509188 C6.55340115,0.044509188 5.92474433,0.69049389 5.92474433,1.48784993 L5.92474433,6.9442353 C5.92474433,7.61387804 6.36888072,8.17525518 6.96925481,8.33825505 L6.96925481,11.3855305 L6.94877421,11.3855305 C3.11695191,11.3855305 0,14.5893901 0,18.5280522 L0,46.7895822 C0,50.7280438 3.11695191,53.9321039 6.94877421,53.9321039 L54.60732,53.9321039 C58.4383621,53.9321039 61.5560943,50.7280438 61.5560943,46.7895822 L61.5560943,18.5280522 C61.5560943,14.5893901 58.4383621,11.3855305 54.60732,11.3855305 L54.60732,11.3855305 Z M8.7331219,2.93119067 L20.9598437,2.93119067 L20.9598437,5.50069407 L8.7331219,5.50069407 L8.7331219,2.93119067 Z M9.77860765,8.38757604 L19.914553,8.38757604 L19.914553,11.3855305 L9.77860765,11.3855305 L9.77860765,8.38757604 Z M58.7469365,46.7895822 C58.7469365,49.1359382 56.8900289,51.0454224 54.60732,51.0454224 L6.94877421,51.0454224 C4.66606531,51.0454224 2.80837757,49.1359382 2.80837757,46.7895822 L2.80837757,18.5280522 C2.80837757,16.1816962 4.66606531,14.272212 6.94877421,14.272212 L54.60732,14.272212 C56.8900289,14.272212 58.7469365,16.1816962 58.7469365,18.5280522 L58.7469365,46.7895822 Z" id="Fill-1" fill="#000000" mask="url(#mask-2)"></path>
            </g>
        </g>
    </g>
</svg>