<?xml version="1.0" encoding="UTF-8" standalone="no"?>
<svg width="42px" height="53px" viewBox="0 0 42 53" version="1.1" xmlns="http://www.w3.org/2000/svg" xmlns:xlink="http://www.w3.org/1999/xlink">
    <!-- Generator: Sketch 3.8.3 (29802) - http://www.bohemiancoding.com/sketch -->
    <title>Group 37</title>
    <desc>Created with Sketch.</desc>
    <defs>
        <polygon id="path-1" points="0 0.0512830339 0 69.3013418 39.3025823 69.3013418 39.3025823 0.0512830339"></polygon>
    </defs>
    <g id="Page-1" stroke="none" stroke-width="1" fill="none" fill-rule="evenodd">
        <g id="Group-37">
            <g id="Group-21-Copy-3">
                <g id="Page-1-Copy">
                    <g id="Group-3" style="mix-blend-mode: multiply;" transform="translate(11.203467, 18.189900)" fill="#BCB6B1">
                        <path d="M0.638032446,12.2001458 C-1.25951802,17.8945165 1.98882873,22.6580363 8.06234947,23.8584696 C8.83809684,24.0119197 8.61506774,24.5161554 8.47470365,25.2278771 L8.47470384,34.4324272 L13.0264114,25.4723821 C13.3491656,24.7851408 13.5758009,24.0116211 14.4104956,23.8680229 C21.3052572,22.6837108 27.7578442,17.909742 29.6603879,12.2001458 C31.8598876,5.60000184 27.1461786,0.249550405 19.1316944,0.249550405 C11.1173489,0.249550405 2.83739344,5.60000184 0.638032446,12.2001458 Z" id="Fill-1"></path>
                    </g>
                    <g id="Group-6" transform="translate(0.000000, 0.087320)">
                        <mask id="mask-2" fill="white">
                            <use xlink:href="#path-1"></use>
                        </mask>
                        <g id="Clip-5"></g>
                        <path d="M-5.54798762e-05,19.6888873 C-5.54798762e-05,29.0454076 6.5486504,36.873139 15.315303,38.8457339 C16.4350256,39.0977138 16.3604052,39.9262813 16.4914764,41.0956731 L19.6513328,52.5013418 L22.7662504,41.4978984 C22.8928832,40.368147 22.8507185,39.0971594 23.9163482,38.8615347 C32.7186467,36.9152742 39.3025823,29.0707719 39.3025823,19.6888873 C39.3025823,8.84335725 30.5045835,0.0512275928 19.6513328,0.0512275928 C8.79822068,0.0512275928 -5.54798762e-05,8.84335725 -5.54798762e-05,19.6888873 Z" id="Fill-4" fill="#7ED321" mask="url(#mask-2)"></path>
                    </g>
                    <path d="M19.6512773,37.035526 C29.1639955,37.035526 36.9225788,29.2822243 36.9225788,19.7761516 C36.9225788,10.270079 29.1639955,2.51691586 19.6512773,2.51691586 C10.138559,2.51691586 2.37997573,10.270079 2.37997573,19.7761516 C2.37997573,29.2822243 10.138559,37.035526 19.6512773,37.035526" id="Fill-7" fill="#FFFFFF"></path>
                </g>
            </g>
            <g id="factory-copy" transform="translate(7.000000, 10.000000)" fill="#000000">
                <path d="M3.85438005,13.4778305 C3.63119946,13.4778305 3.45006739,13.6600678 3.45006739,13.8846102 L3.45006739,14.3187119 C3.45006739,14.5432542 3.63119946,14.7254915 3.85438005,14.7254915 C4.07762803,14.7254915 4.25869272,14.5432542 4.25869272,14.3187119 L4.25869272,13.8846102 C4.25869272,13.6600678 4.07762803,13.4778305 3.85438005,13.4778305 L3.85438005,13.4778305 Z" id="Fill-1"></path>
                <path d="M3.85438005,15.2135593 C3.63119946,15.2135593 3.45006739,15.3957288 3.45006739,15.620339 L3.45006739,16.0541017 C3.45006739,16.2789831 3.63119946,16.4608814 3.85438005,16.4608814 C4.07762803,16.4608814 4.25869272,16.2789831 4.25869272,16.0541017 L4.25869272,15.620339 C4.25869272,15.3957288 4.07762803,15.2135593 3.85438005,15.2135593 L3.85438005,15.2135593 Z" id="Fill-2"></path>
                <path d="M3.85438005,16.9492881 C3.63119946,16.9492881 3.45006739,17.1311864 3.45006739,17.3560678 L3.45006739,17.7898305 C3.45006739,18.0143729 3.63119946,18.1966102 3.85438005,18.1966102 C4.07762803,18.1966102 4.25869272,18.0143729 4.25869272,17.7898305 L4.25869272,17.3560678 C4.25869272,17.1311864 4.07762803,16.9492881 3.85438005,16.9492881 L3.85438005,16.9492881 Z" id="Fill-3"></path>
                <path d="M5.57958221,13.4778305 C5.35633423,13.4778305 5.17526954,13.6600678 5.17526954,13.8846102 L5.17526954,14.3187119 C5.17526954,14.5432542 5.35633423,14.7254915 5.57958221,14.7254915 C5.8027628,14.7254915 5.98389488,14.5432542 5.98389488,14.3187119 L5.98389488,13.8846102 C5.98389488,13.6600678 5.8027628,13.4778305 5.57958221,13.4778305 L5.57958221,13.4778305 Z" id="Fill-4"></path>
                <path d="M5.57958221,15.2135593 C5.35633423,15.2135593 5.17526954,15.3957288 5.17526954,15.620339 L5.17526954,16.0541017 C5.17526954,16.2789831 5.35633423,16.4608814 5.57958221,16.4608814 C5.8027628,16.4608814 5.98389488,16.2789831 5.98389488,16.0541017 L5.98389488,15.620339 C5.98389488,15.3957288 5.8027628,15.2135593 5.57958221,15.2135593 L5.57958221,15.2135593 Z" id="Fill-5"></path>
                <path d="M5.57958221,16.9492881 C5.35633423,16.9492881 5.17526954,17.1311864 5.17526954,17.3560678 L5.17526954,17.7898305 C5.17526954,18.0143729 5.35633423,18.1966102 5.57958221,18.1966102 C5.8027628,18.1966102 5.98389488,18.0143729 5.98389488,17.7898305 L5.98389488,17.3560678 C5.98389488,17.1311864 5.8027628,16.9492881 5.57958221,16.9492881 L5.57958221,16.9492881 Z" id="Fill-6"></path>
                <path d="M9.0296496,13.4778305 C8.806469,13.4778305 8.62533693,13.6600678 8.62533693,13.8846102 L8.62533693,14.3187119 C8.62533693,14.5432542 8.806469,14.7254915 9.0296496,14.7254915 C9.25283019,14.7254915 9.43396226,14.5432542 9.43396226,14.3187119 L9.43396226,13.8846102 C9.43396226,13.6600678 9.25283019,13.4778305 9.0296496,13.4778305 L9.0296496,13.4778305 Z" id="Fill-7"></path>
                <path d="M9.0296496,15.2135593 C8.806469,15.2135593 8.62533693,15.3957288 8.62533693,15.620339 L8.62533693,16.0541017 C8.62533693,16.2789831 8.806469,16.4608814 9.0296496,16.4608814 C9.25283019,16.4608814 9.43396226,16.2789831 9.43396226,16.0541017 L9.43396226,15.620339 C9.43396226,15.3957288 9.25283019,15.2135593 9.0296496,15.2135593 L9.0296496,15.2135593 Z" id="Fill-8"></path>
                <path d="M9.0296496,16.9492881 C8.806469,16.9492881 8.62533693,17.1311864 8.62533693,17.3560678 L8.62533693,17.7898305 C8.62533693,18.0143729 8.806469,18.1966102 9.0296496,18.1966102 C9.25283019,18.1966102 9.43396226,18.0143729 9.43396226,17.7898305 L9.43396226,17.3560678 C9.43396226,17.1311864 9.25283019,16.9492881 9.0296496,16.9492881 L9.0296496,16.9492881 Z" id="Fill-9"></path>
                <path d="M10.7548518,13.4778305 C10.5313342,13.4778305 10.3505391,13.6600678 10.3505391,13.8846102 L10.3505391,14.3187119 C10.3505391,14.5432542 10.5313342,14.7254915 10.7548518,14.7254915 C10.9780323,14.7254915 11.1591644,14.5432542 11.1591644,14.3187119 L11.1591644,13.8846102 C11.1591644,13.6600678 10.9780323,13.4778305 10.7548518,13.4778305 L10.7548518,13.4778305 Z" id="Fill-10"></path>
                <path d="M10.7548518,15.2135593 C10.5313342,15.2135593 10.3505391,15.3957288 10.3505391,15.620339 L10.3505391,16.0541017 C10.3505391,16.2789831 10.5313342,16.4608814 10.7548518,16.4608814 C10.9780323,16.4608814 11.1591644,16.2789831 11.1591644,16.0541017 L11.1591644,15.620339 C11.1591644,15.3957288 10.9780323,15.2135593 10.7548518,15.2135593 L10.7548518,15.2135593 Z" id="Fill-11"></path>
                <path d="M10.7548518,16.9492881 C10.5313342,16.9492881 10.3505391,17.1311864 10.3505391,17.3560678 L10.3505391,17.7898305 C10.3505391,18.0143729 10.5313342,18.1966102 10.7548518,18.1966102 C10.9780323,18.1966102 11.1591644,18.0143729 11.1591644,17.7898305 L11.1591644,17.3560678 C11.1591644,17.1311864 10.9780323,16.9492881 10.7548518,16.9492881 L10.7548518,16.9492881 Z" id="Fill-12"></path>
                <path d="M14.2049191,13.4778305 C13.9816712,13.4778305 13.8006065,13.6600678 13.8006065,13.8846102 L13.8006065,14.3187119 C13.8006065,14.5432542 13.9816712,14.7254915 14.2049191,14.7254915 C14.4280997,14.7254915 14.6092318,14.5432542 14.6092318,14.3187119 L14.6092318,13.8846102 C14.6092318,13.6600678 14.4280997,13.4778305 14.2049191,13.4778305 L14.2049191,13.4778305 Z" id="Fill-13"></path>
                <path d="M14.2049191,15.2135593 C13.9816712,15.2135593 13.8006065,15.3957288 13.8006065,15.620339 L13.8006065,16.0541017 C13.8006065,16.2789831 13.9816712,16.4608814 14.2049191,16.4608814 C14.4280997,16.4608814 14.6092318,16.2789831 14.6092318,16.0541017 L14.6092318,15.620339 C14.6092318,15.3957288 14.4280997,15.2135593 14.2049191,15.2135593 L14.2049191,15.2135593 Z" id="Fill-14"></path>
                <path d="M14.2049191,16.9492881 C13.9816712,16.9492881 13.8006065,17.1311864 13.8006065,17.3560678 L13.8006065,17.7898305 C13.8006065,18.0143729 13.9816712,18.1966102 14.2049191,18.1966102 C14.4280997,18.1966102 14.6092318,18.0143729 14.6092318,17.7898305 L14.6092318,17.3560678 C14.6092318,17.1311864 14.4280997,16.9492881 14.2049191,16.9492881 L14.2049191,16.9492881 Z" id="Fill-15"></path>
                <path d="M15.9297844,13.4778305 C15.7066038,13.4778305 15.5254717,13.6600678 15.5254717,13.8846102 L15.5254717,14.3187119 C15.5254717,14.5432542 15.7066038,14.7254915 15.9297844,14.7254915 C16.1533019,14.7254915 16.334097,14.5432542 16.334097,14.3187119 L16.334097,13.8846102 C16.334097,13.6600678 16.1533019,13.4778305 15.9297844,13.4778305 L15.9297844,13.4778305 Z" id="Fill-16"></path>
                <path d="M15.9297844,15.2135593 C15.7066038,15.2135593 15.5254717,15.3957288 15.5254717,15.620339 L15.5254717,16.0541017 C15.5254717,16.2789831 15.7066038,16.4608814 15.9297844,16.4608814 C16.1533019,16.4608814 16.334097,16.2789831 16.334097,16.0541017 L16.334097,15.620339 C16.334097,15.3957288 16.1533019,15.2135593 15.9297844,15.2135593 L15.9297844,15.2135593 Z" id="Fill-17"></path>
                <path d="M15.9297844,16.9492881 C15.7066038,16.9492881 15.5254717,17.1311864 15.5254717,17.3560678 L15.5254717,17.7898305 C15.5254717,18.0143729 15.7066038,18.1966102 15.9297844,18.1966102 C16.1533019,18.1966102 16.334097,18.0143729 16.334097,17.7898305 L16.334097,17.3560678 C16.334097,17.1311864 16.1533019,16.9492881 15.9297844,16.9492881 L15.9297844,16.9492881 Z" id="Fill-18"></path>
                <path d="M19.3801887,14.7254915 C19.6033693,14.7254915 19.7845013,14.5432542 19.7845013,14.3187119 L19.7845013,13.8846102 C19.7845013,13.6600678 19.6033693,13.4778305 19.3801887,13.4778305 C19.1566712,13.4778305 18.975876,13.6600678 18.975876,13.8846102 L18.975876,14.3187119 C18.975876,14.5432542 19.1566712,14.7254915 19.3801887,14.7254915 L19.3801887,14.7254915 Z" id="Fill-19"></path>
                <path d="M19.3801887,16.4608814 C19.6033693,16.4608814 19.7845013,16.2789831 19.7845013,16.0541017 L19.7845013,15.620339 C19.7845013,15.3957288 19.6033693,15.2135593 19.3801887,15.2135593 C19.1566712,15.2135593 18.975876,15.3957288 18.975876,15.620339 L18.975876,16.0541017 C18.975876,16.2789831 19.1566712,16.4608814 19.3801887,16.4608814 L19.3801887,16.4608814 Z" id="Fill-20"></path>
                <path d="M19.3801887,18.1966102 C19.6033693,18.1966102 19.7845013,18.0143729 19.7845013,17.7898305 L19.7845013,17.3560678 C19.7845013,17.1311864 19.6033693,16.9492881 19.3801887,16.9492881 C19.1566712,16.9492881 18.975876,17.1311864 18.975876,17.3560678 L18.975876,17.7898305 C18.975876,18.0143729 19.1566712,18.1966102 19.3801887,18.1966102 L19.3801887,18.1966102 Z" id="Fill-21"></path>
                <path d="M21.1050539,14.7254915 C21.3283019,14.7254915 21.5093666,14.5432542 21.5093666,14.3187119 L21.5093666,13.8846102 C21.5093666,13.6600678 21.3283019,13.4778305 21.1050539,13.4778305 C20.8818733,13.4778305 20.7007412,13.6600678 20.7007412,13.8846102 L20.7007412,14.3187119 C20.7007412,14.5432542 20.8818733,14.7254915 21.1050539,14.7254915 L21.1050539,14.7254915 Z" id="Fill-22"></path>
                <path d="M21.1050539,16.4608814 C21.3283019,16.4608814 21.5093666,16.2789831 21.5093666,16.0541017 L21.5093666,15.620339 C21.5093666,15.3957288 21.3283019,15.2135593 21.1050539,15.2135593 C20.8818733,15.2135593 20.7007412,15.3957288 20.7007412,15.620339 L20.7007412,16.0541017 C20.7007412,16.2789831 20.8818733,16.4608814 21.1050539,16.4608814 L21.1050539,16.4608814 Z" id="Fill-23"></path>
                <path d="M21.1050539,18.1966102 C21.3283019,18.1966102 21.5093666,18.0143729 21.5093666,17.7898305 L21.5093666,17.3560678 C21.5093666,17.1311864 21.3283019,16.9492881 21.1050539,16.9492881 C20.8818733,16.9492881 20.7007412,17.1311864 20.7007412,17.3560678 L20.7007412,17.7898305 C20.7007412,18.0143729 20.8818733,18.1966102 21.1050539,18.1966102 L21.1050539,18.1966102 Z" id="Fill-24"></path>
                <path d="M24.5551213,19.1187797 L23.2345687,19.1187797 L23.2345687,10.4134915 C23.2345687,10.2827119 23.1719003,10.1600678 23.0666442,10.0835254 C22.9610512,10.0072542 22.8254717,9.98630508 22.7022911,10.027661 L19.3030323,11.1677288 L18.9366577,0.840677966 L18.9487197,0.840677966 C19.1719677,0.840677966 19.3530323,0.658440678 19.3530323,0.433898305 C19.3530323,0.209288136 19.1719677,0.0271186441 18.9487197,0.0271186441 L16.3612534,0.0271186441 C16.1380054,0.0271186441 15.9569407,0.209288136 15.9569407,0.433898305 C15.9569407,0.658440678 16.1380054,0.840677966 16.3612534,0.840677966 L16.3733154,0.840677966 L16.0295822,10.5297627 L14.1277628,11.1677288 L13.7613881,0.840677966 L13.7734501,0.840677966 C13.9969677,0.840677966 14.1777628,0.658440678 14.1777628,0.433898305 C14.1777628,0.209288136 13.9969677,0.0271186441 13.7734501,0.0271186441 L11.1859838,0.0271186441 C10.9628032,0.0271186441 10.7816712,0.209288136 10.7816712,0.433898305 C10.7816712,0.658440678 10.9628032,0.840677966 11.1859838,0.840677966 L11.1981132,0.840677966 L10.8543127,10.5297627 L8.9527628,11.1677288 L8.5861186,0.840677966 L8.59851752,0.840677966 C8.82169811,0.840677966 9.00283019,0.658440678 9.00283019,0.433898305 C9.00283019,0.209288136 8.82169811,0.0271186441 8.59851752,0.0271186441 L6.01071429,0.0271186441 C5.78753369,0.0271186441 5.60640162,0.209288136 5.60640162,0.433898305 C5.60640162,0.658440678 5.78753369,0.840677966 6.01071429,0.840677966 L6.02311321,0.840677966 L5.67904313,10.5297627 L2.00154987,11.763322 C1.83652291,11.8187119 1.72520216,11.9741695 1.72520216,12.1492203 L1.72520216,19.1187797 L0.404312668,19.1187797 C0.181132075,19.1187797 0,19.300678 0,19.5255593 C0,19.7501017 0.181132075,19.932339 0.404312668,19.932339 L24.5551213,19.932339 C24.7786388,19.932339 24.959434,19.7501017 24.959434,19.5255593 C24.959434,19.300678 24.7786388,19.1187797 24.5551213,19.1187797 L24.5551213,19.1187797 Z M22.4259434,19.1187797 L18.0592992,19.1187797 L18.0592992,12.4423729 L22.4259434,10.9778305 L22.4259434,19.1187797 Z M7.70876011,12.4423729 L12.0754043,10.9778305 L12.0754043,19.1187797 L7.70876011,19.1187797 L7.70876011,12.4423729 Z M12.8840296,12.4423729 L17.2506739,10.9778305 L17.2506739,19.1187797 L12.8840296,19.1187797 L12.8840296,12.4423729 Z M17.028504,5.17966102 L18.281469,5.17966102 L18.3296496,6.53559322 L16.980593,6.53559322 L17.028504,5.17966102 Z M18.2524933,4.36610169 L17.0574798,4.36610169 L17.1056604,3.01016949 L18.2045822,3.01016949 L18.2524933,4.36610169 Z M16.9516173,7.34915254 L18.3583558,7.34915254 L18.406469,8.70508475 L16.903504,8.70508475 L16.9516173,7.34915254 Z M18.1274933,0.840677966 L18.1756739,2.19661017 L17.1342992,2.19661017 L17.1824798,0.840677966 L18.1274933,0.840677966 Z M16.8745283,9.51864407 L18.4354447,9.51864407 L18.5036388,11.4357288 L18.0592992,11.5848814 L18.0592992,10.4134915 C18.0592992,10.2827119 17.9969003,10.1600678 17.8913747,10.0835254 C17.7857817,10.0072542 17.6505391,9.98630508 17.5270889,10.027661 L16.8484501,10.2553898 L16.8745283,9.51864407 Z M11.8532345,5.17966102 L13.1061995,5.17966102 L13.1543801,6.53559322 L11.8053235,6.53559322 L11.8532345,5.17966102 Z M13.0772237,4.36610169 L11.8822102,4.36610169 L11.9303908,3.01016949 L13.0293127,3.01016949 L13.0772237,4.36610169 Z M11.7764151,7.34915254 L13.1833558,7.34915254 L13.231469,8.70508475 L11.7282345,8.70508475 L11.7764151,7.34915254 Z M12.9522237,0.840677966 L13.0004043,2.19661017 L11.9593666,2.19661017 L12.0074798,0.840677966 L12.9522237,0.840677966 Z M11.6992588,9.51864407 L13.2601752,9.51864407 L13.3283693,11.4357288 L12.8840296,11.5848814 L12.8840296,10.4134915 C12.8840296,10.2827119 12.8216307,10.1600678 12.7161051,10.0835254 C12.6105795,10.0072542 12.4752695,9.98630508 12.3518194,10.027661 L11.6731806,10.2553898 L11.6992588,9.51864407 Z M6.6782345,5.17966102 L7.93092992,5.17966102 L7.97911051,6.53559322 L6.63012129,6.53559322 L6.6782345,5.17966102 Z M7.90229111,4.36610169 L6.7069407,4.36610169 L6.75512129,3.01016949 L7.85411051,3.01016949 L7.90229111,4.36610169 Z M6.60114555,7.34915254 L8.00808625,7.34915254 L8.05626685,8.70508475 L6.55296496,8.70508475 L6.60114555,7.34915254 Z M7.77695418,0.840677966 L7.82513477,2.19661017 L6.78409704,2.19661017 L6.83227763,0.840677966 L7.77695418,0.840677966 Z M6.52425876,9.51864407 L8.08490566,9.51864407 L8.15309973,11.4357288 L7.70876011,11.5848814 L7.70876011,10.4134915 C7.70876011,10.2827119 7.64642857,10.1600678 7.54083558,10.0835254 C7.43557951,10.0072542 7.3,9.98630508 7.17681941,10.027661 L6.49797844,10.2553898 L6.52425876,9.51864407 Z M2.53382749,12.4423729 L6.90013477,10.9778305 L6.90013477,19.1187797 L2.53382749,19.1187797 L2.53382749,12.4423729 Z" id="Fill-25"></path>
            </g>
        </g>
    </g>
</svg>