<?xml version="1.0" encoding="UTF-8" standalone="no"?>
<svg width="74px" height="94px" viewBox="0 0 74 94" version="1.1" xmlns="http://www.w3.org/2000/svg" xmlns:xlink="http://www.w3.org/1999/xlink">
    <!-- Generator: Sketch 3.8.3 (29802) - http://www.bohemiancoding.com/sketch -->
    <title>Group 4</title>
    <desc>Created with Sketch.</desc>
    <defs>
        <polygon id="path-1" points="0 0.0915768463 0 123.752396 70.1831827 123.752396 70.1831827 0.0915768463"></polygon>
    </defs>
    <g id="Page-1" stroke="none" stroke-width="1" fill="none" fill-rule="evenodd">
        <g id="Group-4">
            <g id="Page-1">
                <g id="Group-3" style="mix-blend-mode: multiply;" transform="translate(20.006192, 32.481964)" fill="#BCB6B1">
                    <path d="M1.13934365,21.7859747 C-2.24913932,31.9544937 3.55147988,40.4607791 14.3970526,42.60441 C15.7823158,42.878428 15.3840495,43.7788489 15.1333994,45.0497805 L15.1333997,61.4864772 L23.2614489,45.4863967 C23.8377957,44.25918 24.2425015,42.8778949 25.7330279,42.6214695 C38.0451022,40.5066265 49.5675789,31.9816822 52.9649783,21.7859747 C56.8926563,10.0000033 48.4753189,0.445625723 34.1637399,0.445625723 C19.8524087,0.445625723 5.06677399,10.0000033 1.13934365,21.7859747 Z" id="Fill-1"></path>
                </g>
                <g id="Group-6" transform="translate(0.000000, 0.155928)">
                    <mask id="mask-2" fill="white">
                        <use xlink:href="#path-1"></use>
                    </mask>
                    <g id="Clip-5"></g>
                    <path d="M-9.90712074e-05,35.1587273 C-9.90712074e-05,51.8667992 11.6940186,65.844891 27.3487554,69.367382 C29.3482601,69.8173461 29.2150093,71.2969309 29.449065,73.3851305 L35.0916656,93.752396 L40.6540186,74.10339 C40.8801486,72.0859768 40.8048545,69.8163561 42.7077647,69.3955976 C58.4261548,65.9201325 70.1831827,51.9120926 70.1831827,35.1587273 C70.1831827,15.7917094 54.4724706,0.0914778443 35.0916656,0.0914778443 C15.7111084,0.0914778443 -9.90712074e-05,15.7917094 -9.90712074e-05,35.1587273 Z" id="Fill-4" fill="#1976D2" mask="url(#mask-2)"></path>
                </g>
                <path d="M35.0915666,66.1348679 C52.0785635,66.1348679 65.9331765,52.2896862 65.9331765,35.3145565 C65.9331765,18.3394267 52.0785635,4.49449261 35.0915666,4.49449261 C18.1045697,4.49449261 4.24995666,18.3394267 4.24995666,35.3145565 C4.24995666,52.2896862 18.1045697,66.1348679 35.0915666,66.1348679" id="Fill-7" fill="#FFFFFF"></path>
            </g>
            <g id="factory" transform="translate(12.000000, 16.000000)" fill="#000000">
                <path d="M7.0920593,24.2600949 C6.68140701,24.2600949 6.34812399,24.588122 6.34812399,24.9922983 L6.34812399,25.7736814 C6.34812399,26.1778576 6.68140701,26.5058847 7.0920593,26.5058847 C7.50283558,26.5058847 7.83599461,26.1778576 7.83599461,25.7736814 L7.83599461,24.9922983 C7.83599461,24.588122 7.50283558,24.2600949 7.0920593,24.2600949 L7.0920593,24.2600949 Z" id="Fill-1"></path>
                <path d="M7.0920593,27.3844068 C6.68140701,27.3844068 6.34812399,27.7123119 6.34812399,28.1166102 L6.34812399,28.8973831 C6.34812399,29.3021695 6.68140701,29.6295864 7.0920593,29.6295864 C7.50283558,29.6295864 7.83599461,29.3021695 7.83599461,28.8973831 L7.83599461,28.1166102 C7.83599461,27.7123119 7.50283558,27.3844068 7.0920593,27.3844068 L7.0920593,27.3844068 Z" id="Fill-2"></path>
                <path d="M7.0920593,30.5087186 C6.68140701,30.5087186 6.34812399,30.8361356 6.34812399,31.240922 L6.34812399,32.0216949 C6.34812399,32.4258712 6.68140701,32.7538983 7.0920593,32.7538983 C7.50283558,32.7538983 7.83599461,32.4258712 7.83599461,32.0216949 L7.83599461,31.240922 C7.83599461,30.8361356 7.50283558,30.5087186 7.0920593,30.5087186 L7.0920593,30.5087186 Z" id="Fill-3"></path>
                <path d="M10.2664313,24.2600949 C9.85565499,24.2600949 9.52249596,24.588122 9.52249596,24.9922983 L9.52249596,25.7736814 C9.52249596,26.1778576 9.85565499,26.5058847 10.2664313,26.5058847 C10.6770836,26.5058847 11.0103666,26.1778576 11.0103666,25.7736814 L11.0103666,24.9922983 C11.0103666,24.588122 10.6770836,24.2600949 10.2664313,24.2600949 L10.2664313,24.2600949 Z" id="Fill-4"></path>
                <path d="M10.2664313,27.3844068 C9.85565499,27.3844068 9.52249596,27.7123119 9.52249596,28.1166102 L9.52249596,28.8973831 C9.52249596,29.3021695 9.85565499,29.6295864 10.2664313,29.6295864 C10.6770836,29.6295864 11.0103666,29.3021695 11.0103666,28.8973831 L11.0103666,28.1166102 C11.0103666,27.7123119 10.6770836,27.3844068 10.2664313,27.3844068 L10.2664313,27.3844068 Z" id="Fill-5"></path>
                <path d="M10.2664313,30.5087186 C9.85565499,30.5087186 9.52249596,30.8361356 9.52249596,31.240922 L9.52249596,32.0216949 C9.52249596,32.4258712 9.85565499,32.7538983 10.2664313,32.7538983 C10.6770836,32.7538983 11.0103666,32.4258712 11.0103666,32.0216949 L11.0103666,31.240922 C11.0103666,30.8361356 10.6770836,30.5087186 10.2664313,30.5087186 L10.2664313,30.5087186 Z" id="Fill-6"></path>
                <path d="M16.6145553,24.2600949 C16.203903,24.2600949 15.8706199,24.588122 15.8706199,24.9922983 L15.8706199,25.7736814 C15.8706199,26.1778576 16.203903,26.5058847 16.6145553,26.5058847 C17.0252075,26.5058847 17.3584906,26.1778576 17.3584906,25.7736814 L17.3584906,24.9922983 C17.3584906,24.588122 17.0252075,24.2600949 16.6145553,24.2600949 L16.6145553,24.2600949 Z" id="Fill-7"></path>
                <path d="M16.6145553,27.3844068 C16.203903,27.3844068 15.8706199,27.7123119 15.8706199,28.1166102 L15.8706199,28.8973831 C15.8706199,29.3021695 16.203903,29.6295864 16.6145553,29.6295864 C17.0252075,29.6295864 17.3584906,29.3021695 17.3584906,28.8973831 L17.3584906,28.1166102 C17.3584906,27.7123119 17.0252075,27.3844068 16.6145553,27.3844068 L16.6145553,27.3844068 Z" id="Fill-8"></path>
                <path d="M16.6145553,30.5087186 C16.203903,30.5087186 15.8706199,30.8361356 15.8706199,31.240922 L15.8706199,32.0216949 C15.8706199,32.4258712 16.203903,32.7538983 16.6145553,32.7538983 C17.0252075,32.7538983 17.3584906,32.4258712 17.3584906,32.0216949 L17.3584906,31.240922 C17.3584906,30.8361356 17.0252075,30.5087186 16.6145553,30.5087186 L16.6145553,30.5087186 Z" id="Fill-9"></path>
                <path d="M19.7889272,24.2600949 C19.377655,24.2600949 19.0449919,24.588122 19.0449919,24.9922983 L19.0449919,25.7736814 C19.0449919,26.1778576 19.377655,26.5058847 19.7889272,26.5058847 C20.1995795,26.5058847 20.5328625,26.1778576 20.5328625,25.7736814 L20.5328625,24.9922983 C20.5328625,24.588122 20.1995795,24.2600949 19.7889272,24.2600949 L19.7889272,24.2600949 Z" id="Fill-10"></path>
                <path d="M19.7889272,27.3844068 C19.377655,27.3844068 19.0449919,27.7123119 19.0449919,28.1166102 L19.0449919,28.8973831 C19.0449919,29.3021695 19.377655,29.6295864 19.7889272,29.6295864 C20.1995795,29.6295864 20.5328625,29.3021695 20.5328625,28.8973831 L20.5328625,28.1166102 C20.5328625,27.7123119 20.1995795,27.3844068 19.7889272,27.3844068 L19.7889272,27.3844068 Z" id="Fill-11"></path>
                <path d="M19.7889272,30.5087186 C19.377655,30.5087186 19.0449919,30.8361356 19.0449919,31.240922 L19.0449919,32.0216949 C19.0449919,32.4258712 19.377655,32.7538983 19.7889272,32.7538983 C20.1995795,32.7538983 20.5328625,32.4258712 20.5328625,32.0216949 L20.5328625,31.240922 C20.5328625,30.8361356 20.1995795,30.5087186 19.7889272,30.5087186 L19.7889272,30.5087186 Z" id="Fill-12"></path>
                <path d="M26.1370512,24.2600949 C25.7262749,24.2600949 25.3931159,24.588122 25.3931159,24.9922983 L25.3931159,25.7736814 C25.3931159,26.1778576 25.7262749,26.5058847 26.1370512,26.5058847 C26.5477035,26.5058847 26.8809865,26.1778576 26.8809865,25.7736814 L26.8809865,24.9922983 C26.8809865,24.588122 26.5477035,24.2600949 26.1370512,24.2600949 L26.1370512,24.2600949 Z" id="Fill-13"></path>
                <path d="M26.1370512,27.3844068 C25.7262749,27.3844068 25.3931159,27.7123119 25.3931159,28.1166102 L25.3931159,28.8973831 C25.3931159,29.3021695 25.7262749,29.6295864 26.1370512,29.6295864 C26.5477035,29.6295864 26.8809865,29.3021695 26.8809865,28.8973831 L26.8809865,28.1166102 C26.8809865,27.7123119 26.5477035,27.3844068 26.1370512,27.3844068 L26.1370512,27.3844068 Z" id="Fill-14"></path>
                <path d="M26.1370512,30.5087186 C25.7262749,30.5087186 25.3931159,30.8361356 25.3931159,31.240922 L25.3931159,32.0216949 C25.3931159,32.4258712 25.7262749,32.7538983 26.1370512,32.7538983 C26.5477035,32.7538983 26.8809865,32.4258712 26.8809865,32.0216949 L26.8809865,31.240922 C26.8809865,30.8361356 26.5477035,30.5087186 26.1370512,30.5087186 L26.1370512,30.5087186 Z" id="Fill-15"></path>
                <path d="M29.3108032,24.2600949 C28.9001509,24.2600949 28.5668679,24.588122 28.5668679,24.9922983 L28.5668679,25.7736814 C28.5668679,26.1778576 28.9001509,26.5058847 29.3108032,26.5058847 C29.7220755,26.5058847 30.0547385,26.1778576 30.0547385,25.7736814 L30.0547385,24.9922983 C30.0547385,24.588122 29.7220755,24.2600949 29.3108032,24.2600949 L29.3108032,24.2600949 Z" id="Fill-16"></path>
                <path d="M29.3108032,27.3844068 C28.9001509,27.3844068 28.5668679,27.7123119 28.5668679,28.1166102 L28.5668679,28.8973831 C28.5668679,29.3021695 28.9001509,29.6295864 29.3108032,29.6295864 C29.7220755,29.6295864 30.0547385,29.3021695 30.0547385,28.8973831 L30.0547385,28.1166102 C30.0547385,27.7123119 29.7220755,27.3844068 29.3108032,27.3844068 L29.3108032,27.3844068 Z" id="Fill-17"></path>
                <path d="M29.3108032,30.5087186 C28.9001509,30.5087186 28.5668679,30.8361356 28.5668679,31.240922 L28.5668679,32.0216949 C28.5668679,32.4258712 28.9001509,32.7538983 29.3108032,32.7538983 C29.7220755,32.7538983 30.0547385,32.4258712 30.0547385,32.0216949 L30.0547385,31.240922 C30.0547385,30.8361356 29.7220755,30.5087186 29.3108032,30.5087186 L29.3108032,30.5087186 Z" id="Fill-18"></path>
                <path d="M35.6595472,26.5058847 C36.0701995,26.5058847 36.4034825,26.1778576 36.4034825,25.7736814 L36.4034825,24.9922983 C36.4034825,24.588122 36.0701995,24.2600949 35.6595472,24.2600949 C35.2482749,24.2600949 34.9156119,24.588122 34.9156119,24.9922983 L34.9156119,25.7736814 C34.9156119,26.1778576 35.2482749,26.5058847 35.6595472,26.5058847 L35.6595472,26.5058847 Z" id="Fill-19"></path>
                <path d="M35.6595472,29.6295864 C36.0701995,29.6295864 36.4034825,29.3021695 36.4034825,28.8973831 L36.4034825,28.1166102 C36.4034825,27.7123119 36.0701995,27.3844068 35.6595472,27.3844068 C35.2482749,27.3844068 34.9156119,27.7123119 34.9156119,28.1166102 L34.9156119,28.8973831 C34.9156119,29.3021695 35.2482749,29.6295864 35.6595472,29.6295864 L35.6595472,29.6295864 Z" id="Fill-20"></path>
                <path d="M35.6595472,32.7538983 C36.0701995,32.7538983 36.4034825,32.4258712 36.4034825,32.0216949 L36.4034825,31.240922 C36.4034825,30.8361356 36.0701995,30.5087186 35.6595472,30.5087186 C35.2482749,30.5087186 34.9156119,30.8361356 34.9156119,31.240922 L34.9156119,32.0216949 C34.9156119,32.4258712 35.2482749,32.7538983 35.6595472,32.7538983 L35.6595472,32.7538983 Z" id="Fill-21"></path>
                <path d="M38.8332992,26.5058847 C39.2440755,26.5058847 39.5772345,26.1778576 39.5772345,25.7736814 L39.5772345,24.9922983 C39.5772345,24.588122 39.2440755,24.2600949 38.8332992,24.2600949 C38.4226469,24.2600949 38.0893639,24.588122 38.0893639,24.9922983 L38.0893639,25.7736814 C38.0893639,26.1778576 38.4226469,26.5058847 38.8332992,26.5058847 L38.8332992,26.5058847 Z" id="Fill-22"></path>
                <path d="M38.8332992,29.6295864 C39.2440755,29.6295864 39.5772345,29.3021695 39.5772345,28.8973831 L39.5772345,28.1166102 C39.5772345,27.7123119 39.2440755,27.3844068 38.8332992,27.3844068 C38.4226469,27.3844068 38.0893639,27.7123119 38.0893639,28.1166102 L38.0893639,28.8973831 C38.0893639,29.3021695 38.4226469,29.6295864 38.8332992,29.6295864 L38.8332992,29.6295864 Z" id="Fill-23"></path>
                <path d="M38.8332992,32.7538983 C39.2440755,32.7538983 39.5772345,32.4258712 39.5772345,32.0216949 L39.5772345,31.240922 C39.5772345,30.8361356 39.2440755,30.5087186 38.8332992,30.5087186 C38.4226469,30.5087186 38.0893639,30.8361356 38.0893639,31.240922 L38.0893639,32.0216949 C38.0893639,32.4258712 38.4226469,32.7538983 38.8332992,32.7538983 L38.8332992,32.7538983 Z" id="Fill-24"></path>
                <path d="M45.1814232,34.4138034 L42.7516065,34.4138034 L42.7516065,18.7442847 C42.7516065,18.5088814 42.6362965,18.288122 42.4426253,18.1503458 C42.2483342,18.0130576 41.9988679,17.9753492 41.7722156,18.0497898 L35.5175795,20.1019119 L34.8434501,1.51322034 L34.8656442,1.51322034 C35.2764205,1.51322034 35.6095795,1.18519322 35.6095795,0.781016949 C35.6095795,0.376718644 35.2764205,0.0488135593 34.8656442,0.0488135593 L30.1047062,0.0488135593 C29.6939299,0.0488135593 29.3607709,0.376718644 29.3607709,0.781016949 C29.3607709,1.18519322 29.6939299,1.51322034 30.1047062,1.51322034 L30.1269003,1.51322034 L29.4944313,18.9535729 L25.9950836,20.1019119 L25.3209542,1.51322034 L25.3431482,1.51322034 C25.7544205,1.51322034 26.0870836,1.18519322 26.0870836,0.781016949 C26.0870836,0.376718644 25.7544205,0.0488135593 25.3431482,0.0488135593 L20.5822102,0.0488135593 C20.171558,0.0488135593 19.8382749,0.376718644 19.8382749,0.781016949 C19.8382749,1.18519322 20.171558,1.51322034 20.5822102,1.51322034 L20.6045283,1.51322034 L19.9719353,18.9535729 L16.4730836,20.1019119 L15.7984582,1.51322034 L15.8212722,1.51322034 C16.2319245,1.51322034 16.5652075,1.18519322 16.5652075,0.781016949 C16.5652075,0.376718644 16.2319245,0.0488135593 15.8212722,0.0488135593 L11.0597143,0.0488135593 C10.649062,0.0488135593 10.315779,0.376718644 10.315779,0.781016949 C10.315779,1.18519322 10.649062,1.51322034 11.0597143,1.51322034 L11.0825283,1.51322034 L10.4494394,18.9535729 L3.68285175,21.1739797 C3.37920216,21.2736814 3.17437197,21.5535051 3.17437197,21.8685966 L3.17437197,34.4138034 L0.74393531,34.4138034 C0.333283019,34.4138034 0,34.7412203 0,35.1460068 C0,35.5501831 0.333283019,35.8782102 0.74393531,35.8782102 L45.1814232,35.8782102 C45.5926954,35.8782102 45.9253585,35.5501831 45.9253585,35.1460068 C45.9253585,34.7412203 45.5926954,34.4138034 45.1814232,34.4138034 L45.1814232,34.4138034 Z M41.2637358,34.4138034 L33.2291105,34.4138034 L33.2291105,22.3962712 L41.2637358,19.7600949 L41.2637358,34.4138034 Z M14.1841186,22.3962712 L22.2187439,19.7600949 L22.2187439,34.4138034 L14.1841186,34.4138034 L14.1841186,22.3962712 Z M23.7066146,22.3962712 L31.7412399,19.7600949 L31.7412399,34.4138034 L23.7066146,34.4138034 L23.7066146,22.3962712 Z M31.3324474,9.32338983 L33.637903,9.32338983 L33.7265553,11.7640678 L31.2442911,11.7640678 L31.3324474,9.32338983 Z M33.5845876,7.85898305 L31.3857628,7.85898305 L31.4744151,5.41830508 L33.4964313,5.41830508 L33.5845876,7.85898305 Z M31.1909757,13.2284746 L33.7793747,13.2284746 L33.867903,15.6691525 L31.1024474,15.6691525 L31.1909757,13.2284746 Z M33.3545876,1.51322034 L33.4432399,3.95389831 L31.5271105,3.95389831 L31.6157628,1.51322034 L33.3545876,1.51322034 Z M31.0491321,17.1335593 L33.9212183,17.1335593 L34.0466954,20.5843119 L33.2291105,20.8527864 L33.2291105,18.7442847 C33.2291105,18.5088814 33.1142965,18.288122 32.9201294,18.1503458 C32.7258383,18.0130576 32.4769919,17.9753492 32.2498437,18.0497898 L31.0011482,18.4597017 L31.0491321,17.1335593 Z M21.8099515,9.32338983 L24.115407,9.32338983 L24.2040593,11.7640678 L21.7217951,11.7640678 L21.8099515,9.32338983 Z M24.0620916,7.85898305 L21.8632668,7.85898305 L21.9519191,5.41830508 L23.9739353,5.41830508 L24.0620916,7.85898305 Z M21.6686038,13.2284746 L24.2573747,13.2284746 L24.345903,15.6691525 L21.5799515,15.6691525 L21.6686038,13.2284746 Z M23.8320916,1.51322034 L23.9207439,3.95389831 L22.0052345,3.95389831 L22.0937628,1.51322034 L23.8320916,1.51322034 Z M21.5266361,17.1335593 L24.3987224,17.1335593 L24.5241995,20.5843119 L23.7066146,20.8527864 L23.7066146,18.7442847 C23.7066146,18.5088814 23.5918005,18.288122 23.3976334,18.1503458 C23.2034663,18.0130576 22.954496,17.9753492 22.7273477,18.0497898 L21.4786523,18.4597017 L21.5266361,17.1335593 Z M12.2879515,9.32338983 L14.5929111,9.32338983 L14.6815633,11.7640678 L12.1994232,11.7640678 L12.2879515,9.32338983 Z M14.5402156,7.85898305 L12.3407709,7.85898305 L12.4294232,5.41830508 L14.4515633,5.41830508 L14.5402156,7.85898305 Z M12.1461078,13.2284746 L14.7348787,13.2284746 L14.823531,15.6691525 L12.0574555,15.6691525 L12.1461078,13.2284746 Z M14.3095957,1.51322034 L14.398248,3.95389831 L12.4827385,3.95389831 L12.5713908,1.51322034 L14.3095957,1.51322034 Z M12.0046361,17.1335593 L14.8762264,17.1335593 L15.0017035,20.5843119 L14.1841186,20.8527864 L14.1841186,18.7442847 C14.1841186,18.5088814 14.0694286,18.288122 13.8751375,18.1503458 C13.6814663,18.0130576 13.432,17.9753492 13.2053477,18.0497898 L11.9562803,18.4597017 L12.0046361,17.1335593 Z M4.66224259,22.3962712 L12.696248,19.7600949 L12.696248,34.4138034 L4.66224259,34.4138034 L4.66224259,22.3962712 Z" id="Fill-25"></path>
            </g>
        </g>
    </g>
</svg>