<?xml version="1.0" encoding="UTF-8" standalone="no"?>
<svg width="74px" height="94px" viewBox="0 0 74 94" version="1.1" xmlns="http://www.w3.org/2000/svg" xmlns:xlink="http://www.w3.org/1999/xlink">
    <!-- Generator: Sketch 3.8.3 (29802) - http://www.bohemiancoding.com/sketch -->
    <title>Group 22</title>
    <desc>Created with Sketch.</desc>
    <defs>
        <polygon id="path-1" points="0 0.0915768463 0 123.752396 70.1831827 123.752396 70.1831827 0.0915768463"></polygon>
        <polygon id="path-3" points="0.0060483871 0.0453788055 0.0060483871 25.6801754 39.4515121 25.6801754 39.4515121 0.0453788055 0.0060483871 0.0453788055"></polygon>
    </defs>
    <g id="Page-1" stroke="none" stroke-width="1" fill="none" fill-rule="evenodd">
        <g id="Group-22">
            <g id="Page-1">
                <g id="Group-3" style="mix-blend-mode: multiply;" transform="translate(20.006192, 32.481964)" fill="#BCB6B1">
                    <path d="M1.13934365,21.7859747 C-2.24913932,31.9544937 3.55147988,40.4607791 14.3970526,42.60441 C15.7823158,42.878428 15.3840495,43.7788489 15.1333994,45.0497805 L15.1333997,61.4864772 L23.2614489,45.4863967 C23.8377957,44.25918 24.2425015,42.8778949 25.7330279,42.6214695 C38.0451022,40.5066265 49.5675789,31.9816822 52.9649783,21.7859747 C56.8926563,10.0000033 48.4753189,0.445625723 34.1637399,0.445625723 C19.8524087,0.445625723 5.06677399,10.0000033 1.13934365,21.7859747 Z" id="Fill-1"></path>
                </g>
                <g id="Group-6" transform="translate(0.000000, 0.155928)">
                    <mask id="mask-2" fill="white">
                        <use xlink:href="#path-1"></use>
                    </mask>
                    <g id="Clip-5"></g>
                    <path d="M-9.90712074e-05,35.1587273 C-9.90712074e-05,51.8667992 11.6940186,65.844891 27.3487554,69.367382 C29.3482601,69.8173461 29.2150093,71.2969309 29.449065,73.3851305 L35.0916656,93.752396 L40.6540186,74.10339 C40.8801486,72.0859768 40.8048545,69.8163561 42.7077647,69.3955976 C58.4261548,65.9201325 70.1831827,51.9120926 70.1831827,35.1587273 C70.1831827,15.7917094 54.4724706,0.0914778443 35.0916656,0.0914778443 C15.7111084,0.0914778443 -9.90712074e-05,15.7917094 -9.90712074e-05,35.1587273 Z" id="Fill-4" fill="#1976D2" mask="url(#mask-2)"></path>
                </g>
                <path d="M35.0915666,66.1348679 C52.0785635,66.1348679 65.9331765,52.2896862 65.9331765,35.3145565 C65.9331765,18.3394267 52.0785635,4.49449261 35.0915666,4.49449261 C18.1045697,4.49449261 4.24995666,18.3394267 4.24995666,35.3145565 C4.24995666,52.2896862 18.1045697,66.1348679 35.0915666,66.1348679" id="Fill-7" fill="#FFFFFF"></path>
            </g>
            <g id="truck-2" transform="translate(36.000000, 36.000000) scale(-1, 1) translate(-36.000000, -36.000000) translate(16.000000, 20.000000)">
                <g id="Group-3" transform="translate(0.000000, 4.537881)">
                    <mask id="mask-4" fill="white">
                        <use xlink:href="#path-3"></use>
                    </mask>
                    <g id="Clip-2"></g>
                    <path d="M38.0647177,14.76451 L38.0647177,14.7315073 L23.9518145,14.7315073 C21.3308468,14.7315073 19.2095766,12.5616784 19.2095766,9.88020355 L19.2095766,1.134367 C19.2095766,0.532066494 18.733871,0.0453788055 18.1451613,0.0453788055 L13.6289315,0.0453788055 C12.540121,0.0453788055 11.6049395,0.598175163 11.0079637,1.40663984 C10.9595766,1.45624712 10.9110887,1.55535856 10.8631048,1.60486271 L7.05645161,7.47100152 L4.83870968,7.82598754 C3.05645161,7.82598754 1.62903226,9.29440443 1.62903226,11.1096598 L1.62903226,15.9114593 C0.741834677,16.0105708 0,16.8191386 0,17.7843664 L0,20.1604625 C0,21.1752976 0.790322581,22.0333696 1.83064516,22.0333696 L4.1047379,22.0333696 C4.69344758,24.1126471 6.57247984,25.6801754 8.84697581,25.6801754 C11.1209677,25.6801754 13.0001008,24.1621512 13.5888105,22.0418266 L25.5162298,22.0418266 C26.1128024,24.1126471 27.9840726,25.6801754 30.2580645,25.6801754 C32.5321573,25.6801754 34.4111895,24.1621512 34.9998992,22.0418266 L37.6208669,22.0418266 C38.6128024,22.0418266 39.4515121,21.2333619 39.4515121,20.1689195 L39.4515121,16.5879129 C39.4515121,15.7297378 38.8549395,14.9707773 38.0647177,14.76451 L38.0647177,14.76451 Z M8.84697581,23.1473161 C7.51602823,23.1473161 6.37913306,21.9838654 6.37913306,20.6226044 C6.37913306,19.2612402 7.46754032,18.0977896 8.84697581,18.0977896 C10.1775202,18.0977896 11.3143145,19.2612402 11.3143145,20.6226044 C11.3143145,21.9838654 10.2259073,23.1473161 8.84697581,23.1473161 L8.84697581,23.1473161 Z M30.2580645,23.1473161 C28.8707661,23.1473161 27.7903226,21.9838654 27.7903226,20.6226044 C27.7903226,19.2612402 28.8790323,18.0977896 30.2580645,18.0977896 C31.5886089,18.0977896 32.7259073,19.2612402 32.7259073,20.6226044 C32.7337702,21.9838654 31.6453629,23.1473161 30.2580645,23.1473161 L30.2580645,23.1473161 Z" id="Fill-1" fill="#000000" mask="url(#mask-4)"></path>
                </g>
                <path d="M24.6936492,16.4641526 L36.7660282,16.4641526 C38.2017137,16.4641526 39.3629032,15.2185043 39.3629032,13.6920232 L39.3629032,2.80100677 C39.3629032,1.27452563 38.2017137,0.0288774217 36.7660282,0.0288774217 L24.6936492,0.0288774217 C23.2579637,0.0288774217 22.0966734,1.27452563 22.0966734,2.80100677 L22.0966734,13.7001708 C22.0966734,15.2185043 23.2579637,16.4641526 24.6936492,16.4641526 L24.6936492,16.4641526 Z M36.6289315,13.6835663 L34.3549395,13.6835663 L36.6289315,11.3570774 L36.6289315,13.6835663 Z M36.6371976,8.4777922 L31.5484879,13.6835663 L29.3146169,13.6835663 L36.6451613,6.18389358 L36.6371976,8.4777922 Z M24.8145161,4.40999482 L24.8145161,4.38503648 L24.822379,2.80100677 L27.016129,2.80100677 L24.8145161,5.05344566 L24.8145161,4.40999482 Z M24.8145161,7.94118782 L29.8308468,2.80946373 L32.0643145,2.80946373 L24.8145161,10.2266295 L24.8145161,7.94118782 Z M24.8145161,13.1063272 L34.8868952,2.80946373 L36.6371976,2.80946373 L36.6371976,3.30460837 L26.4920363,13.6835663 L24.8145161,13.6835663 L24.8145161,13.1063272 Z" id="Fill-4" fill="#000000"></path>
            </g>
        </g>
    </g>
</svg>