<?xml version="1.0" encoding="UTF-8" standalone="no"?>
<svg width="44px" height="44px" viewBox="0 0 44 44" version="1.1" xmlns="http://www.w3.org/2000/svg" xmlns:xlink="http://www.w3.org/1999/xlink">
    <!-- Generator: Sketch 3.8.3 (29802) - http://www.bohemiancoding.com/sketch -->
    <title>instagram-logo</title>
    <desc>Created with Sketch.</desc>
    <defs></defs>
    <g id="Page-1" stroke="none" stroke-width="1" fill="none" fill-rule="evenodd">
        <g id="Лендинг" transform="translate(-1125.000000, -4492.000000)" fill="#FFFFFF">
            <g id="Group-18" transform="translate(959.000000, 4492.000000)">
                <g id="instagram-logo" transform="translate(166.453988, 0.000000)">
                    <path d="M21.3352263,26.135753 C23.6901694,26.135753 25.6078581,24.2054314 25.6078581,21.8263994 C25.6078581,20.8899604 25.3059698,20.0228872 24.8021065,19.3151387 C24.0253621,18.2312973 22.763018,17.5202973 21.3352263,17.5202973 C19.9128062,17.5202973 18.6493878,18.2269619 17.8737177,19.3151387 C17.3655571,20.0228872 17.0679662,20.8899604 17.0636688,21.8263994 C17.0636688,24.2054314 18.9813575,26.135753 21.3352263,26.135753 L21.3352263,26.135753 Z" id="Fill-1"></path>
                    <g id="Group-5">
                        <polygon id="Fill-2" points="30.6647547 16.5545945 30.6647547 12.4056494 30.127587 12.4056494 26.5479015 12.4186555 26.5650909 16.5676006"></polygon>
                        <path d="M21.3352263,0.301307927 C9.57232822,0.301307927 0,9.95941921 0,21.8263994 C0,33.6977149 9.57232822,43.3547424 21.3352263,43.3547424 C33.1024217,43.3547424 42.6758242,33.6977149 42.6758242,21.8263994 C42.6758242,9.95941921 33.1024217,0.301307927 21.3352263,0.301307927 L21.3352263,0.301307927 Z M33.471993,19.3151387 L33.471993,29.3406723 C33.471993,31.9494787 31.3695187,34.0705564 28.7803704,34.0705564 L13.8911564,34.0705564 C11.3052312,34.0705564 9.20275685,31.9494787 9.20275685,29.3406723 L9.20275685,14.3197134 C9.20275685,11.7076555 11.3052312,9.58657774 13.8911564,9.58657774 L28.7803704,9.58657774 C31.3695187,9.58657774 33.471993,11.7076555 33.471993,14.3197134 L33.471993,19.3151387 Z" id="Fill-4"></path>
                    </g>
                    <path d="M27.9746189,21.8263994 C27.9746189,25.5179634 24.9997843,28.5234558 21.3352263,28.5234558 C17.67604,28.5234558 14.7012053,25.5179634 14.7012053,21.8263994 C14.7012053,20.9409009 14.8773963,20.0900854 15.1878792,19.3151387 L11.5662947,19.3151387 L11.5662947,29.3406723 C11.5662947,30.6369466 12.6062513,31.6828537 13.8911564,31.6828537 L28.7803704,31.6828537 C30.0642012,31.6828537 31.1052322,30.6369466 31.1052322,29.3406723 L31.1052322,19.3151387 L27.4836476,19.3151387 C27.7941306,20.0900854 27.9746189,20.9409009 27.9746189,21.8263994 L27.9746189,21.8263994 Z" id="Fill-6"></path>
                </g>
            </g>
        </g>
    </g>
</svg>