<?xml version="1.0" encoding="UTF-8" standalone="no"?>
<svg width="44px" height="44px" viewBox="0 0 44 44" version="1.1" xmlns="http://www.w3.org/2000/svg" xmlns:xlink="http://www.w3.org/1999/xlink">
    <!-- Generator: Sketch 3.8.3 (29802) - http://www.bohemiancoding.com/sketch -->
    <title>odnoklassniki-logo</title>
    <desc>Created with Sketch.</desc>
    <defs></defs>
    <g id="Page-1" stroke="none" stroke-width="1" fill="none" fill-rule="evenodd">
        <g id="Лендинг" transform="translate(-1014.000000, -4493.000000)" fill="#FFFFFF">
            <g id="Group-18" transform="translate(959.000000, 4492.000000)">
                <g id="odnoklassniki-logo" transform="translate(55.484663, 1.097561)">
                    <path d="M21.2892474,18.2228049 C23.3204213,18.2145732 24.937636,16.5704268 24.9311084,14.5163415 C24.9224049,12.4606098 23.3013824,10.827439 21.2702086,10.8252439 C19.2216278,10.8230488 17.5853742,12.4885976 17.6000613,14.5613415 C17.6152924,16.6066463 19.251546,18.2293902 21.2892474,18.2228049 L21.2892474,18.2228049 Z" id="Fill-1"></path>
                    <path d="M21.2702086,0.43902439 C9.52160327,0.43902439 0,10.0470732 0,21.897439 C0,33.7472561 9.52160327,43.3531098 21.2702086,43.3531098 C33.0160941,43.3531098 42.5376973,33.7472561 42.5376973,21.897439 C42.5376973,10.0470732 33.0160941,0.43902439 21.2702086,0.43902439 L21.2702086,0.43902439 Z M21.2995828,6.96457317 C25.4429816,6.975 28.7666217,10.3944512 28.745407,14.6195122 C28.7263681,18.7479878 25.3456115,22.0944512 21.2103722,22.0796341 C17.1159305,22.0664634 13.7585644,18.6409756 13.7841309,14.5059146 C13.8053456,10.3236585 17.1648875,6.95359756 21.2995828,6.96457317 L21.2995828,6.96457317 Z M29.6908221,25.0485366 C28.7747812,25.9979268 27.6721595,26.6839024 26.4460573,27.1640854 C25.2901268,27.6162805 24.0215951,27.8440244 22.7661186,27.9960366 C22.9548753,28.2040244 23.0440859,28.3066463 23.1632147,28.4268293 C24.8674642,30.1543902 26.5798732,31.8737195 28.2775951,33.6078659 C28.8558323,34.1978049 28.977137,34.9309756 28.6583722,35.6169512 C28.3096892,36.3671341 27.5296401,36.8621341 26.7648221,36.8083537 C26.2801472,36.7743293 25.90209,36.5323171 25.5664622,36.1909756 C24.2810675,34.8859756 22.9701063,33.6018293 21.7097342,32.2726829 C21.3420123,31.8846951 21.1657669,31.959878 20.8426503,32.2940854 C19.5490961,33.6380488 18.2337832,34.9628049 16.9119427,36.2771341 C16.3168425,36.8687195 15.611317,36.9757317 14.9210225,36.6371341 C14.1899305,36.2793293 13.7226626,35.5269512 13.7585644,34.7679878 C13.7841309,34.2554268 14.0348998,33.8630488 14.3830389,33.5118293 C16.0704254,31.8139024 17.7512843,30.1093902 19.434319,28.407622 C19.5469202,28.2940244 19.650818,28.1738415 19.8123763,27.9982317 C17.5173783,27.7578659 15.4475828,27.1876829 13.6758814,25.789939 C13.4566626,25.6165244 13.2292843,25.4469512 13.0296483,25.2543293 C12.2539509,24.5019512 12.1756196,23.6420122 12.7897587,22.7546341 C13.3146871,21.9956707 14.1942822,21.7942683 15.1097791,22.2294512 C15.2882004,22.3128659 15.4562863,22.4204268 15.6200204,22.5318293 C18.919726,24.8213415 23.4564131,24.8833537 26.7691738,22.6344512 C27.098274,22.3814634 27.4491329,22.1734756 27.8549325,22.0686585 C28.6474928,21.8628659 29.3851125,22.1564634 29.8077751,22.8556098 C30.2940818,23.6529878 30.2880982,24.4311585 29.6908221,25.0485366 L29.6908221,25.0485366 Z" id="Fill-2"></path>
                </g>
            </g>
        </g>
    </g>
</svg>