<?xml version="1.0" encoding="UTF-8" standalone="no"?>
<svg width="34px" height="34px" viewBox="0 0 34 34" version="1.1" xmlns="http://www.w3.org/2000/svg" xmlns:xlink="http://www.w3.org/1999/xlink">
    <!-- Generator: Sketch 3.8.3 (29802) - http://www.bohemiancoding.com/sketch -->
    <title>play-button</title>
    <desc>Created with Sketch.</desc>
    <defs></defs>
    <g id="Page-1" stroke="none" stroke-width="1" fill="none" fill-rule="evenodd">
        <g id="Лендинг" transform="translate(-792.000000, -3371.000000)" fill="#2196F3">
            <g id="play-button" transform="translate(792.000000, 3371.000000)">
                <path d="M29.0086234,4.9784456 C25.7939013,1.77927461 21.5270338,0.0176165803 16.9909922,0.0176165803 C12.4553922,0.0176165803 8.18817143,1.77927461 4.97371429,4.9784456 C1.76623377,8.18457513 0,12.4407409 0,16.9645907 C0,21.4888808 1.76623377,25.7446943 4.97371429,28.9510881 C8.18128312,32.1503472 12.4485039,33.9120052 16.9909922,33.9120052 C21.5339221,33.9120052 25.7939013,32.1503472 29.0086234,28.9510881 C32.2161922,25.7519171 33.982426,21.4957513 33.982426,16.9645907 C33.982426,12.4338705 32.2161922,8.18457513 29.0086234,4.9784456 L29.0086234,4.9784456 Z M16.9909922,32.0092383 C8.67556364,32.0092383 1.90770909,25.2585648 1.90770909,16.9645907 C1.90770909,8.67070466 8.67556364,1.92038342 16.9909922,1.92038342 C25.3065091,1.92038342 32.0747169,8.67070466 32.0747169,16.9645907 C32.0747169,25.2585648 25.3065091,32.0092383 16.9909922,32.0092383 L16.9909922,32.0092383 Z" id="Fill-1"></path>
                <path d="M24.6706649,16.1615389 L13.8897506,9.26288601 C13.5931117,9.07262694 13.2257351,9.05853368 12.9145247,9.22747668 C12.6109974,9.39668394 12.4202442,9.71360622 12.4202442,10.0590674 L12.4202442,23.8492383 C12.4202442,24.1946114 12.6109974,24.5187565 12.9145247,24.680829 C13.056,24.7582539 13.2184935,24.8005337 13.3740104,24.8005337 C13.5506338,24.8005337 13.7342338,24.7513834 13.8897506,24.6526425 L24.6706649,17.7539016 C24.9462857,17.5777358 25.1087792,17.2749948 25.1087792,16.9504974 C25.1087792,16.6264404 24.9390442,16.3377047 24.6706649,16.1615389 L24.6706649,16.1615389 Z" id="Fill-2"></path>
            </g>
        </g>
    </g>
</svg>