<?xml version="1.0" encoding="UTF-8" standalone="no"?>
<svg width="48px" height="43px" viewBox="0 0 48 43" version="1.1" xmlns="http://www.w3.org/2000/svg" xmlns:xlink="http://www.w3.org/1999/xlink">
    <!-- Generator: Sketch 3.8.3 (29802) - http://www.bohemiancoding.com/sketch -->
    <title>24-hours-support</title>
    <desc>Created with Sketch.</desc>
    <defs></defs>
    <g id="Page-1" stroke="none" stroke-width="1" fill="none" fill-rule="evenodd">
        <g id="Лендинг" transform="translate(-323.000000, -2753.000000)">
            <g id="24-hours-support" transform="translate(324.000000, 2754.000000)">
                <g id="Group-3" stroke="#000000">
                    <path d="M40.3422408,17.2038886 C40.1177801,16.8535249 39.800356,16.5734985 39.4263351,16.386654 C39.9216178,9.00725513 33.4872775,1.28446628 25.472801,0.30659824 C24.4393665,0.127208211 23.9722618,0.155944282 22.9580942,0.0863284457 C11.1288691,0.42827566 6.03503141,10.3579707 6.48238743,16.391824 C6.11125654,16.5786686 5.79840838,16.8562903 5.57551309,17.2034076 C2.48929843,17.2850469 0,19.8039619 0,22.9037302 C0,26.0034985 2.48929843,28.5218123 5.57551309,28.6040528 C5.98421466,29.2418974 6.69637173,29.6678886 7.5101623,29.6678886 C8.77877487,29.6678886 9.80799476,28.6407243 9.80799476,27.3730909 L9.80799476,18.4338886 C9.80799476,17.6602991 9.42181152,16.9792903 8.83380628,16.5636393 C9.82593717,10.9971378 14.8929215,4.80649853 22.9580942,4.67496188 C23.445911,4.71019062 24.4958429,4.70177419 24.9389843,4.8192434 C28.9513403,5.18884457 35.6829948,9.11522581 37.0763613,16.5697713 C36.4925707,16.9859032 36.1096387,17.6641466 36.1096387,18.4338886 L36.1096387,27.3730909 C36.1096387,28.3367713 36.7051099,29.1577331 37.547199,29.4982375 L37.547199,30.4714164 C37.547199,33.0118534 35.8283403,35.2418446 33.3686649,35.8927947 L26.4286859,37.7278152 C26.0546649,37.2328094 25.4878534,36.892305 24.8161571,36.892305 C23.6806073,36.892305 22.7591623,37.8123402 22.7591623,38.9461525 C22.7591623,40.0812874 23.6806073,41 24.8161571,41 C25.8618743,41 26.6878272,40.212824 26.8208901,39.2068211 L33.7609895,37.3718006 C36.8918796,36.5423021 39.0791675,34.0099208 39.0791675,29.5565513 C39.606,29.394956 40.051911,29.0576979 40.3422408,28.6030909 C43.4250838,28.518085 45.9116126,26.0012141 45.9116126,22.9037302 C45.9116126,19.8057654 43.4250838,17.2888944 40.3422408,17.2038886 Z" id="Fill-1"></path>
                </g>
                <g id="Group-4" transform="translate(15.000000, 17.000000)" fill="#000000">
                    <path d="M6.00448953,8.36526523 L3.29015408,8.36526523 L3.29015408,8.33543369 C4.85810209,7.02607885 6.75666006,5.4508853 6.75666006,3.40323656 C6.75666006,-1.03857706 -0.286603964,0.137050179 0.45255273,2.0065914 C0.654194091,2.55134767 1.19053964,2.70403226 1.60288818,2.50197133 C2.91436126,1.85860932 4.49649289,2.13062007 4.49649289,3.59780287 C4.4530647,5.21605376 2.0930273,7.02710753 0.233218399,8.71883513 C-0.0466522064,8.97321147 -0.119178758,10.2337778 0.549059835,10.2337778 L6.00448953,10.2337778 C7.23422401,10.2337778 7.23422401,8.36526523 6.00448953,8.36526523 L6.00448953,8.36526523 Z" id="Fill-4"></path>
                    <path d="M13.4086316,10.2337778 C14.6190647,10.2337778 14.4791294,9.11722581 14.4791294,7.91691039 C16.1064439,7.91691039 16.0663788,6.2125448 14.4791294,6.2125448 L14.4791294,0.990555556 C14.4791294,0.729419355 14.268276,0.517659498 14.0084379,0.517659498 C11.0075056,0.517659498 12.2697016,-0.383017921 8.25719933,6.10703226 C7.92995251,6.64076703 7.8647371,7.91691039 8.52390987,7.91691039 L12.3371103,7.91691039 C12.3371103,9.11487455 12.197175,10.2337778 13.4086316,10.2337778 L13.4086316,10.2337778 Z M10.1661391,6.2125448 L10.1661391,6.18271326 L11.459773,4.06055914 C11.7865812,3.44805735 12.0407165,2.87978853 12.3514402,2.25229749 L12.4113915,2.25229749 C12.3115213,3.68332975 12.3371103,4.04674552 12.3371103,6.2125448 L10.1661391,6.2125448 Z" id="Fill-5"></path>
                </g>
            </g>
        </g>
    </g>
</svg>