<?xml version="1.0" encoding="UTF-8" standalone="no"?>
<svg width="65px" height="41px" viewBox="0 0 65 41" version="1.1" xmlns="http://www.w3.org/2000/svg" xmlns:xlink="http://www.w3.org/1999/xlink">
    <!-- Generator: Sketch 3.8.3 (29802) - http://www.bohemiancoding.com/sketch -->
    <title>truck</title>
    <desc>Created with Sketch.</desc>
    <defs>
        <polygon id="path-1" points="32.4732073 0.0933606318 0.00951219512 0.0933606318 0.00951219512 40.9227657 64.9369024 40.9227657 64.9369024 0.0933606318 32.4732073 0.0933606318"></polygon>
    </defs>
    <g id="Page-1" stroke="none" stroke-width="1" fill="none" fill-rule="evenodd">
        <g id="Лендинг" transform="translate(-661.000000, -2753.000000)">
            <g id="truck" transform="translate(661.000000, 2753.000000)">
                <path d="M14.2051951,32.9561474 C13.6446098,32.9561474 13.1900854,33.4022556 13.1900854,33.952461 C13.1900854,34.5012659 12.7349268,34.9479965 12.1757683,34.9479965 C11.6159756,34.9479965 11.1606585,34.5012659 11.1606585,33.952461 C11.1606585,33.402878 11.6159756,32.9561474 12.1757683,32.9561474 C12.7361951,32.9561474 13.1900854,32.5106616 13.1900854,31.9606119 C13.1900854,31.4105622 12.7361951,30.9642983 12.1757683,30.9642983 C10.4968659,30.9642983 9.13202439,32.3046458 9.13202439,33.952461 C9.13202439,35.5996537 10.4968659,36.9398456 12.1757683,36.9398456 C13.8540366,36.9398456 15.2195122,35.5996537 15.2195122,33.952461 C15.2195122,33.4022556 14.7649878,32.9561474 14.2051951,32.9561474 L14.2051951,32.9561474 Z" id="Fill-1" fill="#000000"></path>
                <g id="Group-5">
                    <mask id="mask-2" fill="white">
                        <use xlink:href="#path-1"></use>
                    </mask>
                    <g id="Clip-3"></g>
                    <path d="M54.790561,32.9561474 C54.2299756,32.9561474 53.7754512,33.4022556 53.7754512,33.952461 C53.7754512,34.5012659 53.3202927,34.9479965 52.7611341,34.9479965 C52.2013415,34.9479965 51.7460244,34.5012659 51.7460244,33.952461 C51.7460244,33.402878 52.2013415,32.9561474 52.7611341,32.9561474 C53.321561,32.9561474 53.7754512,32.5106616 53.7754512,31.9606119 C53.7754512,31.4105622 53.321561,30.9642983 52.7611341,30.9642983 C51.0822317,30.9642983 49.7173902,32.3046458 49.7173902,33.952461 C49.7173902,35.5996537 51.0822317,36.9398456 52.7611341,36.9398456 C54.4394024,36.9398456 55.804878,35.5996537 55.804878,33.952461 C55.804878,33.4022556 55.3503537,32.9561474 54.790561,32.9561474 L54.790561,32.9561474 Z" id="Fill-2" fill="#000000" mask="url(#mask-2)"></path>
                    <path d="M64.9369024,20.0102954 C64.9369024,19.7325475 64.820378,19.481563 64.633939,19.3009102 C64.1998659,18.124255 63.3204634,17.1358772 62.1320732,16.5523732 C62.1005244,16.5366575 62.0683415,16.5232758 62.0348902,16.5111389 L58.6815244,15.2753554 L56.6390976,7.65759462 C56.6359268,7.64670254 56.6329146,7.63581047 56.6297439,7.6247628 C55.9806951,5.50298684 54.0281585,4.07705879 51.7709146,4.07705879 L44.6442195,4.07705879 L44.6442195,2.08520971 C44.6442195,0.986821878 43.7337439,0.0933606318 42.6147927,0.0933606318 L2.02942683,0.0933606318 C0.910317073,0.0933606318 0,0.986821878 0,2.08520971 L0,29.9687628 C0,31.0671506 0.910317073,31.9606119 2.02942683,31.9606119 L5.36979268,31.9606119 C5.27197561,32.2833285 5.19635366,32.6158479 5.14689024,32.9561474 L1.01431707,32.9561474 C0.45452439,32.9561474 0,33.4022556 0,33.952461 C0,34.5018883 0.45452439,34.9479965 1.01431707,34.9479965 L5.14689024,34.9479965 C5.64104878,38.3214273 8.60378049,40.9227657 12.1757683,40.9227657 C15.747122,40.9227657 18.7104878,38.3214273 19.2046463,34.9479965 L21.307,34.9479965 C21.307,36.5951892 22.6726341,37.9353811 24.3515366,37.9353811 L30.4390244,37.9353811 C32.1172927,37.9353811 33.4827683,36.5951892 33.4827683,34.9479965 L45.7322561,34.9479965 C46.2264146,38.3214273 49.1891463,40.9227657 52.7611341,40.9227657 C56.3324878,40.9227657 59.2958537,38.3214273 59.7900122,34.9479965 L63.9217927,34.9479965 C64.4822195,34.9479965 64.9369024,34.5018883 64.9369024,33.952461 C64.9369024,33.4022556 64.4822195,32.9561474 63.9217927,32.9561474 L59.7900122,32.9561474 C59.7397561,32.6158479 59.6649268,32.2833285 59.5664756,31.9606119 L62.9074756,31.9606119 C64.0264268,31.9606119 64.9369024,31.0671506 64.9369024,29.9687628 L64.9369024,21.0058309 C64.9369024,20.7719626 64.9200976,20.540895 64.8879146,20.3141843 C64.9194634,20.2181784 64.9369024,20.1161041 64.9369024,20.0102954 L64.9369024,20.0102954 Z M61.8923659,25.9850646 L62.9074756,25.9850646 L62.9074756,24.9895291 L61.8923659,24.9895291 L61.8923659,25.9850646 Z M62.1333415,19.0147599 L44.6442195,19.0147599 L44.6442195,17.0229108 L57.6504024,17.0229108 L61.2688415,18.3557894 C61.6019268,18.526017 61.8923659,18.7508605 62.1333415,19.0147599 L62.1333415,19.0147599 Z M51.7709146,6.06812986 C53.1195854,6.06812986 54.2876829,6.91724481 54.6814878,8.18212577 L56.5176585,15.0310617 L44.6442195,15.0310617 L44.6442195,6.06812986 L51.7709146,6.06812986 Z M6.08812195,29.9687628 L2.02942683,29.9687628 L2.02942683,24.9895291 L33.4834024,24.9895291 C34.0438293,24.9895291 34.497878,24.5434209 34.497878,23.9939936 C34.497878,23.4437882 34.0438293,22.99768 33.4834024,22.99768 L2.02942683,22.99768 L2.02942683,2.08520971 L42.6147927,2.08520971 L42.6147927,29.9687628 L18.2638902,29.9687628 C18.1797073,29.9687628 18.0985366,29.9796549 18.0205366,29.9984826 C16.7379756,28.1774835 14.5970976,26.9813782 12.1757683,26.9813782 C9.75428049,26.9813782 7.61292683,28.1774835 6.33036585,29.9984826 C6.25236585,29.9796549 6.17182927,29.9687628 6.08812195,29.9687628 L6.08812195,29.9687628 Z M12.1757683,38.9316946 C9.37839024,38.9316946 7.10259756,36.6978859 7.10259756,33.952461 C7.10259756,31.2068804 9.37839024,28.9732273 12.1757683,28.9732273 C14.9729878,28.9732273 17.248939,31.2068804 17.248939,33.952461 C17.248939,36.6978859 14.9729878,38.9316946 12.1757683,38.9316946 L12.1757683,38.9316946 Z M19.2046463,32.9561474 C19.1543902,32.6158479 19.079561,32.2833285 18.9811098,31.9606119 L21.4817073,31.9606119 C21.3689878,32.2724364 21.307,32.6072899 21.307,32.9561474 L19.2046463,32.9561474 Z M31.4533415,34.9479965 C31.4533415,35.4968014 30.9981829,35.943532 30.4390244,35.943532 L24.3515366,35.943532 C23.7915854,35.943532 23.3364268,35.4968014 23.3364268,34.9479965 L23.3364268,33.9541726 L23.3364268,33.952461 L23.3364268,33.9499713 L23.3364268,32.9561474 C23.3364268,32.4073425 23.7915854,31.9606119 24.3515366,31.9606119 L30.4390244,31.9606119 C30.9981829,31.9606119 31.4533415,32.4073425 31.4533415,32.9561474 L31.4533415,34.9479965 Z M33.3082195,31.9606119 L45.9551585,31.9606119 C45.8573415,32.2833285 45.7817195,32.6158479 45.7322561,32.9561474 L33.4827683,32.9561474 C33.4827683,32.6072899 33.420939,32.2724364 33.3082195,31.9606119 L33.3082195,31.9606119 Z M52.7611341,38.9316946 C49.9637561,38.9316946 47.6879634,36.6978859 47.6879634,33.952461 C47.6879634,31.2068804 49.9637561,28.9732273 52.7611341,28.9732273 C55.5583537,28.9732273 57.8343049,31.2068804 57.8343049,33.952461 C57.8343049,36.6978859 55.5583537,38.9316946 52.7611341,38.9316946 L52.7611341,38.9316946 Z M58.848622,29.9687628 C58.7650732,29.9687628 58.6839024,29.9796549 58.6059024,29.9984826 C57.3233415,28.1774835 55.1824634,26.9813782 52.7611341,26.9813782 C50.3396463,26.9813782 48.1982927,28.1774835 46.9157317,29.9984826 C46.8377317,29.9796549 46.7571951,29.9687628 46.6734878,29.9687628 L44.6442195,29.9687628 L44.6442195,21.0058309 L62.9074756,21.0058309 L62.9074756,22.99768 L61.893,22.99768 C60.7740488,22.99768 59.8637317,23.8911413 59.8637317,24.9895291 L59.8637317,25.9850646 C59.8637317,27.0834525 60.7740488,27.9769137 61.893,27.9769137 L62.9074756,27.9769137 L62.9074756,29.9687628 L58.848622,29.9687628 Z" id="Fill-4" fill="#000000" mask="url(#mask-2)"></path>
                </g>
                <path d="M25.3658537,32.9561474 C25.0982439,32.9561474 24.8369756,33.0632009 24.6481585,33.247277 C24.4591829,33.4333758 24.3515366,33.6910512 24.3515366,33.952461 C24.3515366,34.2149599 24.4591829,34.4715461 24.6481585,34.6568669 C24.8369756,34.8421878 25.0982439,34.9479965 25.3658537,34.9479965 C25.6334634,34.9479965 25.8947317,34.8421878 26.0835488,34.6568669 C26.2725244,34.4715461 26.3801707,34.2130927 26.3801707,33.952461 C26.3801707,33.6904288 26.2725244,33.4333758 26.0835488,33.247277 C25.8947317,33.0632009 25.6334634,32.9561474 25.3658537,32.9561474 L25.3658537,32.9561474 Z" id="Fill-6" fill="#000000"></path>
                <path d="M37.5422561,24.9895291 L39.5710488,24.9895291 C40.1308415,24.9895291 40.5853659,24.5434209 40.5853659,23.9939936 C40.5853659,23.4437882 40.1308415,22.99768 39.5710488,22.99768 L37.5422561,22.99768 C36.9818293,22.99768 36.5271463,23.4437882 36.5271463,23.9939936 C36.5271463,24.5434209 36.9818293,24.9895291 37.5422561,24.9895291 L37.5422561,24.9895291 Z" id="Fill-7" fill="#000000"></path>
            </g>
        </g>
    </g>
</svg>