<?xml version="1.0" encoding="UTF-8" standalone="no"?>
<svg width="76px" height="42px" viewBox="0 0 76 42" version="1.1" xmlns="http://www.w3.org/2000/svg" xmlns:xlink="http://www.w3.org/1999/xlink">
    <!-- Generator: Sketch 3.8.3 (29802) - http://www.bohemiancoding.com/sketch -->
    <title>Group 39</title>
    <desc>Created with Sketch.</desc>
    <defs>
        <polygon id="path-1" points="21.3177663 0.239667667 0 0.239667667 0 41.5551634 42.6355326 41.5551634 42.6355326 0.239667667"></polygon>
        <polygon id="path-3" points="0.114783945 37.862248 26.264905 37.862248 26.264905 0 0.114783945 0"></polygon>
    </defs>
    <g id="Page-1" stroke="none" stroke-width="1" fill="none" fill-rule="evenodd">
        <g id="Лендинг" transform="translate(-304.000000, -2649.000000)">
            <g id="Group-39" transform="translate(304.552147, 2648.759322)">
                <g id="Group-17">
                    <g id="cogwheel-with-circles" transform="translate(32.288136, 0.000000)">
                        <path d="M21.3044157,11.5633249 C19.6652542,11.5633249 18.0471677,11.9709765 16.6210972,12.7409852 C11.9729037,15.2435135 10.2986173,20.9506367 12.8884924,25.4619817 C14.5979037,28.4083973 17.8364184,30.2383003 21.3395406,30.2383003 C22.9693354,30.2383003 24.5874219,29.8329134 26.0041258,29.0629047 C28.2731936,27.8422145 29.9029884,25.8424566 30.6054862,23.4282529 C31.300959,21.0389612 30.9895183,18.5273741 29.7367306,16.3600261 C28.0460526,13.3954926 24.8169045,11.5633249 21.3044157,11.5633249 L21.3044157,11.5633249 Z M29.1606824,23.0387191 C28.5752676,25.0724479 27.1936887,26.7619376 25.2735281,27.7969199 C24.0745986,28.4514272 22.7117529,28.7979312 21.3395406,28.7979312 C18.3773417,28.7979312 15.6422837,27.2488548 14.1951383,24.7553855 C12.0103702,20.9415778 13.427074,16.1290235 17.3423283,14.0137643 C18.5599911,13.3592569 19.9228368,13.0150177 21.3044157,13.0150177 C24.2666146,13.0150177 27.0016726,14.564094 28.4300847,17.0666223 C29.4908564,18.89879 29.7554639,21.0117845 29.1606824,23.0387191 L29.1606824,23.0387191 Z" id="Fill-1" fill="#000000"></path>
                        <g id="Group-5">
                            <mask id="mask-2" fill="white">
                                <use xlink:href="#path-1"></use>
                            </mask>
                            <g id="Clip-3"></g>
                            <path d="M19.6020294,17.9249555 C17.8832516,18.8534954 17.2884701,20.889489 18.2391838,22.5427429 C18.8526985,23.6320787 20.0422614,24.3114982 21.330174,24.3114982 C21.9249554,24.3114982 22.5197368,24.1620259 23.0419269,23.8789345 C24.7326048,22.9503946 25.3367529,20.8713711 24.3954059,19.2430292 C23.4798171,17.650923 21.220116,17.0394455 19.6020294,17.9249555 L19.6020294,17.9249555 Z M22.3089875,22.6129496 C21.3582739,23.1270436 20.0680196,22.7646866 19.5481713,21.8429409 C18.9978814,20.889489 19.3467886,19.7299465 20.3349688,19.1909404 C20.6347012,19.0301444 20.9742417,18.9418199 21.3137823,18.9418199 C22.0537467,18.9418199 22.7304862,19.3222948 23.0864184,19.9518901 C23.6273417,20.889489 23.2784344,22.0830024 22.3089875,22.6129496 L22.3089875,22.6129496 Z" id="Fill-2" fill="#000000" mask="url(#mask-2)"></path>
                            <path d="M38.9581847,22.2868283 C36.5977921,21.4013183 36.5977921,21.4013183 36.3870428,19.4649729 C36.2231267,17.7301886 36.21376,17.6237462 38.3540366,16.2082891 C41.5269848,14.0409411 42.0679081,13.3343449 40.5669045,10.7321684 C40.0189563,9.77645177 39.4522748,8.79582305 38.1526539,8.79582305 C37.3939563,8.79582305 36.4690009,9.12194438 34.6940232,9.8647763 C33.6426182,10.3086637 33.0291035,10.5283426 32.6099465,10.5283426 C32.2259144,10.5283426 31.8863738,10.3426346 30.9895183,9.62697949 C29.4721231,8.40628925 29.4440232,8.37911247 29.9568466,5.64558162 C30.5961195,2.2303666 30.44157,1.34712134 27.4676628,0.540876948 C26.7838983,0.346110044 26.2968332,0.239667667 25.8495763,0.239667667 C24.2947145,0.239667667 23.7092997,1.48753469 22.7304862,3.88588529 C21.824264,6.12343995 21.824264,6.12343995 19.8221454,6.33632471 C19.4381133,6.37029568 19.117306,6.38841353 18.8339652,6.38841353 C18.0097012,6.38841353 17.7450937,6.23894126 16.3916146,4.34562577 C15.0381356,2.45231029 14.2700714,1.46035791 13.0524086,1.46035791 C12.375669,1.46035791 11.7176628,1.78874397 10.8840321,2.24848446 C8.13258252,3.71829516 8.3690901,4.53133375 9.80686887,7.71554616 C10.8582739,10.0957789 10.8582739,10.0957789 9.59611954,11.5995606 C8.70863069,12.6707786 8.46041481,12.8293098 7.73918376,12.8293098 C7.2544603,12.8293098 6.55898751,12.7228674 5.67149866,12.5733951 C4.39061106,12.3423925 3.62254683,12.245009 3.03713202,12.245009 C1.051405,12.245009 0.676739518,13.5291118 0.320807315,14.7656551 C-0.512823372,17.5965694 0.154549509,18.1468992 3.65064674,19.4989438 C6.05553078,20.4206895 6.05553078,20.4206895 6.22881356,22.2234158 C6.41146298,24.1892027 6.41146298,24.1892027 4.15176182,25.6929843 C1.04203836,27.8059788 0.54794826,28.4355741 1.96699376,30.8769546 C2.61563336,32.0183793 3.17294826,32.999008 4.48193577,32.999008 C5.24063336,32.999008 6.16558876,32.6728866 7.83050847,31.9821436 C8.90064674,31.5224031 9.56801963,31.2755473 10.0246432,31.2755473 C10.4180419,31.2755473 10.7482159,31.4680495 11.6450714,32.1859694 C13.117975,33.3523061 13.1811998,33.4066596 12.705843,35.9816593 C12.0197368,39.5803175 12.1485281,40.4295918 15.0756021,41.2358362 C15.8155665,41.4396621 16.3377565,41.5551634 16.8037467,41.5551634 C18.3937333,41.5551634 18.9440232,40.2099129 19.8502453,37.9882113 C20.8103256,35.6623322 20.8103256,35.6623322 22.7492194,35.494742 C23.1964764,35.4494474 23.5617752,35.4245353 23.8732159,35.4245353 C24.6787467,35.4245353 24.8613961,35.5377719 26.2055085,37.4129696 C28.1912355,40.1827361 29.0412578,41.0138925 31.7575825,39.5644644 C34.3568243,38.1648604 34.2748662,37.299733 32.7293711,33.875459 C31.7505575,31.6990521 31.7950491,31.6469633 33.0220785,30.2224472 C33.925959,29.1421703 34.1554416,28.9926981 34.8860393,28.9926981 C35.389496,28.9926981 36.1037021,29.0991404 37.0192908,29.2576716 C38.1058207,29.4433796 38.9113515,29.5588809 39.5529661,29.5588809 C41.4192685,29.5588809 41.8852587,28.4695451 42.3325156,26.9385866 C43.147413,24.1892027 42.4144737,23.604902 38.9581847,22.2868283 L38.9581847,22.2868283 Z M40.8970785,26.5513176 C40.4474799,28.0641582 40.2741971,28.116247 39.5529661,28.116247 C39.0214095,28.116247 38.2533452,28.0007457 37.2838983,27.8331556 C36.2582516,27.6565065 35.5089206,27.5410052 34.8860393,27.5410052 C33.4154773,27.5410052 32.7832293,28.2136304 31.8676405,29.3007015 C30.2308207,31.2030759 30.1675959,31.8236124 31.3571588,34.4597598 C32.6825379,37.4061754 32.6825379,37.4061754 31.0269848,38.2984795 C30.3947368,38.6359245 29.9100134,38.8646624 29.610281,38.8646624 C29.1513158,38.8646624 28.5471677,38.1308894 27.4419045,36.590872 C26.1610169,34.79494 25.5756021,33.9819014 23.8732159,33.9819014 C23.5266503,33.9819014 23.1145183,34.0090782 22.6110616,34.061167 C20.0492864,34.2831107 19.6301293,34.6273499 18.4592997,37.4582642 C17.5156111,39.7682903 17.2510036,40.1125294 16.8037467,40.1125294 C16.5110393,40.1125294 16.080174,40.0060871 15.4853925,39.8475559 C13.6026985,39.3244029 13.6026985,39.3244029 14.1787467,36.2466329 C14.7173283,33.3455119 14.6447368,32.6977987 12.595785,31.0807804 C11.6708296,30.3288896 10.9940901,29.8329134 10.0246432,29.8329134 C9.30341213,29.8329134 8.54237288,30.097887 7.23572703,30.6550109 C5.86351472,31.2211938 4.96665923,31.5586388 4.48193577,31.5586388 C4.14473684,31.5586388 3.9691124,31.3978428 3.27363961,30.1862115 C2.3955174,28.6552531 2.3955174,28.6552531 5.00412578,26.8864978 C7.61975914,25.1426546 7.97569135,24.7282087 7.72045049,22.0920614 C7.49096789,19.6846518 7.13503568,19.2792649 4.20796164,18.1559581 C1.22468778,17.0054745 1.22468778,17.0054745 1.76561106,15.1642479 C2.17774309,13.7306729 2.30419269,13.6967019 3.03713202,13.6967019 C3.52185549,13.6967019 4.22669492,13.7850264 5.39752453,13.9979112 C6.40209634,14.1745602 7.14440232,14.2719437 7.73918376,14.2719437 C9.21208742,14.2719437 9.85136039,13.6083774 10.7575825,12.5099826 C12.403769,10.5555194 12.4482605,9.99839545 11.1767395,7.14030437 C9.95205174,4.40677352 9.95205174,4.40677352 11.6169715,3.51446933 C12.1930196,3.1951422 12.7339429,2.91205077 13.0524086,2.91205077 C13.4739072,2.91205077 14.059322,3.63676483 15.1575602,5.16772328 C16.4829393,7.01800887 17.1409456,7.84010639 18.8339652,7.84010639 C19.1547725,7.84010639 19.5200714,7.81292961 19.9673283,7.76989971 C22.5923283,7.5026614 23.0138269,7.15842222 24.1214318,4.40677352 C25.0721454,2.09901218 25.4023194,1.69136052 25.8495763,1.69136052 C26.1235504,1.69136052 26.5169492,1.77968505 27.0578724,1.92915732 C29.0318912,2.47042814 29.0318912,2.47042814 28.4839429,5.38966697 C27.8891615,8.5829383 28.0460526,9.13100331 30.029438,10.7502863 C30.9731267,11.4931182 31.6592328,11.9800355 32.6099465,11.9800355 C33.2960526,11.9800355 34.0172837,11.7241208 35.2888046,11.1919089 C36.5415923,10.6710207 37.6210972,10.2452512 38.1620205,10.2452512 C38.4547279,10.2452512 38.6373773,10.3516936 39.2602587,11.4410294 C40.2390723,13.1486369 40.2390723,13.1486369 37.5040143,15.0238345 C35.0148305,16.6589706 34.6682649,17.2613892 34.8954059,19.6053862 C35.1717217,22.1192381 35.5651204,22.5699197 38.4078947,23.6320787 C41.4192685,24.7802976 41.4192685,24.7802976 40.8970785,26.5513176 L40.8970785,26.5513176 Z" id="Fill-4" fill="#000000" mask="url(#mask-2)"></path>
                        </g>
                    </g>
                    <g id="hourglass" transform="translate(0.000000, 1.476999)">
                        <path d="M20.9217312,32.8565966 C20.9217312,33.2048913 20.6275424,33.4852647 20.267161,33.4852647 C19.9059625,33.4852647 19.6125908,33.2048913 19.6125908,32.8565966 C19.6125908,32.5043529 19.9059625,32.2239795 20.267161,32.2239795 C20.6275424,32.2239795 20.9217312,32.5043529 20.9217312,32.8565966 L20.9217312,32.8565966 Z" id="Fill-1" fill="#000000"></path>
                        <path d="M23.5359262,32.8565966 C23.5359262,33.2048913 23.2417373,33.4852647 22.8813559,33.4852647 C22.5209746,33.4852647 22.2267857,33.2048913 22.2267857,32.8565966 C22.2267857,32.5043529 22.5209746,32.2239795 22.8813559,32.2239795 C23.2417373,32.2239795 23.5359262,32.5043529 23.5359262,32.8565966 L23.5359262,32.8565966 Z" id="Fill-2" fill="#000000"></path>
                        <path d="M26.1501211,32.8565966 C26.1501211,33.2048913 25.8567494,33.4852647 25.4955508,33.4852647 C25.1351695,33.4852647 24.8409806,33.2048913 24.8409806,32.8565966 C24.8409806,32.5043529 25.1351695,32.2239795 25.4955508,32.2239795 C25.8567494,32.2239795 26.1501211,32.5043529 26.1501211,32.8565966 L26.1501211,32.8565966 Z" id="Fill-3" fill="#000000"></path>
                        <path d="M19.6125908,20.8487197 C19.6125908,21.2009634 19.3192191,21.4813367 18.9580206,21.4813367 C18.5976392,21.4813367 18.3034504,21.2009634 18.3034504,20.8487197 C18.3034504,20.5004249 18.5976392,20.2200516 18.9580206,20.2200516 C19.3192191,20.2200516 19.6125908,20.5004249 19.6125908,20.8487197 L19.6125908,20.8487197 Z" id="Fill-4" fill="#000000"></path>
                        <path d="M20.9217312,13.9017791 C20.9217312,14.2500738 20.6275424,14.5304472 20.267161,14.5304472 C19.9059625,14.5304472 19.6125908,14.2500738 19.6125908,13.9017791 C19.6125908,13.5495354 19.9059625,13.269162 20.267161,13.269162 C20.6275424,13.269162 20.9217312,13.5495354 20.9217312,13.9017791 L20.9217312,13.9017791 Z" id="Fill-5" fill="#000000"></path>
                        <path d="M23.5359262,13.9017791 C23.5359262,14.2500738 23.2417373,14.5304472 22.8813559,14.5304472 C22.5209746,14.5304472 22.2267857,14.2500738 22.2267857,13.9017791 C22.2267857,13.5495354 22.5209746,13.269162 22.8813559,13.269162 C23.2417373,13.269162 23.5359262,13.5495354 23.5359262,13.9017791 L23.5359262,13.9017791 Z" id="Fill-6" fill="#000000"></path>
                        <path d="M22.2267857,12.636545 C22.2267857,12.9848398 21.9366828,13.269162 21.5722155,13.269162 C21.2118341,13.269162 20.9217312,12.9848398 20.9217312,12.636545 C20.9217312,12.2882502 21.2118341,12.003928 21.5722155,12.003928 C21.9366828,12.003928 22.2267857,12.2882502 22.2267857,12.636545 L22.2267857,12.636545 Z" id="Fill-7" fill="#000000"></path>
                        <path d="M23.5359262,11.3713109 C23.5359262,11.7235546 23.2417373,12.003928 22.8813559,12.003928 C22.5209746,12.003928 22.2267857,11.7235546 22.2267857,11.3713109 C22.2267857,11.0230162 22.5209746,10.7426428 22.8813559,10.7426428 C23.2417373,10.7426428 23.5359262,11.0230162 23.5359262,11.3713109 L23.5359262,11.3713109 Z" id="Fill-8" fill="#000000"></path>
                        <path d="M20.9217312,16.4282983 C20.9217312,16.7765931 20.6275424,17.0609153 20.267161,17.0609153 C19.9059625,17.0609153 19.6125908,16.7765931 19.6125908,16.4282983 C19.6125908,16.0792137 19.9059625,15.7956813 20.267161,15.7956813 C20.6275424,15.7956813 20.9217312,16.0792137 20.9217312,16.4282983 L20.9217312,16.4282983 Z" id="Fill-9" fill="#000000"></path>
                        <path d="M19.6125908,15.1630642 C19.6125908,15.5121488 19.3192191,15.7956813 18.9580206,15.7956813 C18.5976392,15.7956813 18.3034504,15.5121488 18.3034504,15.1630642 C18.3034504,14.8147694 18.5976392,14.5304472 18.9580206,14.5304472 C19.3192191,14.5304472 19.6125908,14.8147694 19.6125908,15.1630642 L19.6125908,15.1630642 Z" id="Fill-10" fill="#000000"></path>
                        <path d="M22.2267857,15.1630642 C22.2267857,15.5121488 21.9366828,15.7956813 21.5722155,15.7956813 C21.2118341,15.7956813 20.9217312,15.5121488 20.9217312,15.1630642 C20.9217312,14.8147694 21.2118341,14.5304472 21.5722155,14.5304472 C21.9366828,14.5304472 22.2267857,14.8147694 22.2267857,15.1630642 L22.2267857,15.1630642 Z" id="Fill-11" fill="#000000"></path>
                        <path d="M19.6125908,22.7465708 C19.6125908,23.0948656 19.3192191,23.3791878 18.9580206,23.3791878 C18.5976392,23.3791878 18.3034504,23.0948656 18.3034504,22.7465708 C18.3034504,22.3974862 18.5976392,22.1139538 18.9580206,22.1139538 C19.3192191,22.1139538 19.6125908,22.3974862 19.6125908,22.7465708 L19.6125908,22.7465708 Z" id="Fill-12" fill="#000000"></path>
                        <path d="M19.6125908,24.640473 C19.6125908,24.9895575 19.3192191,25.27309 18.9580206,25.27309 C18.5976392,25.27309 18.3034504,24.9895575 18.3034504,24.640473 C18.3034504,24.2921782 18.5976392,24.0078559 18.9580206,24.0078559 C19.3192191,24.0078559 19.6125908,24.2921782 19.6125908,24.640473 L19.6125908,24.640473 Z" id="Fill-13" fill="#000000"></path>
                        <path d="M19.6125908,26.5383241 C19.6125908,26.8866188 19.3192191,27.1669922 18.9580206,27.1669922 C18.5976392,27.1669922 18.3034504,26.8866188 18.3034504,26.5383241 C18.3034504,26.1860804 18.5976392,25.905707 18.9580206,25.905707 C19.3192191,25.905707 19.6125908,26.1860804 19.6125908,26.5383241 L19.6125908,26.5383241 Z" id="Fill-14" fill="#000000"></path>
                        <path d="M19.6125908,28.4322263 C19.6125908,28.780521 19.3192191,29.0648433 18.9580206,29.0648433 C18.5976392,29.0648433 18.3034504,28.780521 18.3034504,28.4322263 C18.3034504,28.0839315 18.5976392,27.7996092 18.9580206,27.7996092 C19.3192191,27.7996092 19.6125908,28.0839315 19.6125908,28.4322263 L19.6125908,28.4322263 Z" id="Fill-15" fill="#000000"></path>
                        <path d="M19.6125908,30.3261284 C19.6125908,30.6783721 19.3192191,30.9587455 18.9580206,30.9587455 C18.5976392,30.9587455 18.3034504,30.6783721 18.3034504,30.3261284 C18.3034504,29.9778337 18.5976392,29.6974603 18.9580206,29.6974603 C19.3192191,29.6974603 19.6125908,29.9778337 19.6125908,30.3261284 L19.6125908,30.3261284 Z" id="Fill-16" fill="#000000"></path>
                        <path d="M22.2267857,31.5913625 C22.2267857,31.9396573 21.9366828,32.2239795 21.5722155,32.2239795 C21.2118341,32.2239795 20.9217312,31.9396573 20.9217312,31.5913625 C20.9217312,31.2430677 21.2118341,30.9587455 21.5722155,30.9587455 C21.9366828,30.9587455 22.2267857,31.2430677 22.2267857,31.5913625 L22.2267857,31.5913625 Z" id="Fill-17" fill="#000000"></path>
                        <path d="M24.8409806,31.5913625 C24.8409806,31.9396573 24.5508777,32.2239795 24.1904964,32.2239795 C23.8260291,32.2239795 23.5359262,31.9396573 23.5359262,31.5913625 C23.5359262,31.2430677 23.8260291,30.9587455 24.1904964,30.9587455 C24.5508777,30.9587455 24.8409806,31.2430677 24.8409806,31.5913625 L24.8409806,31.5913625 Z" id="Fill-18" fill="#000000"></path>
                        <path d="M13.0750605,6.95088954 L9.8062954,6.95088954 C9.44591404,6.95088954 9.15172518,7.23126288 9.15172518,7.58350657 C9.15172518,7.93180134 9.44591404,8.21217468 9.8062954,8.21217468 L13.0750605,8.21217468 C13.4354419,8.21217468 13.7296308,7.93180134 13.7296308,7.58350657 C13.7296308,7.23126288 13.4354419,6.95088954 13.0750605,6.95088954 L13.0750605,6.95088954 Z" id="Fill-19" fill="#000000"></path>
                        <path d="M13.0750605,11.3713109 L6.53753027,11.3713109 C6.17714891,11.3713109 5.88296005,11.6556332 5.88296005,12.003928 C5.88296005,12.3530125 6.17714891,12.636545 6.53753027,12.636545 L13.0750605,12.636545 C13.4354419,12.636545 13.7296308,12.3530125 13.7296308,12.003928 C13.7296308,11.6556332 13.4354419,11.3713109 13.0750605,11.3713109 L13.0750605,11.3713109 Z" id="Fill-20" fill="#000000"></path>
                        <path d="M13.0750605,15.7956813 L3.26876513,15.7956813 C2.90838378,15.7956813 2.61419492,16.0792137 2.61419492,16.4282983 C2.61419492,16.7765931 2.90838378,17.0609153 3.26876513,17.0609153 L13.0750605,17.0609153 C13.4354419,17.0609153 13.7296308,16.7765931 13.7296308,16.4282983 C13.7296308,16.0792137 13.4354419,15.7956813 13.0750605,15.7956813 L13.0750605,15.7956813 Z" id="Fill-21" fill="#000000"></path>
                        <path d="M13.0750605,20.2200516 L0.654570218,20.2200516 C0.293371671,20.2200516 0,20.5004249 0,20.8487197 C0,21.2009634 0.293371671,21.4813367 0.654570218,21.4813367 L13.0750605,21.4813367 C13.4354419,21.4813367 13.7296308,21.2009634 13.7296308,20.8487197 C13.7296308,20.5004249 13.4354419,20.2200516 13.0750605,20.2200516 L13.0750605,20.2200516 Z" id="Fill-22" fill="#000000"></path>
                        <path d="M13.0750605,24.640473 L4.57790557,24.640473 C4.21670702,24.640473 3.92333535,24.9247952 3.92333535,25.27309 C3.92333535,25.6213848 4.21670702,25.905707 4.57790557,25.905707 L13.0750605,25.905707 C13.4354419,25.905707 13.7296308,25.6213848 13.7296308,25.27309 C13.7296308,24.9247952 13.4354419,24.640473 13.0750605,24.640473 L13.0750605,24.640473 Z" id="Fill-23" fill="#000000"></path>
                        <g id="Group-27" transform="translate(7.731887, 0.000000)">
                            <mask id="mask-4" fill="white">
                                <use xlink:href="#path-3"></use>
                            </mask>
                            <g id="Clip-25"></g>
                            <path d="M5.34317378,29.0648433 L0.765268206,29.0648433 C0.40488685,29.0648433 0.114783945,29.3452166 0.114783945,29.6974603 C0.114783945,30.0457551 0.40488685,30.3261284 0.765268206,30.3261284 L5.34317378,30.3261284 C5.70355513,30.3261284 5.99774399,30.0457551 5.99774399,29.6974603 C5.99774399,29.3452166 5.70355513,29.0648433 5.34317378,29.0648433 L5.34317378,29.0648433 Z" id="Fill-24" fill="#000000" mask="url(#mask-4)"></path>
                            <path d="M24.3011944,34.1178817 L21.0324292,34.1178817 L21.0324292,30.3261284 C21.0324292,25.5321392 18.3226229,21.2041225 14.0290999,18.9548175 C18.3226229,16.7055125 21.0324292,12.3774958 21.0324292,7.58350657 L21.0324292,3.79175328 L24.3011944,3.79175328 C25.3831556,3.79175328 26.264905,2.94036607 26.264905,1.89390218 C26.264905,0.85138722 25.3831556,0 24.3011944,0 L9.26650913,0 C8.90531058,0 8.61193891,0.283532478 8.61193891,0.632617034 C8.61193891,0.980911806 8.90531058,1.26523407 9.26650913,1.26523407 L24.3011944,1.26523407 C24.6623929,1.26523407 24.9557646,1.54560741 24.9557646,1.89390218 C24.9557646,2.24298674 24.6623929,2.52651922 24.3011944,2.52651922 L9.26650913,2.52651922 C8.90531058,2.52651922 8.61193891,2.81084148 8.61193891,3.15913625 C8.61193891,3.50743102 8.90531058,3.79175328 9.26650913,3.79175328 L19.7273747,3.79175328 L19.7273747,7.58350657 C19.7273747,12.3158927 16.8059159,16.5483455 12.2860309,18.3719569 C12.2860309,18.3719569 12.2860309,18.3719569 12.2827622,18.3719569 C12.2762246,18.375116 12.2705043,18.3806445 12.2639668,18.3838036 C12.1936883,18.4146052 12.1266786,18.4548842 12.0719268,18.5109589 C12.0277985,18.5536072 11.995928,18.6065227 11.9665091,18.6618076 C11.95752,18.6799726 11.9379074,18.6926092 11.9313699,18.7107742 L11.9313699,18.7139334 C11.8994994,18.7913322 11.880704,18.8718902 11.880704,18.9548175 C11.880704,19.0377448 11.8994994,19.1214619 11.9313699,19.1957016 L11.9313699,19.1988608 C11.9607888,19.2691516 12.0049171,19.3283854 12.0564002,19.3805111 C12.0719268,19.3963068 12.0882706,19.4081536 12.1037973,19.4207901 C12.1487428,19.4610691 12.1969571,19.4918707 12.2508917,19.516354 C12.2639668,19.5226722 12.2705043,19.534519 12.2827622,19.5376781 C16.8026471,21.3581304 19.7273747,25.5937423 19.7273747,30.3261284 L19.7273747,34.1178817 C19.7273747,33.769587 19.4331859,33.4852647 19.0728045,33.4852647 C18.711606,33.4852647 18.4182343,33.769587 18.4182343,34.1178817 L17.1090939,34.1178817 C17.1090939,33.769587 16.818991,33.4852647 16.4586096,33.4852647 C16.0974111,33.4852647 15.8040394,33.769587 15.8040394,34.1178817 L14.494899,34.1178817 C14.494899,33.769587 14.2015273,33.4852647 13.8403287,33.4852647 C13.4799474,33.4852647 13.1898445,33.769587 13.1898445,34.1178817 L11.880704,34.1178817 C11.880704,33.769587 11.5873324,33.4852647 11.2261338,33.4852647 C10.8657525,33.4852647 10.5715636,33.769587 10.5715636,34.1178817 L9.26650913,34.1178817 C8.90531058,34.1178817 8.61193891,34.402204 8.61193891,34.7504988 C8.61193891,35.0987935 8.90531058,35.3831158 9.26650913,35.3831158 L24.3011944,35.3831158 C24.6623929,35.3831158 24.9557646,35.6666483 24.9557646,36.0157328 C24.9557646,36.3640276 24.6623929,36.6444009 24.3011944,36.6444009 L9.26650913,36.6444009 C8.90531058,36.6444009 8.61193891,36.9287232 8.61193891,37.277018 C8.61193891,37.6261025 8.90531058,37.909635 9.26650913,37.909635 L24.3011944,37.909635 C25.3831556,37.909635 26.264905,37.0582478 26.264905,36.0157328 C26.264905,34.9692689 25.3831556,34.1178817 24.3011944,34.1178817 L24.3011944,34.1178817 Z" id="Fill-26" fill="#000000" mask="url(#mask-4)"></path>
                        </g>
                    </g>
                </g>
            </g>
        </g>
    </g>
</svg>