<?xml version="1.0" encoding="UTF-8" standalone="no"?>
<svg width="59px" height="50px" viewBox="0 0 59 50" version="1.1" xmlns="http://www.w3.org/2000/svg" xmlns:xlink="http://www.w3.org/1999/xlink">
    <!-- Generator: Sketch 3.8.3 (29802) - http://www.bohemiancoding.com/sketch -->
    <title>tank</title>
    <desc>Created with Sketch.</desc>
    <defs>
        <polygon id="path-1" points="0.0112025316 0.0411111111 59 0.0411111111 59 49.8559259 0.0112025316 49.8559259"></polygon>
    </defs>
    <g id="Page-1" stroke="none" stroke-width="1" fill="none" fill-rule="evenodd">
        <g id="Лендинг" transform="translate(-664.000000, -2638.000000)">
            <g id="tank" transform="translate(664.000000, 2638.000000)">
                <g id="Group-3">
                    <mask id="mask-2" fill="white">
                        <use xlink:href="#path-1"></use>
                    </mask>
                    <g id="Clip-2"></g>
                    <path d="M52.2711994,10.5162963 L21.7515823,10.5162963 L21.7515823,7.70166667 C22.327019,7.55111111 22.7514082,7.03259259 22.7514082,6.41407407 L22.7514082,1.37425926 C22.7514082,0.637777778 22.1498323,0.0411111111 21.4072911,0.0411111111 L7.01539873,0.0411111111 C6.2730443,0.0411111111 5.67128165,0.637777778 5.67128165,1.37425926 L5.67128165,6.41407407 C5.67128165,7.03259259 6.09641772,7.55111111 6.67110759,7.70166667 L6.67110759,10.5162963 L6.65150316,10.5162963 C2.98360759,10.5162963 0,13.4755556 0,17.1135185 L0,43.2174074 C0,46.8551852 2.98360759,49.8146296 6.65150316,49.8146296 L52.2711994,49.8146296 C55.9383481,49.8146296 58.9227025,46.8551852 58.9227025,43.2174074 L58.9227025,17.1135185 C58.9227025,13.4755556 55.9383481,10.5162963 52.2711994,10.5162963 L52.2711994,10.5162963 Z M8.35951582,2.70740741 L20.0631741,2.70740741 L20.0631741,5.08074074 L8.35951582,5.08074074 L8.35951582,2.70740741 Z M9.36027532,7.74722222 L19.0626013,7.74722222 L19.0626013,10.5162963 L9.36027532,10.5162963 L9.36027532,7.74722222 Z M56.2337215,43.2174074 C56.2337215,45.3846296 54.4562532,47.1483333 52.2711994,47.1483333 L6.65150316,47.1483333 C4.46644937,47.1483333 2.68823418,45.3846296 2.68823418,43.2174074 L2.68823418,17.1135185 C2.68823418,14.9462963 4.46644937,13.1825926 6.65150316,13.1825926 L52.2711994,13.1825926 C54.4562532,13.1825926 56.2337215,14.9462963 56.2337215,17.1135185 L56.2337215,43.2174074 Z" id="Fill-1" fill="#000000" mask="url(#mask-2)"></path>
                </g>
                <path d="M54.0281297,24.8616667 C51.1371297,23.7946296 47.9513165,23.7946296 45.0573291,24.8624074 C42.7693987,25.7057407 40.2495759,25.7057407 37.9616456,24.8616667 C35.0698987,23.7953704 31.8842722,23.7946296 28.9915918,24.8616667 C28.9880443,24.8631481 28.9843101,24.8644444 28.9800158,24.8659259 C26.6950728,25.7057407 24.1795443,25.7044444 21.8953481,24.8616667 C19.0026677,23.7953704 15.817788,23.7953704 12.9252943,24.8616667 C10.6373639,25.7057407 8.11754114,25.7057407 5.82961076,24.8616667 C5.13374684,24.6048148 4.36002532,24.9564815 4.10106013,25.6464815 C3.84209494,26.3366667 4.19665506,27.1048148 4.89233228,27.3616667 C7.78482595,28.4287037 10.9706392,28.427963 13.8623861,27.3616667 C16.1503165,26.5174074 18.6708861,26.5174074 20.9588165,27.3616667 C22.4050633,27.8948148 23.9243133,28.1616667 25.4433766,28.1609259 C26.9626266,28.1609259 28.4826234,27.8948148 29.9281234,27.3616667 C29.9324177,27.3601852 29.9368987,27.357963 29.9404462,27.3566667 C32.2255759,26.5174074 34.7401709,26.5188889 37.0253006,27.3616667 C39.9170475,28.427963 43.1026741,28.427963 45.9966614,27.3609259 C48.2838449,26.5174074 50.8038544,26.5174074 53.091038,27.3609259 C53.7867152,27.617037 54.5613703,27.2661111 54.8194019,26.5761111 C55.0783671,25.8851852 54.7247405,25.1185185 54.0281297,24.8616667 L54.0281297,24.8616667 Z" id="Fill-4" fill="#000000"></path>
            </g>
        </g>
    </g>
</svg>