<?xml version="1.0" encoding="UTF-8" standalone="no"?>
<svg width="42px" height="35px" viewBox="0 0 42 35" version="1.1" xmlns="http://www.w3.org/2000/svg" xmlns:xlink="http://www.w3.org/1999/xlink">
    <!-- Generator: Sketch 3.8.3 (29802) - http://www.bohemiancoding.com/sketch -->
    <title>tank copy</title>
    <desc>Created with Sketch.</desc>
    <defs>
        <polygon id="path-1" points="0.00780213245 0.0286130494 41.0912309 0.0286130494 41.0912309 34.6993802 0.00780213245 34.6993802"></polygon>
    </defs>
    <g id="Page-1" stroke="none" stroke-width="1" fill="none" fill-rule="evenodd">
        <g id="Лендинг" transform="translate(-439.000000, -1871.000000)">
            <g id="tank-copy" transform="translate(439.000000, 1871.000000)">
                <path d="M40.1470587,13.3421982 C39.9106822,20.3652839 40.5241443,20.4767153 40.7647082,27.9777916 C40.8584954,30.9021927 39.0390451,33.3534146 36.3284565,34.0088941 C28.7600591,35.8390978 16.3577185,34.0088947 8.45501013,34.0088944 C-1.44979679e-07,34.0088941 0.617647067,32.0692892 1.23529412,17.0671345 C1.41912524,12.6020231 11.7352945,13.3421981 12.9705882,13.3421982 C14.2058818,13.3421983 21.4852418,12.2477093 24.7058827,13.3421981 C29.6470592,15.0213864 31.8390661,13.1176448 36.328457,13.3421982 L40.1470587,13.3421982 Z" id="Path-321" fill="#4EBDF8" opacity="0.325559701"></path>
                <g id="Group-3">
                    <mask id="mask-2" fill="white">
                        <use xlink:href="#path-1"></use>
                    </mask>
                    <g id="Clip-2"></g>
                    <path d="M36.40488,7.3192696 L15.1491405,7.3192696 L15.1491405,5.36030682 C15.54991,5.25552119 15.8454808,4.89463588 15.8454808,4.46415126 L15.8454808,0.956474955 C15.8454808,0.443888929 15.4265063,0.0286130494 14.909355,0.0286130494 L4.88595541,0.0286130494 C4.3689341,0.0286130494 3.94982955,0.443888929 3.94982955,0.956474955 L3.94982955,4.46415126 C3.94982955,4.89463588 4.24592048,5.25552119 4.64616987,5.36030682 L4.64616987,7.3192696 L4.63251614,7.3192696 C2.07796794,7.3192696 0,9.37889361 0,11.9108907 L0,30.0790171 C0,32.6108853 2.07796794,34.6706382 4.63251614,34.6706382 L36.40488,34.6706382 C38.9589081,34.6706382 41.0373962,32.6108853 41.0373962,30.0790171 L41.0373962,11.9108907 C41.0373962,9.37889361 38.9589081,7.3192696 36.40488,7.3192696 L36.40488,7.3192696 Z M5.82208127,1.88433686 L13.9732291,1.88433686 L13.9732291,3.53616047 L5.82208127,3.53616047 L5.82208127,1.88433686 Z M6.51907177,5.39201317 L13.2763686,5.39201317 L13.2763686,7.3192696 L6.51907177,7.3192696 L6.51907177,5.39201317 Z M39.1646243,30.0790171 C39.1646243,31.5873888 37.926686,32.8149144 36.40488,32.8149144 L4.63251614,32.8149144 C3.11071021,32.8149144 1.87225172,31.5873888 1.87225172,30.0790171 L1.87225172,11.9108907 C1.87225172,10.402519 3.11071021,9.17499341 4.63251614,9.17499341 L36.40488,9.17499341 C37.926686,9.17499341 39.1646243,10.402519 39.1646243,11.9108907 L39.1646243,30.0790171 Z" id="Fill-1" fill="#000000" mask="url(#mask-2)"></path>
                </g>
                <ellipse id="Oval-17" stroke="#2196F3" cx="17.2941176" cy="24" rx="1.23529412" ry="1.2"></ellipse>
                <ellipse id="Oval-17-Copy" stroke="#2196F3" cx="21.6176471" cy="19.8" rx="1.85294118" ry="1.8"></ellipse>
                <path d="M37.6285145,11.9858318 C35.6150442,11.2431814 33.3962477,11.2431814 31.3806968,11.9863473 C29.7872413,12.5733015 28.0322817,12.5733015 26.4388261,11.9858318 C24.4248357,11.2436969 22.2061693,11.2431814 20.1915287,11.9858318 C20.189058,11.9868629 20.1864573,11.9877651 20.1834665,11.9887962 C18.5920915,12.5733015 16.8401227,12.5723993 15.2492679,11.9858318 C13.2346272,11.2436969 11.016481,11.2436969 9.00197038,11.9858318 C7.40851486,12.5733015 5.65355521,12.5733015 4.06009969,11.9858318 C3.57545723,11.8070647 3.03658995,12.0518222 2.85623065,12.5320575 C2.67587136,13.0124216 2.92280885,13.5470474 3.40732127,13.7258145 C5.42183187,14.4684649 7.6406283,14.4679494 9.65461876,13.7258145 C11.2480743,13.1382159 13.0035541,13.1382159 14.5970096,13.7258145 C15.6042649,14.0968819 16.6623641,14.282609 17.7203332,14.2820934 C18.7784324,14.2820934 19.8370518,14.0968819 20.8437869,13.7258145 C20.8467778,13.7247834 20.8498986,13.7232368 20.8523693,13.7223346 C22.4438743,13.1382159 24.1951929,13.139247 25.7866979,13.7258145 C27.8006884,14.4679494 30.0193548,14.4679494 32.0349056,13.725299 C33.627841,13.1382159 35.3829307,13.1382159 36.9758661,13.725299 C37.4603785,13.9035505 37.999896,13.6593085 38.1796051,13.1790733 C38.3599644,12.6981936 38.1136771,12.1645989 37.6285145,11.9858318 L37.6285145,11.9858318 Z" id="Fill-4" fill="#2196F3"></path>
            </g>
        </g>
    </g>
</svg>