<?xml version="1.0" encoding="UTF-8" standalone="no"?>
<svg width="34px" height="30px" viewBox="0 0 34 30" version="1.1" xmlns="http://www.w3.org/2000/svg" xmlns:xlink="http://www.w3.org/1999/xlink">
    <!-- Generator: Sketch 3.8.3 (29802) - http://www.bohemiancoding.com/sketch -->
    <title>tank</title>
    <desc>Created with Sketch.</desc>
    <defs>
        <polygon id="path-1" points="0.00631601198 0.0238442079 33.2643298 0.0238442079 33.2643298 28.9161501 0.00631601198 28.9161501"></polygon>
    </defs>
    <g id="Page-1" stroke="none" stroke-width="1" fill="none" fill-rule="evenodd">
        <g id="Лендинг" transform="translate(-328.000000, -1878.000000)">
            <g id="tank" transform="translate(328.000000, 1878.000000)">
                <path d="M32.4999999,11.1184985 C32.3086475,16.9710699 32.8052596,17.0639294 33.0000018,23.3148263 C33.0759249,25.7518272 31.6030365,27.7945122 29.4087505,28.3407451 C23.2819526,29.8659148 13.2419626,28.3407456 6.84453201,28.3407454 C-1.17364504e-07,28.3407451 0.500000006,26.7244077 1,14.2226121 C1.14881567,10.5016859 9.50000031,11.1184985 10.4999999,11.1184985 C11.4999996,11.1184986 17.3928148,10.2064244 20.0000003,11.1184985 C24.0000003,12.517822 25.7744821,10.9313707 29.4087509,11.1184985 L32.4999999,11.1184985 Z" id="Path-321" fill="#4EBDF8" opacity="0.325559701"></path>
                <g id="Group-3">
                    <mask id="mask-2" fill="white">
                        <use xlink:href="#path-1"></use>
                    </mask>
                    <g id="Clip-2"></g>
                    <path d="M29.4706172,6.09939134 L12.2635899,6.09939134 L12.2635899,4.46692235 C12.5880224,4.37960099 12.827294,4.07886323 12.827294,3.72012605 L12.827294,0.797062462 C12.827294,0.369907441 12.4881242,0.0238442079 12.0694778,0.0238442079 L3.95529724,0.0238442079 C3.53675618,0.0238442079 3.19748107,0.369907441 3.19748107,0.797062462 L3.19748107,3.72012605 C3.19748107,4.07886323 3.43717372,4.37960099 3.76118513,4.46692235 L3.76118513,6.09939134 L3.75013211,6.09939134 C1.68216452,6.09939134 0,7.81574468 0,9.92574226 L0,25.0658476 C0,27.1757378 1.68216452,28.8921985 3.75013211,28.8921985 L29.4706172,28.8921985 C31.5381637,28.8921985 33.2207493,27.1757378 33.2207493,25.0658476 L33.2207493,9.92574226 C33.2207493,7.81574468 31.5381637,6.09939134 29.4706172,6.09939134 L29.4706172,6.09939134 Z M4.71311341,1.57028072 L11.3116617,1.57028072 L11.3116617,2.94680039 L4.71311341,2.94680039 L4.71311341,1.57028072 Z M5.27734381,4.49334431 L10.7475365,4.49334431 L10.7475365,6.09939134 L5.27734381,6.09939134 L5.27734381,4.49334431 Z M31.7046959,25.0658476 C31.7046959,26.322824 30.7025553,27.345762 29.4706172,27.345762 L3.75013211,27.345762 C2.51819398,27.345762 1.51563234,26.322824 1.51563234,25.0658476 L1.51563234,9.92574226 C1.51563234,8.66876584 2.51819398,7.64582784 3.75013211,7.64582784 L29.4706172,7.64582784 C30.7025553,7.64582784 31.7046959,8.66876584 31.7046959,9.92574226 L31.7046959,25.0658476 Z" id="Fill-1" fill="#000000" mask="url(#mask-2)"></path>
                </g>
                <circle id="Oval-17" stroke="#2196F3" cx="14" cy="20" r="1"></circle>
                <circle id="Oval-17-Copy" stroke="#2196F3" cx="17.5" cy="16.5" r="1.5"></circle>
                <path d="M30.4611784,9.98819315 C28.8312262,9.36931781 27.0350577,9.36931781 25.4034213,9.98862278 C24.1134811,10.4777513 22.6927994,10.4777513 21.4028593,9.98819315 C19.772486,9.36974744 17.9764228,9.36931781 16.3455232,9.98819315 C16.3435231,9.9890524 16.3414178,9.98980425 16.3389967,9.9906635 C15.0507407,10.4777513 13.6324803,10.4769994 12.3446454,9.98819315 C10.7137459,9.36974744 8.91810365,9.36974744 7.28730936,9.98819315 C5.99736918,10.4777513 4.57668755,10.4777513 3.28674737,9.98819315 C2.89441776,9.83922055 2.45819186,10.0431852 2.31218672,10.4433812 C2.16618158,10.8436847 2.36608335,11.2892062 2.7583077,11.4381788 C4.38910199,12.0570541 6.18527053,12.0566245 7.81564376,11.4381788 C9.10558394,10.9485133 10.5266866,10.9485133 11.8166268,11.4381788 C12.632024,11.7474016 13.4885805,11.9021742 14.3450317,11.9017445 C15.2015882,11.9017445 16.0585657,11.7474016 16.8735418,11.4381788 C16.8759629,11.4373195 16.8784893,11.4360306 16.8804894,11.4352788 C18.1688506,10.9485133 19.5865848,10.9493725 20.8749459,11.4381788 C22.5053192,12.0566245 24.3013824,12.0566245 25.9330189,11.4377491 C27.222538,10.9485133 28.6433249,10.9485133 29.932844,11.4377491 C30.3250683,11.5862921 30.7618205,11.3827571 30.9072994,10.9825611 C31.0533045,10.581828 30.8539291,10.1371657 30.4611784,9.98819315 L30.4611784,9.98819315 Z" id="Fill-4" fill="#2196F3"></path>
            </g>
        </g>
    </g>
</svg>