<?xml version="1.0" encoding="UTF-8" standalone="no"?>
<svg width="43px" height="43px" viewBox="0 0 43 43" version="1.1" xmlns="http://www.w3.org/2000/svg" xmlns:xlink="http://www.w3.org/1999/xlink">
    <!-- Generator: Sketch 3.8.3 (29802) - http://www.bohemiancoding.com/sketch -->
    <title>vk-social-logotype</title>
    <desc>Created with Sketch.</desc>
    <defs></defs>
    <g id="Page-1" stroke="none" stroke-width="1" fill="none" fill-rule="evenodd">
        <g id="Лендинг" transform="translate(-959.000000, -4493.000000)" fill="#FFFFFF">
            <g id="Group-18" transform="translate(959.000000, 4492.000000)">
                <path d="M21.2702086,1.09756098 C9.52377914,1.09756098 0,10.7034146 0,22.5559756 C0,34.4057927 9.52377914,44.0116463 21.2702086,44.0116463 C33.0160941,44.0116463 42.5376973,34.4057927 42.5376973,22.5559756 C42.5376973,10.7034146 33.0160941,1.09756098 21.2702086,1.09756098 L21.2702086,1.09756098 Z M32.0581677,24.875122 C33.050364,25.8525 34.098045,26.7722561 34.9879755,27.8484146 C35.3812638,28.3264024 35.7533374,28.8197561 36.0378323,29.3745732 C36.441456,30.1637195 36.07591,31.0318902 35.3747362,31.0790854 L31.0170143,31.0768902 C29.8926339,31.1712805 28.9961759,30.7146951 28.2416933,29.9387195 C27.6384335,29.3191463 27.0792352,28.6589634 26.4993661,28.0179878 C26.2611084,27.7562195 26.0125153,27.5098171 25.7149652,27.3144512 C25.120409,26.9248171 24.6036401,27.0444512 24.2636605,27.6706098 C23.9176973,28.3071951 23.8388221,29.012378 23.8050961,29.7219512 C23.7583149,30.7575 23.4477096,31.0296951 22.4174356,31.0768902 C20.2138241,31.1817073 18.1228139,30.8453049 16.1808507,29.7241463 C14.4684417,28.7357927 13.1400736,27.3402439 11.9841431,25.7603049 C9.73429448,22.6843902 8.01100613,19.3039024 6.46178732,15.8290244 C6.11310429,15.0464634 6.36822495,14.6260976 7.22442945,14.6112805 C8.64635992,14.5832927 10.0677464,14.5854878 11.4913088,14.6090854 C12.069546,14.6178659 12.451955,14.9520732 12.6749816,15.5030488 C13.4441513,17.4111585 14.3852147,19.2265244 15.5667117,20.9096341 C15.8811247,21.357439 16.2020654,21.8052439 16.658998,22.1207927 C17.1648875,22.4698171 17.5494724,22.3540244 17.7871861,21.7860366 C17.938409,21.4260366 18.004229,21.0380488 18.037955,20.6522561 C18.1505562,19.3253049 18.1657873,18.0005488 17.9677832,16.6779878 C17.8470225,15.852622 17.3857382,15.3186585 16.5697873,15.1622561 C16.1531084,15.0826829 16.2151207,14.9262805 16.4169325,14.6864634 C16.7672474,14.2726829 17.0968916,14.0153049 17.7534601,14.0153049 L22.6785399,14.0153049 C23.4542372,14.1695122 23.6266748,14.5212805 23.7327485,15.3082317 L23.7371002,20.8278659 C23.7283967,21.132439 23.8877791,22.0368293 24.4317464,22.2382317 C24.8674642,22.3820122 25.154135,22.0307927 25.4157832,21.7520122 C26.5951043,20.4892683 27.4366217,18.9971341 28.1883845,17.4517683 C28.5223804,16.772378 28.8090511,16.0666463 29.0875624,15.3614634 C29.293726,14.8384756 29.6162986,14.5810976 30.2010634,14.5920732 L34.9411943,14.5964634 C35.0815378,14.5964634 35.2240573,14.5986585 35.3600491,14.6222561 C36.159137,14.7594512 36.3778119,15.1062805 36.1313947,15.8932317 C35.7424581,17.1279878 34.9857996,18.1569512 34.2465481,19.1903049 C33.4561636,20.2939024 32.6102945,21.3596341 31.8264376,22.4698171 C31.1062249,23.4839634 31.1633415,23.9943293 32.0581677,24.875122 L32.0581677,24.875122 Z" id="vk-social-logotype"></path>
            </g>
        </g>
    </g>
</svg>