<?xml version="1.0" encoding="UTF-8" standalone="no"?>
<svg width="44px" height="44px" viewBox="0 0 44 44" version="1.1" xmlns="http://www.w3.org/2000/svg" xmlns:xlink="http://www.w3.org/1999/xlink">
    <!-- Generator: Sketch 3.8.3 (29802) - http://www.bohemiancoding.com/sketch -->
    <title>youtube-logotype</title>
    <desc>Created with Sketch.</desc>
    <defs></defs>
    <g id="Page-1" stroke="none" stroke-width="1" fill="none" fill-rule="evenodd">
        <g id="Лендинг" transform="translate(-1069.000000, -4493.000000)" fill="#FFFFFF">
            <g id="Group-18" transform="translate(959.000000, 4492.000000)">
                <g id="youtube-logotype" transform="translate(110.969325, 1.097561)">
                    <polygon id="Fill-1" points="11.172544 23.4790244 12.8599305 23.4790244 12.8599305 32.6886585 14.4553865 32.6886585 14.4553865 23.4790244 16.1721472 23.4790244 16.1721472 21.9720732 11.172544 21.9720732"></polygon>
                    <path d="M24.6634765,24.6045732 C24.1363722,24.6045732 23.6435378,24.8959756 23.1800777,25.4705488 L23.1800777,21.9720732 L21.74618,21.9720732 L21.74618,32.6886585 L23.1800777,32.6886585 L23.1800777,31.9143293 C23.6604008,32.5103049 24.1532352,32.7978659 24.6634765,32.7978659 C25.2330102,32.7978659 25.6175951,32.4932927 25.8085276,31.8995122 C25.9042658,31.5609146 25.9532229,31.0291463 25.9532229,30.2915854 L25.9532229,27.1125 C25.9532229,26.3562805 25.9042658,25.8289024 25.8085276,25.5073171 C25.6175951,24.9091463 25.2330102,24.6045732 24.6634765,24.6045732 L24.6634765,24.6045732 Z M24.5187812,30.4051829 C24.5187812,31.1257317 24.3104417,31.4813415 23.8964826,31.4813415 C23.6604008,31.4813415 23.4205112,31.3677439 23.1800777,31.1257317 L23.1800777,26.2596951 C23.4205112,26.0215244 23.6604008,25.9079268 23.8964826,25.9079268 C24.3088098,25.9079268 24.5187812,26.2767073 24.5187812,26.9972561 L24.5187812,30.4051829 Z" id="Fill-2"></path>
                    <path d="M19.0709489,30.8041463 C18.752184,31.2585366 18.4524581,31.4813415 18.1636115,31.4813415 C17.972135,31.4813415 17.8638855,31.3677439 17.8274397,31.1427439 C17.8149284,31.0955488 17.8149284,30.919939 17.8149284,30.5813415 L17.8149284,24.7033537 L16.3804867,24.7033537 L16.3804867,31.0165244 C16.3804867,31.580122 16.4294438,31.9615244 16.508319,32.2040854 C16.6524703,32.6068902 16.9712352,32.7978659 17.4325194,32.7978659 C17.9596237,32.7978659 18.5014151,32.4762805 19.0709489,31.8160976 L19.0709489,32.6886585 L20.5070225,32.6886585 L20.5070225,24.7033537 L19.0709489,24.7033537 L19.0709489,30.8041463 Z" id="Fill-3"></path>
                    <path d="M20.3030348,17.3266463 C20.7686708,17.3266463 20.9938732,16.9540244 20.9938732,16.2054878 L20.9938732,12.812378 C20.9938732,12.0665854 20.7686708,11.6934146 20.3030348,11.6934146 C19.8357669,11.6934146 19.6105644,12.0665854 19.6105644,12.812378 L19.6105644,16.2054878 C19.6105644,16.9540244 19.8357669,17.3266463 20.3030348,17.3266463 L20.3030348,17.3266463 Z" id="Fill-4"></path>
                    <path d="M21.2702086,0.43902439 C9.52160327,0.43902439 0,10.044878 0,21.897439 C0,33.7472561 9.52160327,43.3531098 21.2702086,43.3531098 C33.0160941,43.3531098 42.5376973,33.7472561 42.5376973,21.897439 C42.5376973,10.044878 33.0160941,0.43902439 21.2702086,0.43902439 L21.2702086,0.43902439 Z M23.6348344,10.4756707 L25.0796115,10.4756707 L25.0796115,16.4156707 C25.0796115,16.7586585 25.0796115,16.9370122 25.0970184,16.9836585 C25.1285685,17.2114024 25.2433456,17.3266463 25.436998,17.3266463 C25.7280204,17.3266463 26.0315542,17.0994512 26.3524949,16.6428659 L26.3524949,10.4756707 L27.8016237,10.4756707 L27.8016237,18.5443902 L26.3524949,18.5443902 L26.3524949,17.6635976 C25.7748016,18.3320122 25.2264826,18.6557927 24.6972025,18.6557927 C24.2299346,18.6557927 23.9089939,18.4631707 23.7626667,18.0559756 C23.6837914,17.8112195 23.6348344,17.4254268 23.6348344,16.8552439 L23.6348344,10.4756707 Z M18.1614356,13.1059756 C18.1614356,12.2443902 18.3055869,11.6138415 18.6140164,11.2044512 C19.0154642,10.6534756 19.5806462,10.3768902 20.3030348,10.3768902 C21.0275992,10.3768902 21.5927812,10.6534756 21.9925971,11.2044512 C22.2961309,11.6116463 22.443002,12.2443902 22.443002,13.1059756 L22.443002,15.9310976 C22.443002,16.7888415 22.2961309,17.4254268 21.9925971,17.8287805 C21.5927812,18.3792073 21.0275992,18.6557927 20.3030348,18.6557927 C19.5806462,18.6557927 19.0154642,18.3792073 18.6140164,17.8287805 C18.3055869,17.4254268 18.1614356,16.7888415 18.1614356,15.9310976 L18.1614356,13.1059756 Z M14.2856687,7.71695122 L15.4263681,11.9678049 L16.5230061,7.71695122 L18.1483804,7.71695122 L16.2151207,14.1585366 L16.2151207,18.5443902 L14.6082413,18.5443902 L14.6082413,14.1585366 C14.4619141,13.382561 14.1409734,12.2443902 13.6247485,10.7330488 C13.2869448,9.72768293 12.93391,8.72012195 12.5939305,7.71695122 L14.2856687,7.71695122 Z M32.718544,33.3916463 C32.4275215,34.6648171 31.3972474,35.6037805 30.1542822,35.7453659 C27.2108753,36.0757317 24.2342863,36.077378 21.2680327,36.0757317 C18.303411,36.077378 15.3246462,36.0757317 12.3817832,35.7453659 C11.138818,35.6037805 10.108,34.6648171 9.81697751,33.3916463 C9.40465031,31.580122 9.40465031,29.5995732 9.40465031,27.7342683 C9.40465031,25.8673171 9.40900204,23.8884146 9.82350511,22.0752439 C10.1123517,20.8015244 11.1448016,19.8631098 12.386135,19.7215244 C15.328998,19.3911585 18.3077628,19.3889634 21.2718405,19.3911585 C24.238638,19.3889634 27.215227,19.3911585 30.15809,19.7215244 C31.4015992,19.8631098 32.4340491,20.8015244 32.7250716,22.0752439 C33.1373988,23.8884146 33.133047,25.8673171 33.133047,27.7342683 C33.133047,29.5995732 33.133047,31.580122 32.718544,33.3916463 L32.718544,33.3916463 Z" id="Fill-5"></path>
                    <path d="M29.2295378,24.6045732 C28.4968139,24.6045732 27.9272802,24.8767683 27.5127771,25.4233537 C27.2092434,25.8289024 27.0710757,26.4523171 27.0710757,27.3056707 L27.0710757,30.1033537 C27.0710757,30.950122 27.2261063,31.580122 27.5296401,31.9790854 C27.9441431,32.5256707 28.5158528,32.7978659 29.2659836,32.7978659 C30.0161145,32.7978659 30.6025112,32.5125 30.9996074,31.9318902 C31.1742209,31.6767073 31.2868221,31.3853049 31.3352352,31.0659146 C31.3482904,30.919939 31.3651534,30.6005488 31.3651534,30.1329878 L31.3651534,29.9233537 L29.9035133,29.9233537 C29.9035133,30.5017683 29.8844744,30.8233537 29.8714192,30.9029268 C29.7887362,31.2887195 29.5847485,31.4813415 29.2295378,31.4813415 C28.7388793,31.4813415 28.4968139,31.1131098 28.4968139,30.3755488 L28.4968139,28.9585976 L31.3651534,28.9585976 L31.3651534,27.3056707 C31.3651534,26.4523171 31.2226339,25.8289024 30.9212761,25.4233537 C30.5214601,24.8767683 29.9502945,24.6045732 29.2295378,24.6045732 L29.2295378,24.6045732 Z M29.9328875,27.7534756 L28.4989898,27.7534756 L28.4989898,27.0164634 C28.4989898,26.2767073 28.7388793,25.9079268 29.2170266,25.9079268 C29.692998,25.9079268 29.9328875,26.2767073 29.9328875,27.0164634 L29.9328875,27.7534756 Z" id="Fill-6"></path>
                </g>
            </g>
        </g>
    </g>
</svg>